<svg xmlns="http://www.w3.org/2000/svg" width="1280" height="80" class="svgbob"><style>.svgbob line, .svgbob path, .svgbob circle, .svgbob rect, .svgbob polygon {
    stroke: black;
    stroke-width: 2;
    stroke-opacity: 1;
    fill-opacity: 1;
    stroke-linecap: round;
    stroke-linejoin: miter;
}
.svgbob text {
    white-space: pre;
    fill: black;
    font-family: Iosevka Fixed, monospace;
    font-size: 14px;
}
.svgbob rect.backdrop {
    stroke: none;
    fill: white;
}
.svgbob .broken {
    stroke-dasharray: 8;
}
.svgbob .filled {
    fill: black;
}
.svgbob .bg_filled {
    fill: white;
    stroke-width: 1;
}
.svgbob .nofill {
    fill: white;
}
.svgbob .end_marked_arrow {
    marker-end: url(#arrow);
}
.svgbob .start_marked_arrow {
    marker-start: url(#arrow);
}
.svgbob .end_marked_diamond {
    marker-end: url(#diamond);
}
.svgbob .start_marked_diamond {
    marker-start: url(#diamond);
}
.svgbob .end_marked_circle {
    marker-end: url(#circle);
}
.svgbob .start_marked_circle {
    marker-start: url(#circle);
}
.svgbob .end_marked_open_circle {
    marker-end: url(#open_circle);
}
.svgbob .start_marked_open_circle {
    marker-start: url(#open_circle);
}
.svgbob .end_marked_big_open_circle {
    marker-end: url(#big_open_circle);
}
.svgbob .start_marked_big_open_circle {
    marker-start: url(#big_open_circle);
}<!--separator--></style><defs><marker id="arrow" viewBox="-2 -2 8 8" refX="4" refY="2" markerWidth="7" markerHeight="7" orient="auto-start-reverse"><polygon points="0,0 0,4 4,2 0,0"></polygon></marker><marker id="diamond" viewBox="-2 -2 8 8" refX="4" refY="2" markerWidth="7" markerHeight="7" orient="auto-start-reverse"><polygon points="0,2 2,0 4,2 2,4 0,2"></polygon></marker><marker id="circle" viewBox="0 0 8 8" refX="4" refY="4" markerWidth="7" markerHeight="7" orient="auto-start-reverse"><circle cx="4" cy="4" r="2" class="filled"></circle></marker><marker id="open_circle" viewBox="0 0 8 8" refX="4" refY="4" markerWidth="7" markerHeight="7" orient="auto-start-reverse"><circle cx="4" cy="4" r="2" class="bg_filled"></circle></marker><marker id="big_open_circle" viewBox="0 0 8 8" refX="4" refY="4" markerWidth="7" markerHeight="7" orient="auto-start-reverse"><circle cx="4" cy="4" r="3" class="bg_filled"></circle></marker></defs><rect class="backdrop" x="0" y="0" width="1280" height="80"></rect><text x="2" y="12" >0</text><text x="1250" y="12" >39</text><text x="18" y="44" >Message</text><text x="82" y="44" >Type</text><text x="122" y="44" >1B</text><text x="162" y="44" >Stock</text><text x="210" y="44" >Locate</text><text x="266" y="44" >2B</text><text x="306" y="44" >Tracking</text><text x="378" y="44" >Number</text><text x="434" y="44" >2B</text><text x="474" y="44" >Timestamp</text><text x="554" y="44" >6B</text><text x="594" y="44" >Order</text><text x="642" y="44" >Reference</text><text x="722" y="44" >Number</text><text x="778" y="44" >8B</text><text x="818" y="44" >Buy</text><line x1="848" y1="32" x2="840" y2="48" class="solid"></line><text x="850" y="44" >Sell</text><text x="890" y="44" >Indicator</text><text x="970" y="44" >1B</text><text x="1010" y="44" >Shares</text><text x="1066" y="44" >4B</text><text x="1106" y="44" >Stock</text><text x="1154" y="44" >8B</text><text x="1194" y="44" >Price</text><text x="1242" y="44" >4B</text><g><line x1="4" y1="24" x2="1268" y2="24" class="solid"></line><line x1="4" y1="24" x2="4" y2="56" class="solid"></line><line x1="148" y1="24" x2="148" y2="56" class="solid"></line><line x1="292" y1="24" x2="292" y2="56" class="solid"></line><line x1="460" y1="24" x2="460" y2="56" class="solid"></line><line x1="580" y1="24" x2="580" y2="56" class="solid"></line><line x1="804" y1="24" x2="804" y2="56" class="solid"></line><line x1="996" y1="24" x2="996" y2="56" class="solid"></line><line x1="1092" y1="24" x2="1092" y2="56" class="solid"></line><line x1="1180" y1="24" x2="1180" y2="56" class="solid"></line><line x1="1268" y1="24" x2="1268" y2="56" class="solid"></line><line x1="4" y1="56" x2="1268" y2="56" class="solid"></line></g></svg>
