<svg xmlns="http://www.w3.org/2000/svg" width="616" height="96" class="svgbob"><style>.svgbob line, .svgbob path, .svgbob circle, .svgbob rect, .svgbob polygon {
    stroke: black;
    stroke-width: 2;
    stroke-opacity: 1;
    fill-opacity: 1;
    stroke-linecap: round;
    stroke-linejoin: miter;
}
.svgbob text {
    white-space: pre;
    fill: black;
    font-family: Iosevka Fixed, monospace;
    font-size: 14px;
}
.svgbob rect.backdrop {
    stroke: none;
    fill: white;
}
.svgbob .broken {
    stroke-dasharray: 8;
}
.svgbob .filled {
    fill: black;
}
.svgbob .bg_filled {
    fill: white;
    stroke-width: 1;
}
.svgbob .nofill {
    fill: white;
}
.svgbob .end_marked_arrow {
    marker-end: url(#arrow);
}
.svgbob .start_marked_arrow {
    marker-start: url(#arrow);
}
.svgbob .end_marked_diamond {
    marker-end: url(#diamond);
}
.svgbob .start_marked_diamond {
    marker-start: url(#diamond);
}
.svgbob .end_marked_circle {
    marker-end: url(#circle);
}
.svgbob .start_marked_circle {
    marker-start: url(#circle);
}
.svgbob .end_marked_open_circle {
    marker-end: url(#open_circle);
}
.svgbob .start_marked_open_circle {
    marker-start: url(#open_circle);
}
.svgbob .end_marked_big_open_circle {
    marker-end: url(#big_open_circle);
}
.svgbob .start_marked_big_open_circle {
    marker-start: url(#big_open_circle);
}<!--separator--></style><defs><marker id="arrow" viewBox="-2 -2 8 8" refX="4" refY="2" markerWidth="7" markerHeight="7" orient="auto-start-reverse"><polygon points="0,0 0,4 4,2 0,0"></polygon></marker><marker id="diamond" viewBox="-2 -2 8 8" refX="4" refY="2" markerWidth="7" markerHeight="7" orient="auto-start-reverse"><polygon points="0,2 2,0 4,2 2,4 0,2"></polygon></marker><marker id="circle" viewBox="0 0 8 8" refX="4" refY="4" markerWidth="7" markerHeight="7" orient="auto-start-reverse"><circle cx="4" cy="4" r="2" class="filled"></circle></marker><marker id="open_circle" viewBox="0 0 8 8" refX="4" refY="4" markerWidth="7" markerHeight="7" orient="auto-start-reverse"><circle cx="4" cy="4" r="2" class="bg_filled"></circle></marker><marker id="big_open_circle" viewBox="0 0 8 8" refX="4" refY="4" markerWidth="7" markerHeight="7" orient="auto-start-reverse"><circle cx="4" cy="4" r="3" class="bg_filled"></circle></marker></defs><rect class="backdrop" x="0" y="0" width="616" height="96"></rect><rect x="444" y="8" width="160" height="64" class="solid nofill" rx="0"></rect><text x="458" y="44" >Trading</text><text x="522" y="44" >algorithm</text><text x="218" y="12" >msg</text><line x1="240" y1="16" x2="248" y2="16" class="solid"></line><text x="250" y="12" >intf</text><text x="354" y="12" >dec</text><line x1="376" y1="16" x2="384" y2="16" class="solid"></line><text x="386" y="12" >intf</text><text x="74" y="28" >AXI</text><line x1="264" y1="16" x2="256" y2="32" class="solid"></line><polygon points="280,20 288,24 280,28" class="filled"></polygon><line x1="400" y1="16" x2="392" y2="32" class="solid"></line><polygon points="432,20 440,24 432,28" class="filled"></polygon><text x="18" y="44" >UDP</text><line x1="88" y1="32" x2="80" y2="48" class="solid"></line><polygon points="104,36 112,40 104,44" class="filled"></polygon><text x="218" y="44" >ov</text><line x1="232" y1="48" x2="240" y2="48" class="solid"></line><text x="242" y="44" >intf</text><text x="354" y="44" >early</text><text x="402" y="44" >intf</text><line x1="264" y1="48" x2="256" y2="64" class="solid"></line><polygon points="280,52 288,56 280,60" class="filled"></polygon><line x1="360" y1="56" x2="368" y2="56" class="solid"></line><line x1="376" y1="56" x2="384" y2="56" class="solid"></line><line x1="416" y1="56" x2="424" y2="56" class="solid"></line><polygon points="432,52 440,56 432,60" class="filled"></polygon><text x="130" y="44" >MoldUDP64</text><text x="306" y="44" >ITCH</text><g><line x1="116" y1="8" x2="212" y2="8" class="solid"></line><line x1="116" y1="8" x2="116" y2="72" class="solid"></line><line x1="212" y1="8" x2="212" y2="72" class="solid"></line><line x1="212" y1="24" x2="280" y2="24" class="solid"></line><line x1="212" y1="56" x2="280" y2="56" class="solid"></line><line x1="116" y1="72" x2="212" y2="72" class="solid"></line></g><g><line x1="292" y1="8" x2="348" y2="8" class="solid"></line><line x1="292" y1="8" x2="292" y2="72" class="solid"></line><line x1="348" y1="8" x2="348" y2="72" class="solid"></line><line x1="348" y1="24" x2="432" y2="24" class="solid"></line><line x1="348" y1="56" x2="352" y2="56" class="solid"></line><line x1="292" y1="72" x2="348" y2="72" class="solid"></line></g><g><line x1="4" y1="24" x2="52" y2="24" class="solid"></line><line x1="4" y1="24" x2="4" y2="56" class="solid"></line><line x1="52" y1="24" x2="52" y2="56" class="solid"></line><line x1="52" y1="40" x2="104" y2="40" class="solid"></line><line x1="4" y1="56" x2="52" y2="56" class="solid"></line></g><g><line x1="392" y1="48" x2="400" y2="48" class="solid"></line><line x1="400" y1="48" x2="392" y2="64" class="solid"></line><line x1="396" y1="56" x2="408" y2="56" class="solid"></line></g></svg>