<svg xmlns="http://www.w3.org/2000/svg" width="912" height="192" class="svgbob"><style>.svgbob line, .svgbob path, .svgbob circle, .svgbob rect, .svgbob polygon {
    stroke: black;
    stroke-width: 2;
    stroke-opacity: 1;
    fill-opacity: 1;
    stroke-linecap: round;
    stroke-linejoin: miter;
}
.svgbob text {
    white-space: pre;
    fill: black;
    font-family: Iosevka Fixed, monospace;
    font-size: 14px;
}
.svgbob rect.backdrop {
    stroke: none;
    fill: white;
}
.svgbob .broken {
    stroke-dasharray: 8;
}
.svgbob .filled {
    fill: black;
}
.svgbob .bg_filled {
    fill: white;
    stroke-width: 1;
}
.svgbob .nofill {
    fill: white;
}
.svgbob .end_marked_arrow {
    marker-end: url(#arrow);
}
.svgbob .start_marked_arrow {
    marker-start: url(#arrow);
}
.svgbob .end_marked_diamond {
    marker-end: url(#diamond);
}
.svgbob .start_marked_diamond {
    marker-start: url(#diamond);
}
.svgbob .end_marked_circle {
    marker-end: url(#circle);
}
.svgbob .start_marked_circle {
    marker-start: url(#circle);
}
.svgbob .end_marked_open_circle {
    marker-end: url(#open_circle);
}
.svgbob .start_marked_open_circle {
    marker-start: url(#open_circle);
}
.svgbob .end_marked_big_open_circle {
    marker-end: url(#big_open_circle);
}
.svgbob .start_marked_big_open_circle {
    marker-start: url(#big_open_circle);
}<!--separator--></style><defs><marker id="arrow" viewBox="-2 -2 8 8" refX="4" refY="2" markerWidth="7" markerHeight="7" orient="auto-start-reverse"><polygon points="0,0 0,4 4,2 0,0"></polygon></marker><marker id="diamond" viewBox="-2 -2 8 8" refX="4" refY="2" markerWidth="7" markerHeight="7" orient="auto-start-reverse"><polygon points="0,2 2,0 4,2 2,4 0,2"></polygon></marker><marker id="circle" viewBox="0 0 8 8" refX="4" refY="4" markerWidth="7" markerHeight="7" orient="auto-start-reverse"><circle cx="4" cy="4" r="2" class="filled"></circle></marker><marker id="open_circle" viewBox="0 0 8 8" refX="4" refY="4" markerWidth="7" markerHeight="7" orient="auto-start-reverse"><circle cx="4" cy="4" r="2" class="bg_filled"></circle></marker><marker id="big_open_circle" viewBox="0 0 8 8" refX="4" refY="4" markerWidth="7" markerHeight="7" orient="auto-start-reverse"><circle cx="4" cy="4" r="3" class="bg_filled"></circle></marker></defs><rect class="backdrop" x="0" y="0" width="912" height="192"></rect><rect x="708" y="24" width="192" height="80" class="solid nofill" rx="0"></rect><text x="730" y="44" >ITCH</text><text x="770" y="44" >decoder</text><text x="834" y="44" >module</text><text x="770" y="92" >tv</text><line x1="784" y1="96" x2="792" y2="96" class="solid"></line><text x="794" y="92" >itch5.v</text><text x="610" y="28" >.v</text><text x="98" y="44" >XML</text><text x="354" y="44" >Python</text><text x="474" y="44" >Generates</text><text x="82" y="60" >message</text><text x="338" y="60" >XML</text><text x="370" y="60" >to</text><text x="394" y="60" >RTL</text><text x="474" y="60" >RTL</text><text x="506" y="60" >files</text><text x="586" y="60" >.v</text><text x="642" y="60" >include</text><polygon points="280,68 288,72 280,76" class="filled"></polygon><polygon points="552,68 560,72 552,76" class="filled"></polygon><polygon points="696,68 704,72 696,76" class="filled"></polygon><text x="18" y="92" >nasdaq</text><line x1="64" y1="96" x2="72" y2="96" class="solid"></line><text x="74" y="92" >totalview</text><line x1="144" y1="96" x2="152" y2="96" class="solid"></line><text x="154" y="92" >itch.xml</text><text x="306" y="92" >itch</text><line x1="336" y1="96" x2="344" y2="96" class="solid"></line><text x="346" y="92" >msg</text><line x1="368" y1="96" x2="376" y2="96" class="solid"></line><text x="378" y="92" >to</text><line x1="392" y1="96" x2="400" y2="96" class="solid"></line><text x="402" y="92" >rtl.py</text><text x="562" y="108" >.v</text><text x="42" y="60" >ITCH</text><text x="146" y="60" >format</text><g><line x1="588" y1="8" x2="636" y2="8" class="solid"></line><line x1="588" y1="8" x2="588" y2="40" class="solid"></line><line x1="636" y1="8" x2="636" y2="88" class="solid"></line><line x1="564" y1="40" x2="612" y2="40" class="solid"></line><line x1="564" y1="40" x2="564" y2="88" class="solid"></line><line x1="612" y1="40" x2="612" y2="120" class="solid"></line><line x1="636" y1="72" x2="696" y2="72" class="solid"></line><line x1="684" y1="72" x2="684" y2="152" class="solid"></line><line x1="540" y1="88" x2="588" y2="88" class="solid"></line><line x1="540" y1="88" x2="540" y2="168" class="solid"></line><line x1="588" y1="88" x2="588" y2="168" class="solid"></line><line x1="612" y1="88" x2="636" y2="88" class="solid"></line><line x1="612" y1="104" x2="684" y2="104" class="solid"></line><line x1="588" y1="120" x2="612" y2="120" class="solid"></line><line x1="588" y1="152" x2="684" y2="152" class="solid"></line><line x1="540" y1="168" x2="588" y2="168" class="solid"></line></g><g><line x1="4" y1="24" x2="228" y2="24" class="solid"></line><line x1="4" y1="24" x2="4" y2="104" class="solid"></line><line x1="228" y1="24" x2="228" y2="104" class="solid"></line><line x1="228" y1="72" x2="280" y2="72" class="solid"></line><line x1="4" y1="104" x2="228" y2="104" class="solid"></line></g><g><line x1="292" y1="24" x2="460" y2="24" class="solid"></line><line x1="292" y1="24" x2="292" y2="104" class="solid"></line><line x1="460" y1="24" x2="460" y2="104" class="solid"></line><line x1="460" y1="72" x2="552" y2="72" class="solid"></line><line x1="292" y1="104" x2="460" y2="104" class="solid"></line></g></svg>