<svg xmlns="http://www.w3.org/2000/svg" width="344" height="288" class="svgbob"><style>.svgbob line, .svgbob path, .svgbob circle, .svgbob rect, .svgbob polygon {
    stroke: black;
    stroke-width: 2;
    stroke-opacity: 1;
    fill-opacity: 1;
    stroke-linecap: round;
    stroke-linejoin: miter;
}
.svgbob text {
    white-space: pre;
    fill: black;
    font-family: Iosevka Fixed, monospace;
    font-size: 14px;
}
.svgbob rect.backdrop {
    stroke: none;
    fill: white;
}
.svgbob .broken {
    stroke-dasharray: 8;
}
.svgbob .filled {
    fill: black;
}
.svgbob .bg_filled {
    fill: white;
    stroke-width: 1;
}
.svgbob .nofill {
    fill: white;
}
.svgbob .end_marked_arrow {
    marker-end: url(#arrow);
}
.svgbob .start_marked_arrow {
    marker-start: url(#arrow);
}
.svgbob .end_marked_diamond {
    marker-end: url(#diamond);
}
.svgbob .start_marked_diamond {
    marker-start: url(#diamond);
}
.svgbob .end_marked_circle {
    marker-end: url(#circle);
}
.svgbob .start_marked_circle {
    marker-start: url(#circle);
}
.svgbob .end_marked_open_circle {
    marker-end: url(#open_circle);
}
.svgbob .start_marked_open_circle {
    marker-start: url(#open_circle);
}
.svgbob .end_marked_big_open_circle {
    marker-end: url(#big_open_circle);
}
.svgbob .start_marked_big_open_circle {
    marker-start: url(#big_open_circle);
}<!--separator--></style><defs><marker id="arrow" viewBox="-2 -2 8 8" refX="4" refY="2" markerWidth="7" markerHeight="7" orient="auto-start-reverse"><polygon points="0,0 0,4 4,2 0,0"></polygon></marker><marker id="diamond" viewBox="-2 -2 8 8" refX="4" refY="2" markerWidth="7" markerHeight="7" orient="auto-start-reverse"><polygon points="0,2 2,0 4,2 2,4 0,2"></polygon></marker><marker id="circle" viewBox="0 0 8 8" refX="4" refY="4" markerWidth="7" markerHeight="7" orient="auto-start-reverse"><circle cx="4" cy="4" r="2" class="filled"></circle></marker><marker id="open_circle" viewBox="0 0 8 8" refX="4" refY="4" markerWidth="7" markerHeight="7" orient="auto-start-reverse"><circle cx="4" cy="4" r="2" class="bg_filled"></circle></marker><marker id="big_open_circle" viewBox="0 0 8 8" refX="4" refY="4" markerWidth="7" markerHeight="7" orient="auto-start-reverse"><circle cx="4" cy="4" r="3" class="bg_filled"></circle></marker></defs><rect class="backdrop" x="0" y="0" width="344" height="288"></rect><polygon points="192,20 200,24 192,28" class="filled"></polygon><text x="210" y="28" >ov</text><line x1="224" y1="32" x2="232" y2="32" class="solid"></line><text x="234" y="28" >valid</text><line x1="272" y1="32" x2="280" y2="32" class="solid"></line><text x="282" y="28" >i</text><line x1="160" y1="48" x2="152" y2="64" class="solid"></line><polygon points="192,52 200,56 192,60" class="filled"></polygon><text x="210" y="60" >ov</text><line x1="224" y1="64" x2="232" y2="64" class="solid"></line><text x="234" y="60" >len</text><line x1="256" y1="64" x2="264" y2="64" class="solid"></line><text x="266" y="60" >i</text><text x="154" y="76" >3</text><line x1="160" y1="80" x2="152" y2="96" class="solid"></line><polygon points="192,84 200,88 192,92" class="filled"></polygon><text x="210" y="92" >ov</text><line x1="224" y1="96" x2="232" y2="96" class="solid"></line><text x="234" y="92" >data</text><line x1="264" y1="96" x2="272" y2="96" class="solid"></line><text x="274" y="92" >i</text><text x="146" y="108" >48</text><polygon points="192,148 200,152 192,156" class="filled"></polygon><polygon points="192,180 200,184 192,188" class="filled"></polygon><line x1="160" y1="208" x2="152" y2="224" class="solid"></line><polygon points="192,212 200,216 192,220" class="filled"></polygon><text x="154" y="236" >4</text><line x1="160" y1="240" x2="152" y2="256" class="solid"></line><polygon points="192,244 200,248 192,252" class="filled"></polygon><text x="218" y="252" >data</text><line x1="248" y1="256" x2="256" y2="256" class="solid"></line><text x="258" y="252" >i</text><text x="146" y="268" >64</text><text x="10" y="124" >MoldUDP64</text><text x="290" y="124" >ITCH</text><text x="218" y="156" >valid</text><line x1="256" y1="160" x2="264" y2="160" class="solid"></line><text x="266" y="156" >i</text><text x="218" y="188" >start</text><line x1="256" y1="192" x2="264" y2="192" class="solid"></line><text x="266" y="188" >i</text><text x="218" y="220" >len</text><line x1="240" y1="224" x2="248" y2="224" class="solid"></line><text x="250" y="220" >i</text><g><line x1="0" y1="8" x2="100" y2="8" class="solid"></line><line x1="100" y1="8" x2="100" y2="264" class="solid"></line><line x1="100" y1="24" x2="192" y2="24" class="solid"></line><line x1="100" y1="56" x2="192" y2="56" class="solid"></line><line x1="100" y1="88" x2="192" y2="88" class="solid"></line><line x1="100" y1="152" x2="192" y2="152" class="solid"></line><line x1="100" y1="184" x2="192" y2="184" class="solid"></line><line x1="100" y1="216" x2="192" y2="216" class="solid"></line><line x1="100" y1="248" x2="192" y2="248" class="solid"></line><line x1="0" y1="264" x2="100" y2="264" class="solid"></line></g><g><line x1="204" y1="8" x2="336" y2="8" class="solid"></line><line x1="204" y1="8" x2="204" y2="264" class="solid"></line><line x1="204" y1="264" x2="336" y2="264" class="solid"></line></g></svg>
