<svg xmlns="http://www.w3.org/2000/svg" width="608" height="192" class="svgbob"><style>.svgbob line, .svgbob path, .svgbob circle, .svgbob rect, .svgbob polygon {
    stroke: black;
    stroke-width: 2;
    stroke-opacity: 1;
    fill-opacity: 1;
    stroke-linecap: round;
    stroke-linejoin: miter;
}
.svgbob text {
    white-space: pre;
    fill: black;
    font-family: Iosevka Fixed, monospace;
    font-size: 14px;
}
.svgbob rect.backdrop {
    stroke: none;
    fill: white;
}
.svgbob .broken {
    stroke-dasharray: 8;
}
.svgbob .filled {
    fill: black;
}
.svgbob .bg_filled {
    fill: white;
    stroke-width: 1;
}
.svgbob .nofill {
    fill: white;
}
.svgbob .end_marked_arrow {
    marker-end: url(#arrow);
}
.svgbob .start_marked_arrow {
    marker-start: url(#arrow);
}
.svgbob .end_marked_diamond {
    marker-end: url(#diamond);
}
.svgbob .start_marked_diamond {
    marker-start: url(#diamond);
}
.svgbob .end_marked_circle {
    marker-end: url(#circle);
}
.svgbob .start_marked_circle {
    marker-start: url(#circle);
}
.svgbob .end_marked_open_circle {
    marker-end: url(#open_circle);
}
.svgbob .start_marked_open_circle {
    marker-start: url(#open_circle);
}
.svgbob .end_marked_big_open_circle {
    marker-end: url(#big_open_circle);
}
.svgbob .start_marked_big_open_circle {
    marker-start: url(#big_open_circle);
}<!--separator--></style><defs><marker id="arrow" viewBox="-2 -2 8 8" refX="4" refY="2" markerWidth="7" markerHeight="7" orient="auto-start-reverse"><polygon points="0,0 0,4 4,2 0,0"></polygon></marker><marker id="diamond" viewBox="-2 -2 8 8" refX="4" refY="2" markerWidth="7" markerHeight="7" orient="auto-start-reverse"><polygon points="0,2 2,0 4,2 2,4 0,2"></polygon></marker><marker id="circle" viewBox="0 0 8 8" refX="4" refY="4" markerWidth="7" markerHeight="7" orient="auto-start-reverse"><circle cx="4" cy="4" r="2" class="filled"></circle></marker><marker id="open_circle" viewBox="0 0 8 8" refX="4" refY="4" markerWidth="7" markerHeight="7" orient="auto-start-reverse"><circle cx="4" cy="4" r="2" class="bg_filled"></circle></marker><marker id="big_open_circle" viewBox="0 0 8 8" refX="4" refY="4" markerWidth="7" markerHeight="7" orient="auto-start-reverse"><circle cx="4" cy="4" r="3" class="bg_filled"></circle></marker></defs><rect class="backdrop" x="0" y="0" width="608" height="192"></rect><text x="154" y="28" >itch</text><line x1="184" y1="32" x2="192" y2="32" class="solid"></line><text x="194" y="28" >&#x003c;message</text><line x1="256" y1="32" x2="264" y2="32" class="solid"></line><text x="266" y="28" >type></text><line x1="304" y1="32" x2="312" y2="32" class="solid"></line><text x="314" y="28" >v</text><line x1="320" y1="32" x2="328" y2="32" class="solid"></line><text x="330" y="28" >o</text><polygon points="472,20 480,24 472,28" class="filled"></polygon><text x="66" y="60" >itch</text><line x1="96" y1="64" x2="104" y2="64" class="solid"></line><text x="106" y="60" >&#x003c;message</text><line x1="168" y1="64" x2="176" y2="64" class="solid"></line><text x="178" y="60" >type></text><line x1="216" y1="64" x2="224" y2="64" class="solid"></line><text x="226" y="60" >&#x003c;field</text><line x1="272" y1="64" x2="280" y2="64" class="solid"></line><text x="282" y="60" >name></text><line x1="320" y1="64" x2="328" y2="64" class="solid"></line><text x="330" y="60" >o</text><line x1="416" y1="48" x2="408" y2="64" class="solid"></line><polygon points="472,52 480,56 472,60" class="filled"></polygon><text x="362" y="76" >&#x003c;field</text><line x1="408" y1="80" x2="416" y2="80" class="solid"></line><text x="418" y="76" >size></text><text x="106" y="124" >itch</text><line x1="136" y1="128" x2="144" y2="128" class="solid"></line><text x="146" y="124" >&#x003c;message</text><line x1="208" y1="128" x2="216" y2="128" class="solid"></line><text x="218" y="124" >type></text><line x1="256" y1="128" x2="264" y2="128" class="solid"></line><text x="266" y="124" >early</text><line x1="304" y1="128" x2="312" y2="128" class="solid"></line><text x="314" y="124" >v</text><line x1="320" y1="128" x2="328" y2="128" class="solid"></line><text x="330" y="124" >o</text><polygon points="472,116 480,120 472,124" class="filled"></polygon><text x="2" y="156" >itch</text><line x1="32" y1="160" x2="40" y2="160" class="solid"></line><text x="42" y="156" >&#x003c;message</text><line x1="104" y1="160" x2="112" y2="160" class="solid"></line><text x="114" y="156" >type></text><line x1="152" y1="160" x2="160" y2="160" class="solid"></line><text x="162" y="156" >&#x003c;field</text><line x1="208" y1="160" x2="216" y2="160" class="solid"></line><text x="218" y="156" >name></text><line x1="256" y1="160" x2="264" y2="160" class="solid"></line><text x="266" y="156" >early</text><line x1="304" y1="160" x2="312" y2="160" class="solid"></line><text x="314" y="156" >v</text><line x1="320" y1="160" x2="328" y2="160" class="solid"></line><text x="330" y="156" >o</text><polygon points="472,148 480,152 472,156" class="filled"></polygon><text x="10" y="92" >ITCH</text><text x="514" y="92" >Algorithm</text><g><line x1="0" y1="8" x2="340" y2="8" class="solid"></line><line x1="340" y1="8" x2="340" y2="168" class="solid"></line><line x1="340" y1="24" x2="472" y2="24" class="solid"></line><line x1="340" y1="56" x2="472" y2="56" class="solid"></line><line x1="340" y1="120" x2="472" y2="120" class="solid"></line><line x1="340" y1="152" x2="472" y2="152" class="solid"></line><line x1="0" y1="168" x2="340" y2="168" class="solid"></line></g><g><line x1="484" y1="8" x2="600" y2="8" class="solid"></line><line x1="484" y1="8" x2="484" y2="168" class="solid"></line><line x1="484" y1="168" x2="600" y2="168" class="solid"></line></g></svg>