<svg xmlns="http://www.w3.org/2000/svg" width="784" height="80" class="svgbob"><style>.svgbob line, .svgbob path, .svgbob circle, .svgbob rect, .svgbob polygon {
    stroke: black;
    stroke-width: 2;
    stroke-opacity: 1;
    fill-opacity: 1;
    stroke-linecap: round;
    stroke-linejoin: miter;
}
.svgbob text {
    white-space: pre;
    fill: black;
    font-family: Iosevka Fixed, monospace;
    font-size: 14px;
}
.svgbob rect.backdrop {
    stroke: none;
    fill: white;
}
.svgbob .broken {
    stroke-dasharray: 8;
}
.svgbob .filled {
    fill: black;
}
.svgbob .bg_filled {
    fill: white;
    stroke-width: 1;
}
.svgbob .nofill {
    fill: white;
}
.svgbob .end_marked_arrow {
    marker-end: url(#arrow);
}
.svgbob .start_marked_arrow {
    marker-start: url(#arrow);
}
.svgbob .end_marked_diamond {
    marker-end: url(#diamond);
}
.svgbob .start_marked_diamond {
    marker-start: url(#diamond);
}
.svgbob .end_marked_circle {
    marker-end: url(#circle);
}
.svgbob .start_marked_circle {
    marker-start: url(#circle);
}
.svgbob .end_marked_open_circle {
    marker-end: url(#open_circle);
}
.svgbob .start_marked_open_circle {
    marker-start: url(#open_circle);
}
.svgbob .end_marked_big_open_circle {
    marker-end: url(#big_open_circle);
}
.svgbob .start_marked_big_open_circle {
    marker-start: url(#big_open_circle);
}<!--separator--></style><defs><marker id="arrow" viewBox="-2 -2 8 8" refX="4" refY="2" markerWidth="7" markerHeight="7" orient="auto-start-reverse"><polygon points="0,0 0,4 4,2 0,0"></polygon></marker><marker id="diamond" viewBox="-2 -2 8 8" refX="4" refY="2" markerWidth="7" markerHeight="7" orient="auto-start-reverse"><polygon points="0,2 2,0 4,2 2,4 0,2"></polygon></marker><marker id="circle" viewBox="0 0 8 8" refX="4" refY="4" markerWidth="7" markerHeight="7" orient="auto-start-reverse"><circle cx="4" cy="4" r="2" class="filled"></circle></marker><marker id="open_circle" viewBox="0 0 8 8" refX="4" refY="4" markerWidth="7" markerHeight="7" orient="auto-start-reverse"><circle cx="4" cy="4" r="2" class="bg_filled"></circle></marker><marker id="big_open_circle" viewBox="0 0 8 8" refX="4" refY="4" markerWidth="7" markerHeight="7" orient="auto-start-reverse"><circle cx="4" cy="4" r="3" class="bg_filled"></circle></marker></defs><rect class="backdrop" x="0" y="0" width="784" height="80"></rect><text x="2" y="12" >0</text><text x="770" y="12" >8</text><text x="18" y="44" >Last</text><text x="58" y="44" >bytes</text><text x="106" y="44" >of</text><text x="130" y="44" >Snapshot</text><text x="202" y="44" >message</text><text x="266" y="44" >5B</text><text x="306" y="44" >Message</text><text x="370" y="44" >Lenght</text><text x="426" y="44" >2B</text><text x="466" y="44" >Fist</text><text x="506" y="44" >byte</text><text x="546" y="44" >of</text><text x="570" y="44" >the</text><text x="602" y="44" >Add</text><text x="634" y="44" >Order</text><text x="682" y="44" >message</text><text x="746" y="44" >1B</text><g><line x1="4" y1="24" x2="772" y2="24" class="solid"></line><line x1="4" y1="24" x2="4" y2="56" class="solid"></line><line x1="292" y1="24" x2="292" y2="56" class="solid"></line><line x1="452" y1="24" x2="452" y2="56" class="solid"></line><line x1="772" y1="24" x2="772" y2="56" class="solid"></line><line x1="4" y1="56" x2="772" y2="56" class="solid"></line></g></svg>