<svg xmlns="http://www.w3.org/2000/svg" width="576" height="416" class="svgbob"><style>.svgbob line, .svgbob path, .svgbob circle, .svgbob rect, .svgbob polygon {
    stroke: black;
    stroke-width: 2;
    stroke-opacity: 1;
    fill-opacity: 1;
    stroke-linecap: round;
    stroke-linejoin: miter;
}
.svgbob text {
    white-space: pre;
    fill: black;
    font-family: Iosevka Fixed, monospace;
    font-size: 14px;
}
.svgbob rect.backdrop {
    stroke: none;
    fill: white;
}
.svgbob .broken {
    stroke-dasharray: 8;
}
.svgbob .filled {
    fill: black;
}
.svgbob .bg_filled {
    fill: white;
    stroke-width: 1;
}
.svgbob .nofill {
    fill: white;
}
.svgbob .end_marked_arrow {
    marker-end: url(#arrow);
}
.svgbob .start_marked_arrow {
    marker-start: url(#arrow);
}
.svgbob .end_marked_diamond {
    marker-end: url(#diamond);
}
.svgbob .start_marked_diamond {
    marker-start: url(#diamond);
}
.svgbob .end_marked_circle {
    marker-end: url(#circle);
}
.svgbob .start_marked_circle {
    marker-start: url(#circle);
}
.svgbob .end_marked_open_circle {
    marker-end: url(#open_circle);
}
.svgbob .start_marked_open_circle {
    marker-start: url(#open_circle);
}
.svgbob .end_marked_big_open_circle {
    marker-end: url(#big_open_circle);
}
.svgbob .start_marked_big_open_circle {
    marker-start: url(#big_open_circle);
}<!--separator--></style><defs><marker id="arrow" viewBox="-2 -2 8 8" refX="4" refY="2" markerWidth="7" markerHeight="7" orient="auto-start-reverse"><polygon points="0,0 0,4 4,2 0,0"></polygon></marker><marker id="diamond" viewBox="-2 -2 8 8" refX="4" refY="2" markerWidth="7" markerHeight="7" orient="auto-start-reverse"><polygon points="0,2 2,0 4,2 2,4 0,2"></polygon></marker><marker id="circle" viewBox="0 0 8 8" refX="4" refY="4" markerWidth="7" markerHeight="7" orient="auto-start-reverse"><circle cx="4" cy="4" r="2" class="filled"></circle></marker><marker id="open_circle" viewBox="0 0 8 8" refX="4" refY="4" markerWidth="7" markerHeight="7" orient="auto-start-reverse"><circle cx="4" cy="4" r="2" class="bg_filled"></circle></marker><marker id="big_open_circle" viewBox="0 0 8 8" refX="4" refY="4" markerWidth="7" markerHeight="7" orient="auto-start-reverse"><circle cx="4" cy="4" r="3" class="bg_filled"></circle></marker></defs><rect class="backdrop" x="0" y="0" width="576" height="416"></rect><text x="90" y="12" >JLink</text><text x="98" y="60" >x</text><text x="122" y="60" >x</text><text x="98" y="348" >x</text><text x="122" y="348" >x</text><text x="42" y="60" >2</text><text x="178" y="60" >1</text><text x="42" y="92" >4</text><text x="98" y="92" >x</text><text x="122" y="92" >x</text><text x="178" y="92" >3</text><text x="434" y="92" >Board</text><text x="42" y="124" >6</text><text x="98" y="124" >x</text><text x="122" y="124" >x</text><text x="178" y="124" >5</text><line x1="192" y1="152" x2="408" y2="152" class="solid"></line><line x1="200" y1="184" x2="400" y2="184" class="solid"></line><text x="418" y="124" >x</text><text x="450" y="124" >1</text><text x="482" y="124" >Vref</text><text x="42" y="156" >8</text><text x="98" y="156" >x</text><text x="122" y="156" >x</text><text x="178" y="156" >7</text><text x="418" y="156" >x</text><text x="450" y="156" >2</text><text x="482" y="156" >TMS</text><text x="34" y="188" >10</text><text x="98" y="188" >x</text><text x="122" y="188" >x</text><text x="178" y="188" >9</text><text x="418" y="188" >x</text><text x="450" y="188" >3</text><text x="482" y="188" >TDK</text><path d="M 520,176 A 16,16 0,0,0 520,192" class="nofill"></path><text x="530" y="188" >TCK</text><path d="M 560,176 A 16,16 0,0,1 560,192" class="nofill"></path><text x="34" y="220" >12</text><text x="98" y="220" >x</text><text x="122" y="220" >x</text><text x="170" y="220" >11</text><text x="418" y="220" >x</text><text x="450" y="220" >4</text><text x="482" y="220" >TDO</text><text x="34" y="252" >14</text><text x="98" y="252" >x</text><text x="122" y="252" >x</text><text x="170" y="252" >13</text><text x="418" y="252" >x</text><text x="450" y="252" >5</text><text x="482" y="252" >TDI</text><text x="34" y="284" >16</text><text x="98" y="284" >x</text><text x="122" y="284" >x</text><text x="170" y="284" >15</text><text x="418" y="284" >x</text><text x="450" y="284" >6</text><text x="482" y="284" >GND</text><text x="34" y="316" >18</text><text x="98" y="316" >x</text><text x="122" y="316" >x</text><text x="170" y="316" >17</text><text x="34" y="348" >20</text><text x="170" y="348" >19</text><g><line x1="84" y1="40" x2="140" y2="40" class="solid"></line><line x1="84" y1="40" x2="84" y2="360" class="solid"></line><line x1="140" y1="40" x2="140" y2="184" class="solid"></line><line x1="140" y1="184" x2="148" y2="184" class="solid"></line><line x1="148" y1="184" x2="148" y2="216" class="solid"></line><line x1="140" y1="216" x2="148" y2="216" class="solid"></line><line x1="140" y1="216" x2="140" y2="360" class="solid"></line><line x1="84" y1="360" x2="140" y2="360" class="solid"></line></g><g><line x1="192" y1="56" x2="308" y2="56" class="solid"></line><line x1="308" y1="56" x2="308" y2="120" class="solid"></line><line x1="308" y1="120" x2="400" y2="120" class="solid"></line></g><g><line x1="192" y1="120" x2="244" y2="120" class="solid"></line><line x1="244" y1="120" x2="244" y2="144" class="solid"></line><path d="M 244,144 A 12,12 0,0,1 244,160" class="nofill"></path><line x1="244" y1="160" x2="244" y2="176" class="solid"></line><path d="M 244,176 A 12,12 0,0,1 244,192" class="nofill"></path><line x1="244" y1="192" x2="244" y2="240" class="solid"></line><path d="M 244,240 A 12,12 0,0,1 244,256" class="nofill"></path><line x1="244" y1="256" x2="244" y2="264" class="solid"></line><line x1="316" y1="248" x2="408" y2="248" class="solid"></line><line x1="316" y1="248" x2="316" y2="264" class="solid"></line><line x1="244" y1="264" x2="316" y2="264" class="solid"></line></g><g><line x1="284" y1="216" x2="408" y2="216" class="solid"></line><line x1="284" y1="216" x2="284" y2="248" class="solid"></line><line x1="200" y1="248" x2="284" y2="248" class="solid"></line></g><g><line x1="356" y1="280" x2="400" y2="280" class="solid"></line><line x1="356" y1="280" x2="356" y2="392" class="solid"></line><line x1="4" y1="344" x2="16" y2="344" class="solid"></line><line x1="4" y1="344" x2="4" y2="392" class="solid"></line><line x1="4" y1="392" x2="356" y2="392" class="solid"></line></g></svg>