<svg xmlns="http://www.w3.org/2000/svg" width="304" height="384" class="svgbob"><style>.svgbob line, .svgbob path, .svgbob circle, .svgbob rect, .svgbob polygon {
    stroke: black;
    stroke-width: 2;
    stroke-opacity: 1;
    fill-opacity: 1;
    stroke-linecap: round;
    stroke-linejoin: miter;
}
.svgbob text {
    white-space: pre;
    fill: black;
    font-family: Iosevka Fixed, monospace;
    font-size: 14px;
}
.svgbob rect.backdrop {
    stroke: none;
    fill: white;
}
.svgbob .broken {
    stroke-dasharray: 8;
}
.svgbob .filled {
    fill: black;
}
.svgbob .bg_filled {
    fill: white;
    stroke-width: 1;
}
.svgbob .nofill {
    fill: white;
}
.svgbob .end_marked_arrow {
    marker-end: url(#arrow);
}
.svgbob .start_marked_arrow {
    marker-start: url(#arrow);
}
.svgbob .end_marked_diamond {
    marker-end: url(#diamond);
}
.svgbob .start_marked_diamond {
    marker-start: url(#diamond);
}
.svgbob .end_marked_circle {
    marker-end: url(#circle);
}
.svgbob .start_marked_circle {
    marker-start: url(#circle);
}
.svgbob .end_marked_open_circle {
    marker-end: url(#open_circle);
}
.svgbob .start_marked_open_circle {
    marker-start: url(#open_circle);
}
.svgbob .end_marked_big_open_circle {
    marker-end: url(#big_open_circle);
}
.svgbob .start_marked_big_open_circle {
    marker-start: url(#big_open_circle);
}<!--separator--></style><defs><marker id="arrow" viewBox="-2 -2 8 8" refX="4" refY="2" markerWidth="7" markerHeight="7" orient="auto-start-reverse"><polygon points="0,0 0,4 4,2 0,0"></polygon></marker><marker id="diamond" viewBox="-2 -2 8 8" refX="4" refY="2" markerWidth="7" markerHeight="7" orient="auto-start-reverse"><polygon points="0,2 2,0 4,2 2,4 0,2"></polygon></marker><marker id="circle" viewBox="0 0 8 8" refX="4" refY="4" markerWidth="7" markerHeight="7" orient="auto-start-reverse"><circle cx="4" cy="4" r="2" class="filled"></circle></marker><marker id="open_circle" viewBox="0 0 8 8" refX="4" refY="4" markerWidth="7" markerHeight="7" orient="auto-start-reverse"><circle cx="4" cy="4" r="2" class="bg_filled"></circle></marker><marker id="big_open_circle" viewBox="0 0 8 8" refX="4" refY="4" markerWidth="7" markerHeight="7" orient="auto-start-reverse"><circle cx="4" cy="4" r="3" class="bg_filled"></circle></marker></defs><rect class="backdrop" x="0" y="0" width="304" height="384"></rect><text x="42" y="12" >JLink</text><text x="90" y="12" >JTAG</text><text x="130" y="12" >interface</text><text x="210" y="12" >pinout</text><text x="154" y="60" >x</text><text x="178" y="60" >x</text><text x="154" y="348" >x</text><text x="178" y="348" >x</text><text x="2" y="60" >Vref</text><text x="90" y="60" >1</text><text x="226" y="60" >2</text><text x="274" y="60" >NC</text><text x="2" y="92" >nTRST</text><text x="90" y="92" >3</text><text x="154" y="92" >x</text><text x="178" y="92" >x</text><text x="226" y="92" >4</text><text x="274" y="92" >GND</text><text x="2" y="124" >TDI</text><text x="90" y="124" >5</text><text x="154" y="124" >x</text><text x="178" y="124" >x</text><text x="226" y="124" >6</text><text x="274" y="124" >GND</text><text x="2" y="156" >TMS</text><text x="90" y="156" >7</text><text x="154" y="156" >x</text><text x="178" y="156" >x</text><text x="226" y="156" >8</text><text x="274" y="156" >GND</text><text x="2" y="188" >TCK</text><text x="90" y="188" >9</text><text x="154" y="188" >x</text><text x="178" y="188" >x</text><text x="218" y="188" >10</text><text x="274" y="188" >GND</text><text x="2" y="220" >RTCK</text><text x="82" y="220" >11</text><text x="154" y="220" >x</text><text x="178" y="220" >x</text><text x="218" y="220" >12</text><text x="274" y="220" >GND</text><text x="2" y="252" >TDO</text><text x="82" y="252" >13</text><text x="154" y="252" >x</text><text x="178" y="252" >x</text><text x="218" y="252" >14</text><text x="274" y="252" >GND</text><text x="2" y="284" >RESET</text><text x="82" y="284" >15</text><text x="154" y="284" >x</text><text x="178" y="284" >x</text><text x="218" y="284" >16</text><text x="274" y="284" >GND</text><text x="2" y="316" >DBGRQ</text><text x="82" y="316" >17</text><text x="154" y="316" >x</text><text x="178" y="316" >x</text><text x="218" y="316" >18</text><text x="274" y="316" >GND</text><text x="2" y="348" >5V</text><line x1="16" y1="344" x2="24" y2="344" class="solid"></line><text x="26" y="348" >Supply</text><text x="82" y="348" >19</text><text x="218" y="348" >20</text><text x="274" y="348" >GND</text><g><line x1="140" y1="40" x2="196" y2="40" class="solid"></line><line x1="140" y1="40" x2="140" y2="184" class="solid"></line><line x1="196" y1="40" x2="196" y2="360" class="solid"></line><line x1="132" y1="184" x2="140" y2="184" class="solid"></line><line x1="132" y1="184" x2="132" y2="216" class="solid"></line><line x1="132" y1="216" x2="140" y2="216" class="solid"></line><line x1="140" y1="216" x2="140" y2="360" class="solid"></line><line x1="140" y1="360" x2="196" y2="360" class="solid"></line></g></svg>