<svg xmlns="http://www.w3.org/2000/svg" width="168" height="448" class="svgbob"><style>.svgbob line, .svgbob path, .svgbob circle, .svgbob rect, .svgbob polygon {
    stroke: black;
    stroke-width: 2;
    stroke-opacity: 1;
    fill-opacity: 1;
    stroke-linecap: round;
    stroke-linejoin: miter;
}
.svgbob text {
    white-space: pre;
    fill: black;
    font-family: Iosevka Fixed, monospace;
    font-size: 14px;
}
.svgbob rect.backdrop {
    stroke: none;
    fill: white;
}
.svgbob .broken {
    stroke-dasharray: 8;
}
.svgbob .filled {
    fill: black;
}
.svgbob .bg_filled {
    fill: white;
    stroke-width: 1;
}
.svgbob .nofill {
    fill: white;
}
.svgbob .end_marked_arrow {
    marker-end: url(#arrow);
}
.svgbob .start_marked_arrow {
    marker-start: url(#arrow);
}
.svgbob .end_marked_diamond {
    marker-end: url(#diamond);
}
.svgbob .start_marked_diamond {
    marker-start: url(#diamond);
}
.svgbob .end_marked_circle {
    marker-end: url(#circle);
}
.svgbob .start_marked_circle {
    marker-start: url(#circle);
}
.svgbob .end_marked_open_circle {
    marker-end: url(#open_circle);
}
.svgbob .start_marked_open_circle {
    marker-start: url(#open_circle);
}
.svgbob .end_marked_big_open_circle {
    marker-end: url(#big_open_circle);
}
.svgbob .start_marked_big_open_circle {
    marker-start: url(#big_open_circle);
}<!--separator--></style><defs><marker id="arrow" viewBox="-2 -2 8 8" refX="4" refY="2" markerWidth="7" markerHeight="7" orient="auto-start-reverse"><polygon points="0,0 0,4 4,2 0,0"></polygon></marker><marker id="diamond" viewBox="-2 -2 8 8" refX="4" refY="2" markerWidth="7" markerHeight="7" orient="auto-start-reverse"><polygon points="0,2 2,0 4,2 2,4 0,2"></polygon></marker><marker id="circle" viewBox="0 0 8 8" refX="4" refY="4" markerWidth="7" markerHeight="7" orient="auto-start-reverse"><circle cx="4" cy="4" r="2" class="filled"></circle></marker><marker id="open_circle" viewBox="0 0 8 8" refX="4" refY="4" markerWidth="7" markerHeight="7" orient="auto-start-reverse"><circle cx="4" cy="4" r="2" class="bg_filled"></circle></marker><marker id="big_open_circle" viewBox="0 0 8 8" refX="4" refY="4" markerWidth="7" markerHeight="7" orient="auto-start-reverse"><circle cx="4" cy="4" r="3" class="bg_filled"></circle></marker></defs><rect class="backdrop" x="0" y="0" width="168" height="448"></rect><rect x="4" y="360" width="152" height="64" class="solid nofill" rx="0"></rect><text x="18" y="396" >Root</text><text x="58" y="396" >linux</text><text x="106" y="396" >shell</text><text x="2" y="12" >Connect</text><text x="66" y="12" >via</text><text x="98" y="12" >telnet</text><line x1="76" y1="32" x2="76" y2="52" class="solid"></line><polygon points="72,52 80,52 76,64" class="filled"></polygon><polygon points="72,196 80,196 76,208" class="filled"></polygon><polygon points="72,340 80,340 76,352" class="filled"></polygon><text x="42" y="108" >Basic</text><text x="90" y="108" >CLI</text><text x="98" y="172" >enable</text><text x="50" y="252" >Root</text><text x="90" y="252" >CLI</text><text x="98" y="316" >linuxsh</text><g><line x1="4" y1="72" x2="156" y2="72" class="solid"></line><line x1="4" y1="72" x2="4" y2="136" class="solid"></line><line x1="156" y1="72" x2="156" y2="136" class="solid"></line><line x1="4" y1="136" x2="156" y2="136" class="solid"></line><line x1="76" y1="136" x2="76" y2="196" class="solid"></line></g><g><line x1="4" y1="216" x2="156" y2="216" class="solid"></line><line x1="4" y1="216" x2="4" y2="280" class="solid"></line><line x1="156" y1="216" x2="156" y2="280" class="solid"></line><line x1="4" y1="280" x2="156" y2="280" class="solid"></line><line x1="76" y1="280" x2="76" y2="340" class="solid"></line></g></svg>