<svg xmlns="http://www.w3.org/2000/svg" width="712" height="496" class="svgbob"><style>.svgbob line, .svgbob path, .svgbob circle, .svgbob rect, .svgbob polygon {
    stroke: black;
    stroke-width: 2;
    stroke-opacity: 1;
    fill-opacity: 1;
    stroke-linecap: round;
    stroke-linejoin: miter;
}
.svgbob text {
    white-space: pre;
    fill: black;
    font-family: Iosevka Fixed, monospace;
    font-size: 14px;
}
.svgbob rect.backdrop {
    stroke: none;
    fill: white;
}
.svgbob .broken {
    stroke-dasharray: 8;
}
.svgbob .filled {
    fill: black;
}
.svgbob .bg_filled {
    fill: white;
    stroke-width: 1;
}
.svgbob .nofill {
    fill: white;
}
.svgbob .end_marked_arrow {
    marker-end: url(#arrow);
}
.svgbob .start_marked_arrow {
    marker-start: url(#arrow);
}
.svgbob .end_marked_diamond {
    marker-end: url(#diamond);
}
.svgbob .start_marked_diamond {
    marker-start: url(#diamond);
}
.svgbob .end_marked_circle {
    marker-end: url(#circle);
}
.svgbob .start_marked_circle {
    marker-start: url(#circle);
}
.svgbob .end_marked_open_circle {
    marker-end: url(#open_circle);
}
.svgbob .start_marked_open_circle {
    marker-start: url(#open_circle);
}
.svgbob .end_marked_big_open_circle {
    marker-end: url(#big_open_circle);
}
.svgbob .start_marked_big_open_circle {
    marker-start: url(#big_open_circle);
}<!--separator--></style><defs><marker id="arrow" viewBox="-2 -2 8 8" refX="4" refY="2" markerWidth="7" markerHeight="7" orient="auto-start-reverse"><polygon points="0,0 0,4 4,2 0,0"></polygon></marker><marker id="diamond" viewBox="-2 -2 8 8" refX="4" refY="2" markerWidth="7" markerHeight="7" orient="auto-start-reverse"><polygon points="0,2 2,0 4,2 2,4 0,2"></polygon></marker><marker id="circle" viewBox="0 0 8 8" refX="4" refY="4" markerWidth="7" markerHeight="7" orient="auto-start-reverse"><circle cx="4" cy="4" r="2" class="filled"></circle></marker><marker id="open_circle" viewBox="0 0 8 8" refX="4" refY="4" markerWidth="7" markerHeight="7" orient="auto-start-reverse"><circle cx="4" cy="4" r="2" class="bg_filled"></circle></marker><marker id="big_open_circle" viewBox="0 0 8 8" refX="4" refY="4" markerWidth="7" markerHeight="7" orient="auto-start-reverse"><circle cx="4" cy="4" r="3" class="bg_filled"></circle></marker></defs><rect class="backdrop" x="0" y="0" width="712" height="496"></rect><text x="506" y="124" >VDD</text><line x1="472" y1="136" x2="500" y2="136" class="solid end_marked_circle"></line><line x1="496" y1="136" x2="540" y2="136" class="solid end_marked_circle"></line><line x1="536" y1="136" x2="568" y2="136" class="solid"></line><text x="234" y="172" >Lattice</text><text x="298" y="172" >MachXO2</text><text x="258" y="204" >I2C</text><text x="290" y="204" >Master</text><line x1="76" y1="264" x2="260" y2="264" class="solid end_marked_circle"></line><line x1="256" y1="264" x2="284" y2="264" class="solid end_marked_circle"></line><line x1="280" y1="264" x2="500" y2="264" class="solid end_marked_circle"></line><line x1="132" y1="296" x2="348" y2="296" class="solid end_marked_circle"></line><text x="18" y="428" >Optical</text><text x="82" y="428" >Transiver</text><text x="162" y="428" >MCU</text><text x="226" y="428" >Optical</text><text x="290" y="428" >Transiver</text><text x="370" y="428" >MCU</text><text x="522" y="428" >Optical</text><text x="586" y="428" >Transiver</text><text x="666" y="428" >MCU</text><text x="74" y="460" >I2C</text><text x="106" y="460" >Slave</text><text x="282" y="460" >I2C</text><text x="314" y="460" >Slave</text><text x="578" y="460" >I2C</text><text x="610" y="460" >Slave</text><text x="258" y="44" >BCM</text><text x="290" y="44" >56846</text><text x="570" y="188" >pull</text><line x1="600" y1="184" x2="608" y2="184" class="solid"></line><text x="610" y="188" >up</text><text x="562" y="204" >resistors</text><text x="594" y="268" >SDA</text><text x="650" y="300" >SCL</text><text x="442" y="444" >.</text><text x="458" y="444" >.</text><text x="474" y="444" >.</text><g><line x1="236" y1="8" x2="348" y2="8" class="solid"></line><line x1="236" y1="8" x2="236" y2="72" class="solid"></line><line x1="348" y1="8" x2="348" y2="72" class="solid"></line><line x1="236" y1="72" x2="348" y2="72" class="solid"></line><line x1="292" y1="72" x2="292" y2="152" class="solid"></line><line x1="212" y1="152" x2="372" y2="152" class="solid"></line><line x1="212" y1="152" x2="212" y2="216" class="solid"></line><line x1="372" y1="152" x2="372" y2="216" class="solid"></line><line x1="212" y1="216" x2="372" y2="216" class="solid"></line><line x1="260" y1="216" x2="260" y2="260" class="solid"></line><line x1="316" y1="216" x2="316" y2="296" class="solid"></line></g><g><line x1="500" y1="140" x2="500" y2="168" class="solid"></line><line x1="492" y1="168" x2="508" y2="168" class="solid"></line><line x1="492" y1="168" x2="492" y2="216" class="solid"></line><line x1="508" y1="168" x2="508" y2="216" class="solid"></line><line x1="492" y1="216" x2="508" y2="216" class="solid"></line><line x1="500" y1="216" x2="500" y2="260" class="solid"></line></g><g><line x1="540" y1="140" x2="540" y2="168" class="solid"></line><line x1="532" y1="168" x2="548" y2="168" class="solid"></line><line x1="532" y1="168" x2="532" y2="216" class="solid"></line><line x1="548" y1="168" x2="548" y2="216" class="solid"></line><line x1="532" y1="216" x2="548" y2="216" class="solid"></line><line x1="540" y1="216" x2="540" y2="256" class="solid"></line><path d="M 540,256 A 12,12 0,0,1 540,272" class="nofill"></path><line x1="540" y1="272" x2="540" y2="296" class="solid"></line><line x1="344" y1="296" x2="636" y2="296" class="solid"></line><line x1="636" y1="296" x2="636" y2="408" class="solid"></line><line x1="496" y1="264" x2="580" y2="264" class="solid"></line><line x1="580" y1="264" x2="580" y2="288" class="solid"></line><path d="M 580,288 A 12,12 0,0,1 580,304" class="nofill"></path><line x1="580" y1="304" x2="580" y2="408" class="solid"></line><line x1="508" y1="408" x2="700" y2="408" class="solid"></line><line x1="508" y1="408" x2="508" y2="472" class="solid"></line><line x1="700" y1="408" x2="700" y2="472" class="solid"></line><line x1="508" y1="472" x2="700" y2="472" class="solid"></line></g><g><line x1="76" y1="264" x2="76" y2="408" class="solid"></line><line x1="132" y1="296" x2="132" y2="408" class="solid"></line><line x1="4" y1="408" x2="196" y2="408" class="solid"></line><line x1="4" y1="408" x2="4" y2="472" class="solid"></line><line x1="196" y1="408" x2="196" y2="472" class="solid"></line><line x1="4" y1="472" x2="196" y2="472" class="solid"></line></g><g><line x1="284" y1="268" x2="284" y2="288" class="solid"></line><path d="M 284,288 A 12,12 0,0,1 284,304" class="nofill"></path><line x1="284" y1="304" x2="284" y2="408" class="solid"></line><line x1="348" y1="300" x2="348" y2="408" class="solid"></line><line x1="212" y1="408" x2="404" y2="408" class="solid"></line><line x1="212" y1="408" x2="212" y2="472" class="solid"></line><line x1="404" y1="408" x2="404" y2="472" class="solid"></line><line x1="212" y1="472" x2="404" y2="472" class="solid"></line></g></svg>