<svg xmlns="http://www.w3.org/2000/svg" width="1256" height="80" class="svgbob"><style>.svgbob line, .svgbob path, .svgbob circle, .svgbob rect, .svgbob polygon {
    stroke: black;
    stroke-width: 2;
    stroke-opacity: 1;
    fill-opacity: 1;
    stroke-linecap: round;
    stroke-linejoin: miter;
}
.svgbob text {
    white-space: pre;
    fill: black;
    font-family: Iosevka Fixed, monospace;
    font-size: 14px;
}
.svgbob rect.backdrop {
    stroke: none;
    fill: white;
}
.svgbob .broken {
    stroke-dasharray: 8;
}
.svgbob .filled {
    fill: black;
}
.svgbob .bg_filled {
    fill: white;
    stroke-width: 1;
}
.svgbob .nofill {
    fill: white;
}
.svgbob .end_marked_arrow {
    marker-end: url(#arrow);
}
.svgbob .start_marked_arrow {
    marker-start: url(#arrow);
}
.svgbob .end_marked_diamond {
    marker-end: url(#diamond);
}
.svgbob .start_marked_diamond {
    marker-start: url(#diamond);
}
.svgbob .end_marked_circle {
    marker-end: url(#circle);
}
.svgbob .start_marked_circle {
    marker-start: url(#circle);
}
.svgbob .end_marked_open_circle {
    marker-end: url(#open_circle);
}
.svgbob .start_marked_open_circle {
    marker-start: url(#open_circle);
}
.svgbob .end_marked_big_open_circle {
    marker-end: url(#big_open_circle);
}
.svgbob .start_marked_big_open_circle {
    marker-start: url(#big_open_circle);
}<!--separator--></style><defs><marker id="arrow" viewBox="-2 -2 8 8" refX="4" refY="2" markerWidth="7" markerHeight="7" orient="auto-start-reverse"><polygon points="0,0 0,4 4,2 0,0"></polygon></marker><marker id="diamond" viewBox="-2 -2 8 8" refX="4" refY="2" markerWidth="7" markerHeight="7" orient="auto-start-reverse"><polygon points="0,2 2,0 4,2 2,4 0,2"></polygon></marker><marker id="circle" viewBox="0 0 8 8" refX="4" refY="4" markerWidth="7" markerHeight="7" orient="auto-start-reverse"><circle cx="4" cy="4" r="2" class="filled"></circle></marker><marker id="open_circle" viewBox="0 0 8 8" refX="4" refY="4" markerWidth="7" markerHeight="7" orient="auto-start-reverse"><circle cx="4" cy="4" r="2" class="bg_filled"></circle></marker><marker id="big_open_circle" viewBox="0 0 8 8" refX="4" refY="4" markerWidth="7" markerHeight="7" orient="auto-start-reverse"><circle cx="4" cy="4" r="3" class="bg_filled"></circle></marker></defs><rect class="backdrop" x="0" y="0" width="1256" height="80"></rect><text x="10" y="12" >0</text><text x="18" y="44" >Session</text><text x="82" y="44" >ID</text><text x="114" y="44" >10B</text><text x="178" y="44" >Sequence</text><text x="250" y="44" >Number</text><text x="314" y="44" >8B</text><text x="370" y="44" >Message</text><text x="434" y="44" >count</text><text x="490" y="44" >2B</text><text x="538" y="44" >Message</text><text x="602" y="44" >Length</text><text x="658" y="44" >2B</text><text x="698" y="44" >ITCH</text><text x="738" y="44" >Message</text><text x="802" y="44" >`var`B</text><text x="874" y="44" >...</text><text x="922" y="44" >Message</text><text x="986" y="44" >Length</text><text x="1042" y="44" >2B</text><text x="1082" y="44" >ITCH</text><text x="1122" y="44" >Message</text><text x="1186" y="44" >`var`B</text><g><line x1="4" y1="24" x2="1244" y2="24" class="solid"></line><line x1="4" y1="24" x2="4" y2="56" class="solid"></line><line x1="164" y1="24" x2="164" y2="56" class="solid"></line><line x1="356" y1="24" x2="356" y2="56" class="solid"></line><line x1="524" y1="24" x2="524" y2="56" class="solid"></line><line x1="684" y1="24" x2="684" y2="56" class="solid"></line><line x1="860" y1="24" x2="860" y2="56" class="solid"></line><line x1="908" y1="24" x2="908" y2="56" class="solid"></line><line x1="1068" y1="24" x2="1068" y2="56" class="solid"></line><line x1="1244" y1="24" x2="1244" y2="56" class="solid"></line><line x1="4" y1="56" x2="1244" y2="56" class="solid"></line></g></svg>