<svg xmlns="http://www.w3.org/2000/svg" width="1216" height="288" class="svgbob"><style>.svgbob line, .svgbob path, .svgbob circle, .svgbob rect, .svgbob polygon {
    stroke: black;
    stroke-width: 2;
    stroke-opacity: 1;
    fill-opacity: 1;
    stroke-linecap: round;
    stroke-linejoin: miter;
}
.svgbob text {
    white-space: pre;
    fill: black;
    font-family: Iosevka Fixed, monospace;
    font-size: 14px;
}
.svgbob rect.backdrop {
    stroke: none;
    fill: white;
}
.svgbob .broken {
    stroke-dasharray: 8;
}
.svgbob .filled {
    fill: black;
}
.svgbob .bg_filled {
    fill: white;
    stroke-width: 1;
}
.svgbob .nofill {
    fill: white;
}
.svgbob .end_marked_arrow {
    marker-end: url(#arrow);
}
.svgbob .start_marked_arrow {
    marker-start: url(#arrow);
}
.svgbob .end_marked_diamond {
    marker-end: url(#diamond);
}
.svgbob .start_marked_diamond {
    marker-start: url(#diamond);
}
.svgbob .end_marked_circle {
    marker-end: url(#circle);
}
.svgbob .start_marked_circle {
    marker-start: url(#circle);
}
.svgbob .end_marked_open_circle {
    marker-end: url(#open_circle);
}
.svgbob .start_marked_open_circle {
    marker-start: url(#open_circle);
}
.svgbob .end_marked_big_open_circle {
    marker-end: url(#big_open_circle);
}
.svgbob .start_marked_big_open_circle {
    marker-start: url(#big_open_circle);
}<!--separator--></style><defs><marker id="arrow" viewBox="-2 -2 8 8" refX="4" refY="2" markerWidth="7" markerHeight="7" orient="auto-start-reverse"><polygon points="0,0 0,4 4,2 0,0"></polygon></marker><marker id="diamond" viewBox="-2 -2 8 8" refX="4" refY="2" markerWidth="7" markerHeight="7" orient="auto-start-reverse"><polygon points="0,2 2,0 4,2 2,4 0,2"></polygon></marker><marker id="circle" viewBox="0 0 8 8" refX="4" refY="4" markerWidth="7" markerHeight="7" orient="auto-start-reverse"><circle cx="4" cy="4" r="2" class="filled"></circle></marker><marker id="open_circle" viewBox="0 0 8 8" refX="4" refY="4" markerWidth="7" markerHeight="7" orient="auto-start-reverse"><circle cx="4" cy="4" r="2" class="bg_filled"></circle></marker><marker id="big_open_circle" viewBox="0 0 8 8" refX="4" refY="4" markerWidth="7" markerHeight="7" orient="auto-start-reverse"><circle cx="4" cy="4" r="3" class="bg_filled"></circle></marker></defs><rect class="backdrop" x="0" y="0" width="1216" height="288"></rect><text x="522" y="12" >161,13MHz</text><text x="1074" y="12" >156,25MHz</text><line x1="988" y1="16" x2="988" y2="32" class="solid"></line><text x="290" y="108" >bit</text><text x="322" y="108" >slip</text><polygon points="952,100 960,104 952,108" class="filled"></polygon><polygon points="280,116 272,120 280,124" class="filled"></polygon><text x="906" y="124" >meta</text><polygon points="816,132 824,136 816,140" class="filled"></polygon><line x1="944" y1="128" x2="936" y2="144" class="solid"></line><polygon points="952,132 960,136 952,140" class="filled"></polygon><text x="82" y="156" >signal</text><text x="138" y="156" >ok</text><text x="274" y="156" >data</text><text x="314" y="156" >valid</text><text x="482" y="156" >data</text><text x="522" y="156" >valid</text><text x="762" y="156" >data</text><line x1="76" y1="168" x2="164" y2="168" class="solid end_marked_circle"></line><line x1="160" y1="168" x2="176" y2="168" class="solid"></line><polygon points="176,164 184,168 176,172" class="filled"></polygon><polygon points="352,164 360,168 352,172" class="filled"></polygon><line x1="468" y1="168" x2="628" y2="168" class="solid end_marked_circle"></line><line x1="624" y1="168" x2="640" y2="168" class="solid"></line><polygon points="640,164 648,168 640,172" class="filled"></polygon><line x1="808" y1="160" x2="800" y2="176" class="solid"></line><polygon points="816,164 824,168 816,172" class="filled"></polygon><text x="82" y="188" >block</text><text x="130" y="188" >data</text><text x="274" y="188" >block</text><text x="322" y="188" >data</text><text x="474" y="188" >block</text><text x="522" y="188" >data</text><text x="578" y="188" >data</text><text x="794" y="188" >64</text><text x="906" y="188" >data</text><line x1="128" y1="192" x2="120" y2="208" class="solid"></line><polygon points="176,196 184,200 176,204" class="filled"></polygon><line x1="320" y1="192" x2="312" y2="208" class="solid"></line><polygon points="352,196 360,200 352,204" class="filled"></polygon><line x1="468" y1="200" x2="572" y2="200" class="solid end_marked_circle"></line><line x1="520" y1="192" x2="512" y2="208" class="solid"></line><line x1="568" y1="200" x2="640" y2="200" class="solid"></line><line x1="632" y1="192" x2="624" y2="208" class="solid"></line><polygon points="640,196 648,200 640,204" class="filled"></polygon><polygon points="816,196 824,200 816,204" class="filled"></polygon><line x1="944" y1="192" x2="936" y2="208" class="solid"></line><polygon points="952,196 960,200 952,204" class="filled"></polygon><text x="114" y="220" >64</text><text x="306" y="220" >66</text><text x="506" y="220" >66</text><text x="618" y="220" >64</text><text x="930" y="220" >64</text><text x="578" y="236" >head</text><line x1="632" y1="240" x2="624" y2="256" class="solid"></line><text x="626" y="268" >2</text><line x1="988" y1="48" x2="988" y2="64" class="solid"></line><line x1="984" y1="88" x2="992" y2="88" class="solid"></line><text x="1018" y="124" >meta</text><line x1="1016" y1="136" x2="1064" y2="136" class="solid"></line><line x1="1056" y1="128" x2="1048" y2="144" class="solid"></line><polygon points="1064,132 1072,136 1064,140" class="filled"></polygon><text x="1018" y="188" >data</text><line x1="1016" y1="200" x2="1064" y2="200" class="solid"></line><line x1="1056" y1="192" x2="1048" y2="208" class="solid"></line><polygon points="1064,196 1072,200 1064,204" class="filled"></polygon><text x="1042" y="220" >64</text><line x1="1104" y1="104" x2="1112" y2="104" class="solid"></line><line x1="1120" y1="104" x2="1128" y2="104" class="solid"></line><text x="1154" y="124" >rxc</text><line x1="1152" y1="136" x2="1200" y2="136" class="solid"></line><line x1="1192" y1="128" x2="1184" y2="144" class="solid"></line><polygon points="1200,132 1208,136 1200,140" class="filled"></polygon><text x="1186" y="156" >8</text><text x="1154" y="188" >rxd</text><line x1="1152" y1="200" x2="1200" y2="200" class="solid"></line><line x1="1192" y1="192" x2="1184" y2="208" class="solid"></line><polygon points="1200,196 1208,200 1200,204" class="filled"></polygon><text x="1170" y="220" >64</text><text x="18" y="156" >SerDes</text><text x="202" y="156" >Gearbox</text><text x="378" y="156" >Block</text><text x="426" y="156" >sync</text><text x="666" y="156" >Descramble</text><text x="842" y="156" >Decode</text><text x="978" y="156" >CDC</text><text x="1098" y="156" >xgmii</text><text x="1098" y="172" >intf</text><line x1="1096" y1="216" x2="1104" y2="216" class="solid"></line><line x1="1112" y1="216" x2="1120" y2="216" class="solid"></line><line x1="984" y1="232" x2="992" y2="232" class="solid"></line><line x1="988" y1="256" x2="988" y2="272" class="solid"></line><g><line x1="164" y1="48" x2="852" y2="48" class="solid"></line><line x1="164" y1="48" x2="164" y2="164" class="solid"></line><line x1="852" y1="40" x2="872" y2="40" class="solid"></line><line x1="852" y1="40" x2="852" y2="72" class="solid"></line><path d="M 872,40 A 8,8 0,0,1 878,44" class="nofill"></path><line x1="878" y1="44" x2="880" y2="48" class="solid"></line><line x1="628" y1="64" x2="852" y2="64" class="solid"></line><path d="M 880,48 A 16,16 0,0,1 880,64" class="nofill"></path><line x1="628" y1="64" x2="628" y2="164" class="solid"></line><line x1="780" y1="64" x2="780" y2="136" class="solid"></line><line x1="852" y1="72" x2="872" y2="72" class="solid"></line><line x1="880" y1="64" x2="878" y2="68" class="solid"></line><path d="M 878,68 A 8,8 0,0,1 872,72" class="nofill"></path><line x1="780" y1="136" x2="816" y2="136" class="solid"></line></g><g><line x1="888" y1="56" x2="940" y2="56" class="solid"></line><line x1="940" y1="56" x2="940" y2="104" class="solid"></line><line x1="940" y1="104" x2="952" y2="104" class="solid"></line></g><g><path d="M 968,88 A 4,4 0,0,0 964,92" class="nofill"></path><line x1="964" y1="92" x2="964" y2="228" class="broken"></line><line x1="968" y1="88" x2="976" y2="88" class="solid"></line><path d="M 964,228 A 4,4 0,0,0 968,232" class="nofill"></path><line x1="968" y1="232" x2="976" y2="232" class="solid"></line></g><g><line x1="4" y1="104" x2="76" y2="104" class="solid"></line><line x1="4" y1="104" x2="4" y2="216" class="solid"></line><line x1="76" y1="104" x2="76" y2="216" class="solid"></line><line x1="76" y1="200" x2="176" y2="200" class="solid"></line><line x1="4" y1="216" x2="76" y2="216" class="solid"></line></g><g><line x1="188" y1="104" x2="268" y2="104" class="solid"></line><line x1="188" y1="104" x2="188" y2="216" class="solid"></line><line x1="268" y1="104" x2="268" y2="216" class="solid"></line><line x1="268" y1="168" x2="352" y2="168" class="solid"></line><line x1="268" y1="200" x2="352" y2="200" class="solid"></line><line x1="188" y1="216" x2="268" y2="216" class="solid"></line></g><g><line x1="364" y1="104" x2="468" y2="104" class="solid"></line><line x1="364" y1="104" x2="364" y2="216" class="solid"></line><line x1="468" y1="104" x2="468" y2="216" class="solid"></line><line x1="280" y1="120" x2="364" y2="120" class="solid"></line><line x1="364" y1="216" x2="468" y2="216" class="solid"></line></g><g><line x1="652" y1="104" x2="756" y2="104" class="solid"></line><line x1="652" y1="104" x2="652" y2="216" class="solid"></line><line x1="756" y1="104" x2="756" y2="216" class="solid"></line><line x1="756" y1="168" x2="816" y2="168" class="solid"></line><line x1="652" y1="216" x2="756" y2="216" class="solid"></line></g><g><line x1="828" y1="104" x2="900" y2="104" class="solid"></line><line x1="828" y1="104" x2="828" y2="216" class="solid"></line><line x1="900" y1="104" x2="900" y2="216" class="solid"></line><line x1="900" y1="136" x2="952" y2="136" class="solid"></line><line x1="900" y1="200" x2="952" y2="200" class="solid"></line><line x1="828" y1="216" x2="900" y2="216" class="solid"></line></g><g><line x1="572" y1="204" x2="572" y2="248" class="solid"></line><line x1="796" y1="200" x2="816" y2="200" class="solid"></line><line x1="796" y1="200" x2="796" y2="248" class="solid"></line><line x1="572" y1="248" x2="796" y2="248" class="solid"></line></g><g><line x1="1000" y1="88" x2="1008" y2="88" class="solid"></line><path d="M 1008,88 A 4,4 0,0,1 1012,92" class="nofill"></path><line x1="1012" y1="92" x2="1012" y2="228" class="broken"></line><line x1="1000" y1="232" x2="1008" y2="232" class="solid"></line><path d="M 1012,228 A 4,4 0,0,1 1008,232" class="nofill"></path></g><g><path d="M 1080,104 A 4,4 0,0,0 1076,108" class="nofill"></path><line x1="1076" y1="108" x2="1076" y2="212" class="broken"></line><line x1="1080" y1="104" x2="1096" y2="104" class="solid"></line><path d="M 1076,212 A 4,4 0,0,0 1080,216" class="nofill"></path><line x1="1080" y1="216" x2="1088" y2="216" class="solid"></line></g><g><line x1="1136" y1="104" x2="1144" y2="104" class="solid"></line><path d="M 1144,104 A 4,4 0,0,1 1148,108" class="nofill"></path><line x1="1148" y1="108" x2="1148" y2="208" class="broken"></line><line x1="1128" y1="216" x2="1140" y2="216" class="solid"></line><path d="M 1148,208 A 8,8 0,0,1 1140,216" class="nofill"></path></g></svg>