<svg xmlns="http://www.w3.org/2000/svg" width="984" height="240" class="svgbob"><style>.svgbob line, .svgbob path, .svgbob circle, .svgbob rect, .svgbob polygon {
    stroke: black;
    stroke-width: 2;
    stroke-opacity: 1;
    fill-opacity: 1;
    stroke-linecap: round;
    stroke-linejoin: miter;
}
.svgbob text {
    white-space: pre;
    fill: black;
    font-family: Iosevka Fixed, monospace;
    font-size: 14px;
}
.svgbob rect.backdrop {
    stroke: none;
    fill: white;
}
.svgbob .broken {
    stroke-dasharray: 8;
}
.svgbob .filled {
    fill: black;
}
.svgbob .bg_filled {
    fill: white;
    stroke-width: 1;
}
.svgbob .nofill {
    fill: white;
}
.svgbob .end_marked_arrow {
    marker-end: url(#arrow);
}
.svgbob .start_marked_arrow {
    marker-start: url(#arrow);
}
.svgbob .end_marked_diamond {
    marker-end: url(#diamond);
}
.svgbob .start_marked_diamond {
    marker-start: url(#diamond);
}
.svgbob .end_marked_circle {
    marker-end: url(#circle);
}
.svgbob .start_marked_circle {
    marker-start: url(#circle);
}
.svgbob .end_marked_open_circle {
    marker-end: url(#open_circle);
}
.svgbob .start_marked_open_circle {
    marker-start: url(#open_circle);
}
.svgbob .end_marked_big_open_circle {
    marker-end: url(#big_open_circle);
}
.svgbob .start_marked_big_open_circle {
    marker-start: url(#big_open_circle);
}<!--separator--></style><defs><marker id="arrow" viewBox="-2 -2 8 8" refX="4" refY="2" markerWidth="7" markerHeight="7" orient="auto-start-reverse"><polygon points="0,0 0,4 4,2 0,0"></polygon></marker><marker id="diamond" viewBox="-2 -2 8 8" refX="4" refY="2" markerWidth="7" markerHeight="7" orient="auto-start-reverse"><polygon points="0,2 2,0 4,2 2,4 0,2"></polygon></marker><marker id="circle" viewBox="0 0 8 8" refX="4" refY="4" markerWidth="7" markerHeight="7" orient="auto-start-reverse"><circle cx="4" cy="4" r="2" class="filled"></circle></marker><marker id="open_circle" viewBox="0 0 8 8" refX="4" refY="4" markerWidth="7" markerHeight="7" orient="auto-start-reverse"><circle cx="4" cy="4" r="2" class="bg_filled"></circle></marker><marker id="big_open_circle" viewBox="0 0 8 8" refX="4" refY="4" markerWidth="7" markerHeight="7" orient="auto-start-reverse"><circle cx="4" cy="4" r="3" class="bg_filled"></circle></marker></defs><rect class="backdrop" x="0" y="0" width="984" height="240"></rect><rect x="4" y="72" width="72" height="96" class="solid nofill" rx="0"></rect><text x="18" y="124" >SerDes</text><text x="298" y="12" >161,13MHz</text><text x="850" y="12" >156,25MHz</text><line x1="764" y1="16" x2="764" y2="32" class="solid"></line><line x1="760" y1="40" x2="768" y2="40" class="solid"></line><polygon points="728,52 736,56 728,60" class="filled"></polygon><text x="266" y="92" >ready</text><text x="698" y="92" >meta</text><text x="82" y="108" >block</text><text x="130" y="108" >data</text><line x1="252" y1="104" x2="348" y2="104" class="solid end_marked_circle"></line><line x1="344" y1="104" x2="416" y2="104" class="solid"></line><polygon points="416,100 424,104 416,108" class="filled"></polygon><text x="562" y="108" >data</text><polygon points="688,100 680,104 688,108" class="filled"></polygon><line x1="688" y1="104" x2="736" y2="104" class="solid"></line><line x1="720" y1="96" x2="712" y2="112" class="solid"></line><polygon points="88,116 80,120 88,124" class="filled"></polygon><line x1="128" y1="112" x2="120" y2="128" class="solid"></line><text x="266" y="124" >block</text><text x="314" y="124" >data</text><text x="386" y="124" >data</text><polygon points="528,116 520,120 528,124" class="filled"></polygon><line x1="552" y1="112" x2="544" y2="128" class="solid"></line><text x="114" y="140" >64</text><polygon points="264,132 256,136 264,140" class="filled"></polygon><line x1="264" y1="136" x2="348" y2="136" class="solid end_marked_circle"></line><line x1="312" y1="128" x2="304" y2="144" class="solid"></line><line x1="376" y1="128" x2="368" y2="144" class="solid"></line><text x="538" y="140" >64</text><text x="698" y="140" >data</text><text x="298" y="156" >66</text><text x="362" y="156" >64</text><polygon points="688,148 680,152 688,156" class="filled"></polygon><line x1="688" y1="152" x2="736" y2="152" class="solid"></line><line x1="720" y1="144" x2="712" y2="160" class="solid"></line><text x="706" y="172" >64</text><text x="386" y="188" >head</text><line x1="376" y1="192" x2="368" y2="208" class="solid"></line><text x="370" y="220" >2</text><text x="810" y="92" >meta</text><polygon points="800,100 792,104 800,108" class="filled"></polygon><line x1="800" y1="104" x2="848" y2="104" class="solid"></line><line x1="832" y1="96" x2="824" y2="112" class="solid"></line><text x="810" y="140" >data</text><polygon points="800,148 792,152 800,156" class="filled"></polygon><line x1="800" y1="152" x2="848" y2="152" class="solid"></line><line x1="832" y1="144" x2="824" y2="160" class="solid"></line><text x="818" y="172" >64</text><line x1="880" y1="56" x2="888" y2="56" class="solid"></line><line x1="896" y1="56" x2="904" y2="56" class="solid"></line><text x="954" y="92" >rxc</text><polygon points="936,100 928,104 936,108" class="filled"></polygon><line x1="936" y1="104" x2="976" y2="104" class="solid"></line><line x1="968" y1="96" x2="960" y2="112" class="solid"></line><text x="962" y="124" >8</text><text x="954" y="140" >rxd</text><polygon points="936,148 928,152 936,156" class="filled"></polygon><line x1="936" y1="152" x2="976" y2="152" class="solid"></line><line x1="968" y1="144" x2="960" y2="160" class="solid"></line><text x="954" y="172" >64</text><text x="754" y="108" >CDC</text><text x="874" y="108" >xgmii</text><text x="874" y="124" >intf</text><text x="186" y="124" >Gearbox</text><text x="442" y="124" >Scramble</text><text x="618" y="124" >Encode</text><line x1="872" y1="168" x2="880" y2="168" class="solid"></line><line x1="888" y1="168" x2="896" y2="168" class="solid"></line><line x1="760" y1="184" x2="768" y2="184" class="solid"></line><line x1="764" y1="208" x2="764" y2="224" class="solid"></line><g><line x1="348" y1="40" x2="716" y2="40" class="solid"></line><line x1="348" y1="40" x2="348" y2="100" class="solid"></line><line x1="716" y1="40" x2="716" y2="56" class="solid"></line><line x1="716" y1="56" x2="728" y2="56" class="solid"></line></g><g><path d="M 744,40 A 4,4 0,0,0 740,44" class="nofill"></path><line x1="740" y1="44" x2="740" y2="180" class="broken"></line><line x1="744" y1="40" x2="752" y2="40" class="solid"></line><path d="M 740,180 A 4,4 0,0,0 744,184" class="nofill"></path><line x1="744" y1="184" x2="752" y2="184" class="solid"></line></g><g><line x1="172" y1="72" x2="252" y2="72" class="solid"></line><line x1="172" y1="72" x2="172" y2="168" class="solid"></line><line x1="252" y1="72" x2="252" y2="168" class="solid"></line><line x1="88" y1="120" x2="172" y2="120" class="solid"></line><line x1="172" y1="168" x2="252" y2="168" class="solid"></line></g><g><line x1="428" y1="72" x2="516" y2="72" class="solid"></line><line x1="428" y1="72" x2="428" y2="168" class="solid"></line><line x1="516" y1="72" x2="516" y2="168" class="solid"></line><line x1="344" y1="136" x2="428" y2="136" class="solid"></line><line x1="428" y1="168" x2="516" y2="168" class="solid"></line></g><g><line x1="604" y1="72" x2="676" y2="72" class="solid"></line><line x1="604" y1="72" x2="604" y2="168" class="solid"></line><line x1="676" y1="72" x2="676" y2="168" class="solid"></line><line x1="528" y1="120" x2="604" y2="120" class="solid"></line><line x1="532" y1="152" x2="604" y2="152" class="solid"></line><line x1="532" y1="152" x2="532" y2="200" class="solid"></line><line x1="604" y1="168" x2="676" y2="168" class="solid"></line><line x1="348" y1="140" x2="348" y2="200" class="solid"></line><line x1="348" y1="200" x2="532" y2="200" class="solid"></line></g><g><line x1="776" y1="40" x2="784" y2="40" class="solid"></line><path d="M 784,40 A 4,4 0,0,1 788,44" class="nofill"></path><line x1="788" y1="44" x2="788" y2="180" class="broken"></line><line x1="776" y1="184" x2="784" y2="184" class="solid"></line><path d="M 788,180 A 4,4 0,0,1 784,184" class="nofill"></path></g><g><path d="M 856,56 A 4,4 0,0,0 852,60" class="nofill"></path><line x1="852" y1="60" x2="852" y2="164" class="broken"></line><line x1="856" y1="56" x2="872" y2="56" class="solid"></line><path d="M 852,164 A 4,4 0,0,0 856,168" class="nofill"></path><line x1="856" y1="168" x2="864" y2="168" class="solid"></line></g><g><line x1="912" y1="56" x2="920" y2="56" class="solid"></line><path d="M 920,56 A 4,4 0,0,1 924,60" class="nofill"></path><line x1="924" y1="60" x2="924" y2="160" class="broken"></line><line x1="904" y1="168" x2="916" y2="168" class="solid"></line><path d="M 924,160 A 8,8 0,0,1 916,168" class="nofill"></path></g></svg>