<svg xmlns="http://www.w3.org/2000/svg" width="1288" height="704" class="svgbob"><style>.svgbob line, .svgbob path, .svgbob circle, .svgbob rect, .svgbob polygon {
    stroke: black;
    stroke-width: 2;
    stroke-opacity: 1;
    fill-opacity: 1;
    stroke-linecap: round;
    stroke-linejoin: miter;
}
.svgbob text {
    white-space: pre;
    fill: black;
    font-family: Iosevka Fixed, monospace;
    font-size: 14px;
}
.svgbob rect.backdrop {
    stroke: none;
    fill: white;
}
.svgbob .broken {
    stroke-dasharray: 8;
}
.svgbob .filled {
    fill: black;
}
.svgbob .bg_filled {
    fill: white;
    stroke-width: 1;
}
.svgbob .nofill {
    fill: white;
}
.svgbob .end_marked_arrow {
    marker-end: url(#arrow);
}
.svgbob .start_marked_arrow {
    marker-start: url(#arrow);
}
.svgbob .end_marked_diamond {
    marker-end: url(#diamond);
}
.svgbob .start_marked_diamond {
    marker-start: url(#diamond);
}
.svgbob .end_marked_circle {
    marker-end: url(#circle);
}
.svgbob .start_marked_circle {
    marker-start: url(#circle);
}
.svgbob .end_marked_open_circle {
    marker-end: url(#open_circle);
}
.svgbob .start_marked_open_circle {
    marker-start: url(#open_circle);
}
.svgbob .end_marked_big_open_circle {
    marker-end: url(#big_open_circle);
}
.svgbob .start_marked_big_open_circle {
    marker-start: url(#big_open_circle);
}<!--separator--></style><defs><marker id="arrow" viewBox="-2 -2 8 8" refX="4" refY="2" markerWidth="7" markerHeight="7" orient="auto-start-reverse"><polygon points="0,0 0,4 4,2 0,0"></polygon></marker><marker id="diamond" viewBox="-2 -2 8 8" refX="4" refY="2" markerWidth="7" markerHeight="7" orient="auto-start-reverse"><polygon points="0,2 2,0 4,2 2,4 0,2"></polygon></marker><marker id="circle" viewBox="0 0 8 8" refX="4" refY="4" markerWidth="7" markerHeight="7" orient="auto-start-reverse"><circle cx="4" cy="4" r="2" class="filled"></circle></marker><marker id="open_circle" viewBox="0 0 8 8" refX="4" refY="4" markerWidth="7" markerHeight="7" orient="auto-start-reverse"><circle cx="4" cy="4" r="2" class="bg_filled"></circle></marker><marker id="big_open_circle" viewBox="0 0 8 8" refX="4" refY="4" markerWidth="7" markerHeight="7" orient="auto-start-reverse"><circle cx="4" cy="4" r="3" class="bg_filled"></circle></marker></defs><rect class="backdrop" x="0" y="0" width="1288" height="704"></rect><rect x="4" y="72" width="64" height="96" class="solid nofill" rx="0"></rect><text x="10" y="124" >SerDes</text><rect x="4" y="232" width="64" height="96" class="solid nofill" rx="0"></rect><text x="10" y="284" >SerDes</text><rect x="4" y="392" width="64" height="96" class="solid nofill" rx="0"></rect><text x="10" y="444" >SerDes</text><rect x="4" y="552" width="64" height="96" class="solid nofill" rx="0"></rect><text x="10" y="604" >SerDes</text><text x="554" y="12" >161,13MHz</text><text x="1154" y="12" >156,25MHz</text><line x1="1068" y1="16" x2="1068" y2="32" class="solid"></line><line x1="1064" y1="40" x2="1072" y2="40" class="solid"></line><polygon points="1032,52 1040,56 1032,60" class="filled"></polygon><text x="866" y="76" >head</text><text x="258" y="92" >ready</text><line x1="888" y1="80" x2="880" y2="96" class="solid"></line><text x="1002" y="92" >meta</text><text x="74" y="108" >block</text><text x="122" y="108" >data</text><line x1="244" y1="104" x2="580" y2="104" class="solid end_marked_circle"></line><line x1="576" y1="104" x2="764" y2="104" class="solid end_marked_circle"></line><text x="882" y="108" >2</text><polygon points="992,100 984,104 992,108" class="filled"></polygon><line x1="992" y1="104" x2="1040" y2="104" class="solid"></line><line x1="1024" y1="96" x2="1016" y2="112" class="solid"></line><polygon points="80,116 72,120 80,124" class="filled"></polygon><line x1="120" y1="112" x2="112" y2="128" class="solid"></line><text x="106" y="140" >64</text><text x="258" y="140" >block</text><text x="306" y="140" >data</text><text x="866" y="140" >data</text><text x="1002" y="140" >data</text><polygon points="256,148 248,152 256,156" class="filled"></polygon><line x1="304" y1="144" x2="296" y2="160" class="solid"></line><line x1="836" y1="152" x2="836" y2="312" class="solid end_marked_circle"></line><line x1="888" y1="144" x2="880" y2="160" class="solid"></line><polygon points="992,148 984,152 992,156" class="filled"></polygon><line x1="992" y1="152" x2="1040" y2="152" class="solid"></line><line x1="1024" y1="144" x2="1016" y2="160" class="solid"></line><text x="290" y="172" >66</text><line x1="852" y1="160" x2="852" y2="248" class="solid end_marked_circle"></line><text x="874" y="172" >64</text><text x="1010" y="172" >64</text><text x="866" y="236" >head</text><text x="258" y="252" >ready</text><line x1="888" y1="240" x2="880" y2="256" class="solid"></line><text x="1002" y="252" >meta</text><text x="74" y="268" >block</text><text x="122" y="268" >data</text><text x="306" y="268" >x</text><text x="882" y="268" >2</text><polygon points="992,260 984,264 992,268" class="filled"></polygon><line x1="992" y1="264" x2="1040" y2="264" class="solid"></line><line x1="1024" y1="256" x2="1016" y2="272" class="solid"></line><polygon points="80,276 72,280 80,284" class="filled"></polygon><line x1="120" y1="272" x2="112" y2="288" class="solid"></line><text x="106" y="300" >64</text><text x="258" y="300" >block</text><text x="306" y="300" >data</text><text x="866" y="300" >data</text><text x="1002" y="300" >data</text><polygon points="256,308 248,312 256,316" class="filled"></polygon><line x1="256" y1="312" x2="348" y2="312" class="solid end_marked_circle"></line><line x1="344" y1="312" x2="348" y2="312" class="solid"></line><line x1="304" y1="304" x2="296" y2="320" class="solid"></line><line x1="348" y1="316" x2="348" y2="392" class="solid end_marked_circle"></line><line x1="836" y1="316" x2="836" y2="388" class="solid"></line><line x1="888" y1="304" x2="880" y2="320" class="solid"></line><polygon points="992,308 984,312 992,316" class="filled"></polygon><line x1="992" y1="312" x2="1040" y2="312" class="solid"></line><line x1="1024" y1="304" x2="1016" y2="320" class="solid"></line><text x="290" y="332" >66</text><polygon points="568,324 560,328 568,332" class="filled"></polygon><polygon points="752,324 744,328 752,332" class="filled"></polygon><line x1="852" y1="320" x2="852" y2="408" class="solid end_marked_circle"></line><text x="874" y="332" >64</text><text x="1010" y="332" >64</text><text x="562" y="348" >lanes</text><text x="610" y="348" >data</text><polygon points="568,356 560,360 568,364" class="filled"></polygon><line x1="608" y1="352" x2="600" y2="368" class="solid"></line><text x="362" y="380" >blocks</text><text x="418" y="380" >data</text><text x="594" y="380" >256</text><text x="746" y="380" >lanes</text><text x="794" y="380" >data</text><line x1="348" y1="396" x2="348" y2="468" class="solid"></line><line x1="416" y1="384" x2="408" y2="400" class="solid"></line><polygon points="568,388 560,392 568,396" class="filled"></polygon><polygon points="752,388 744,392 752,396" class="filled"></polygon><line x1="752" y1="392" x2="836" y2="392" class="solid end_marked_circle"></line><line x1="832" y1="392" x2="836" y2="392" class="solid"></line><line x1="792" y1="384" x2="784" y2="400" class="solid"></line><line x1="836" y1="396" x2="836" y2="472" class="solid end_marked_circle"></line><text x="866" y="396" >head</text><text x="258" y="412" >ready</text><text x="402" y="412" >264</text><text x="778" y="412" >256</text><line x1="888" y1="400" x2="880" y2="416" class="solid"></line><text x="1002" y="412" >meta</text><text x="74" y="428" >block</text><text x="122" y="428" >data</text><text x="306" y="428" >x</text><text x="882" y="428" >2</text><polygon points="992,420 984,424 992,428" class="filled"></polygon><line x1="992" y1="424" x2="1040" y2="424" class="solid"></line><line x1="1024" y1="416" x2="1016" y2="432" class="solid"></line><polygon points="80,436 72,440 80,444" class="filled"></polygon><line x1="120" y1="432" x2="112" y2="448" class="solid"></line><text x="106" y="460" >64</text><text x="258" y="460" >block</text><text x="306" y="460" >data</text><text x="866" y="460" >data</text><text x="1002" y="460" >data</text><polygon points="256,468 248,472 256,476" class="filled"></polygon><line x1="256" y1="472" x2="348" y2="472" class="solid end_marked_circle"></line><line x1="344" y1="472" x2="348" y2="472" class="solid"></line><line x1="304" y1="464" x2="296" y2="480" class="solid"></line><line x1="888" y1="464" x2="880" y2="480" class="solid"></line><polygon points="992,468 984,472 992,476" class="filled"></polygon><line x1="992" y1="472" x2="1040" y2="472" class="solid"></line><line x1="1024" y1="464" x2="1016" y2="480" class="solid"></line><text x="290" y="492" >66</text><text x="874" y="492" >64</text><text x="1010" y="492" >64</text><text x="746" y="556" >lanes</text><text x="794" y="556" >head</text><text x="866" y="556" >head</text><text x="258" y="572" >ready</text><line x1="580" y1="568" x2="852" y2="568" class="solid end_marked_circle"></line><line x1="792" y1="560" x2="784" y2="576" class="solid"></line><line x1="888" y1="560" x2="880" y2="576" class="solid"></line><text x="1002" y="572" >meta</text><text x="74" y="588" >block</text><text x="122" y="588" >data</text><text x="306" y="588" >x</text><text x="786" y="588" >8</text><text x="882" y="588" >2</text><polygon points="992,580 984,584 992,588" class="filled"></polygon><line x1="992" y1="584" x2="1040" y2="584" class="solid"></line><line x1="1024" y1="576" x2="1016" y2="592" class="solid"></line><polygon points="80,596 72,600 80,604" class="filled"></polygon><line x1="120" y1="592" x2="112" y2="608" class="solid"></line><text x="106" y="620" >64</text><text x="258" y="620" >block</text><text x="306" y="620" >data</text><text x="866" y="620" >data</text><text x="1002" y="620" >data</text><polygon points="256,628 248,632 256,636" class="filled"></polygon><line x1="304" y1="624" x2="296" y2="640" class="solid"></line><line x1="888" y1="624" x2="880" y2="640" class="solid"></line><polygon points="992,628 984,632 992,636" class="filled"></polygon><line x1="992" y1="632" x2="1040" y2="632" class="solid"></line><line x1="1024" y1="624" x2="1016" y2="640" class="solid"></line><text x="290" y="652" >66</text><text x="874" y="652" >64</text><text x="1010" y="652" >64</text><text x="1114" y="92" >meta</text><polygon points="1104,100 1096,104 1104,108" class="filled"></polygon><line x1="1104" y1="104" x2="1152" y2="104" class="solid"></line><line x1="1136" y1="96" x2="1128" y2="112" class="solid"></line><text x="1114" y="140" >data</text><polygon points="1104,148 1096,152 1104,156" class="filled"></polygon><line x1="1104" y1="152" x2="1152" y2="152" class="solid"></line><line x1="1136" y1="144" x2="1128" y2="160" class="solid"></line><text x="1122" y="172" >64</text><text x="1114" y="252" >meta</text><polygon points="1104,260 1096,264 1104,268" class="filled"></polygon><line x1="1104" y1="264" x2="1152" y2="264" class="solid"></line><line x1="1136" y1="256" x2="1128" y2="272" class="solid"></line><text x="1114" y="300" >data</text><polygon points="1104,308 1096,312 1104,316" class="filled"></polygon><line x1="1104" y1="312" x2="1152" y2="312" class="solid"></line><line x1="1136" y1="304" x2="1128" y2="320" class="solid"></line><text x="1122" y="332" >64</text><text x="1114" y="412" >meta</text><polygon points="1104,420 1096,424 1104,428" class="filled"></polygon><line x1="1104" y1="424" x2="1152" y2="424" class="solid"></line><line x1="1136" y1="416" x2="1128" y2="432" class="solid"></line><text x="1114" y="460" >data</text><polygon points="1104,468 1096,472 1104,476" class="filled"></polygon><line x1="1104" y1="472" x2="1152" y2="472" class="solid"></line><line x1="1136" y1="464" x2="1128" y2="480" class="solid"></line><text x="1122" y="492" >64</text><text x="1114" y="572" >meta</text><polygon points="1104,580 1096,584 1104,588" class="filled"></polygon><line x1="1104" y1="584" x2="1152" y2="584" class="solid"></line><line x1="1136" y1="576" x2="1128" y2="592" class="solid"></line><text x="1114" y="620" >data</text><polygon points="1104,628 1096,632 1104,636" class="filled"></polygon><line x1="1104" y1="632" x2="1152" y2="632" class="solid"></line><line x1="1136" y1="624" x2="1128" y2="640" class="solid"></line><text x="1122" y="652" >64</text><line x1="1184" y1="56" x2="1192" y2="56" class="solid"></line><line x1="1200" y1="56" x2="1208" y2="56" class="solid"></line><text x="1258" y="92" >rxc</text><polygon points="1240,100 1232,104 1240,108" class="filled"></polygon><line x1="1240" y1="104" x2="1280" y2="104" class="solid"></line><line x1="1272" y1="96" x2="1264" y2="112" class="solid"></line><text x="1266" y="124" >8</text><text x="1258" y="140" >rxd</text><polygon points="1240,148 1232,152 1240,156" class="filled"></polygon><line x1="1240" y1="152" x2="1280" y2="152" class="solid"></line><line x1="1272" y1="144" x2="1264" y2="160" class="solid"></line><text x="1258" y="172" >64</text><text x="1058" y="108" >CDC</text><text x="1178" y="108" >xgmii</text><text x="1178" y="124" >intf</text><text x="178" y="124" >Gearbox</text><text x="922" y="124" >Encode</text><line x1="1176" y1="168" x2="1184" y2="168" class="solid"></line><line x1="1192" y1="168" x2="1200" y2="168" class="solid"></line><line x1="1184" y1="216" x2="1192" y2="216" class="solid"></line><line x1="1200" y1="216" x2="1208" y2="216" class="solid"></line><text x="1258" y="252" >rxc</text><polygon points="1240,260 1232,264 1240,268" class="filled"></polygon><line x1="1240" y1="264" x2="1280" y2="264" class="solid"></line><line x1="1272" y1="256" x2="1264" y2="272" class="solid"></line><text x="1266" y="284" >8</text><text x="1258" y="300" >rxd</text><polygon points="1240,308 1232,312 1240,316" class="filled"></polygon><line x1="1240" y1="312" x2="1280" y2="312" class="solid"></line><line x1="1272" y1="304" x2="1264" y2="320" class="solid"></line><text x="1258" y="332" >64</text><text x="1178" y="268" >xgmii</text><text x="1178" y="284" >intf</text><text x="178" y="284" >Gearbox</text><text x="922" y="284" >Encode</text><line x1="1176" y1="328" x2="1184" y2="328" class="solid"></line><line x1="1192" y1="328" x2="1200" y2="328" class="solid"></line><text x="498" y="348" >AM</text><text x="474" y="364" >insertion</text><text x="666" y="364" >Scramble</text><line x1="1184" y1="376" x2="1192" y2="376" class="solid"></line><line x1="1200" y1="376" x2="1208" y2="376" class="solid"></line><text x="1258" y="412" >rxc</text><polygon points="1240,420 1232,424 1240,428" class="filled"></polygon><line x1="1240" y1="424" x2="1280" y2="424" class="solid"></line><line x1="1272" y1="416" x2="1264" y2="432" class="solid"></line><text x="1266" y="444" >8</text><text x="1258" y="460" >rxd</text><polygon points="1240,468 1232,472 1240,476" class="filled"></polygon><line x1="1240" y1="472" x2="1280" y2="472" class="solid"></line><line x1="1272" y1="464" x2="1264" y2="480" class="solid"></line><text x="1258" y="492" >64</text><text x="1178" y="428" >xgmii</text><text x="1178" y="444" >intf</text><text x="178" y="444" >Gearbox</text><text x="922" y="444" >Encode</text><line x1="1176" y1="488" x2="1184" y2="488" class="solid"></line><line x1="1192" y1="488" x2="1200" y2="488" class="solid"></line><line x1="1184" y1="536" x2="1192" y2="536" class="solid"></line><line x1="1200" y1="536" x2="1208" y2="536" class="solid"></line><text x="1258" y="572" >rxc</text><polygon points="1240,580 1232,584 1240,588" class="filled"></polygon><line x1="1240" y1="584" x2="1280" y2="584" class="solid"></line><line x1="1272" y1="576" x2="1264" y2="592" class="solid"></line><text x="1266" y="604" >8</text><text x="1258" y="620" >rxd</text><polygon points="1240,628 1232,632 1240,636" class="filled"></polygon><line x1="1240" y1="632" x2="1280" y2="632" class="solid"></line><line x1="1272" y1="624" x2="1264" y2="640" class="solid"></line><text x="1258" y="652" >64</text><text x="1178" y="588" >xgmii</text><text x="1178" y="604" >intf</text><text x="178" y="604" >Gearbox</text><text x="922" y="604" >Encode</text><line x1="1176" y1="648" x2="1184" y2="648" class="solid"></line><line x1="1192" y1="648" x2="1200" y2="648" class="solid"></line><line x1="1064" y1="664" x2="1072" y2="664" class="solid"></line><line x1="1068" y1="672" x2="1068" y2="688" class="solid"></line><g><line x1="812" y1="40" x2="1020" y2="40" class="solid"></line><line x1="812" y1="40" x2="812" y2="104" class="solid"></line><line x1="1020" y1="40" x2="1020" y2="56" class="solid"></line><line x1="1020" y1="56" x2="1032" y2="56" class="solid"></line><line x1="760" y1="104" x2="812" y2="104" class="solid"></line></g><g><path d="M 1048,40 A 4,4 0,0,0 1044,44" class="nofill"></path><line x1="1044" y1="44" x2="1044" y2="660" class="broken"></line><line x1="1048" y1="40" x2="1056" y2="40" class="solid"></line><path d="M 1044,660 A 4,4 0,0,0 1048,664" class="nofill"></path><line x1="1048" y1="664" x2="1056" y2="664" class="solid"></line></g><g><line x1="164" y1="72" x2="244" y2="72" class="solid"></line><line x1="164" y1="72" x2="164" y2="168" class="solid"></line><line x1="244" y1="72" x2="244" y2="168" class="solid"></line><line x1="80" y1="120" x2="164" y2="120" class="solid"></line><line x1="164" y1="168" x2="244" y2="168" class="solid"></line></g><g><line x1="908" y1="72" x2="980" y2="72" class="solid"></line><line x1="908" y1="72" x2="908" y2="168" class="solid"></line><line x1="980" y1="72" x2="980" y2="168" class="solid"></line><line x1="852" y1="88" x2="908" y2="88" class="solid"></line><line x1="852" y1="88" x2="852" y2="144" class="solid"></line><line x1="836" y1="152" x2="908" y2="152" class="solid"></line><path d="M 852,144 A 12,12 0,0,1 852,160" class="nofill"></path><line x1="908" y1="168" x2="980" y2="168" class="solid"></line></g><g><line x1="580" y1="108" x2="580" y2="328" class="solid"></line><line x1="568" y1="328" x2="580" y2="328" class="solid"></line></g><g><line x1="764" y1="108" x2="764" y2="328" class="solid"></line><line x1="752" y1="328" x2="764" y2="328" class="solid"></line></g><g><line x1="256" y1="152" x2="348" y2="152" class="solid"></line><line x1="348" y1="152" x2="348" y2="308" class="solid"></line></g><g><line x1="164" y1="232" x2="244" y2="232" class="solid"></line><line x1="164" y1="232" x2="164" y2="328" class="solid"></line><line x1="244" y1="232" x2="244" y2="328" class="solid"></line><line x1="244" y1="264" x2="304" y2="264" class="solid"></line><line x1="80" y1="280" x2="164" y2="280" class="solid"></line><line x1="164" y1="328" x2="244" y2="328" class="solid"></line></g><g><line x1="908" y1="232" x2="980" y2="232" class="solid"></line><line x1="908" y1="232" x2="908" y2="328" class="solid"></line><line x1="980" y1="232" x2="980" y2="328" class="solid"></line><line x1="852" y1="248" x2="908" y2="248" class="solid"></line><line x1="836" y1="312" x2="908" y2="312" class="solid"></line><line x1="908" y1="328" x2="980" y2="328" class="solid"></line></g><g><line x1="852" y1="252" x2="852" y2="304" class="solid"></line><path d="M 852,304 A 12,12 0,0,1 852,320" class="nofill"></path></g><g><line x1="460" y1="312" x2="556" y2="312" class="solid"></line><line x1="460" y1="312" x2="460" y2="408" class="solid"></line><line x1="556" y1="312" x2="556" y2="408" class="solid"></line><line x1="348" y1="392" x2="460" y2="392" class="solid"></line><line x1="460" y1="408" x2="556" y2="408" class="solid"></line></g><g><line x1="652" y1="312" x2="740" y2="312" class="solid"></line><line x1="652" y1="312" x2="652" y2="408" class="solid"></line><line x1="740" y1="312" x2="740" y2="408" class="solid"></line><line x1="568" y1="360" x2="652" y2="360" class="solid"></line><line x1="652" y1="408" x2="740" y2="408" class="solid"></line></g><g><line x1="164" y1="392" x2="244" y2="392" class="solid"></line><line x1="164" y1="392" x2="164" y2="488" class="solid"></line><line x1="244" y1="392" x2="244" y2="488" class="solid"></line><line x1="244" y1="424" x2="304" y2="424" class="solid"></line><line x1="80" y1="440" x2="164" y2="440" class="solid"></line><line x1="164" y1="488" x2="244" y2="488" class="solid"></line></g><g><line x1="568" y1="392" x2="580" y2="392" class="solid"></line><line x1="580" y1="392" x2="580" y2="568" class="solid"></line></g><g><line x1="908" y1="392" x2="980" y2="392" class="solid"></line><line x1="908" y1="392" x2="908" y2="488" class="solid"></line><line x1="980" y1="392" x2="980" y2="488" class="solid"></line><line x1="852" y1="408" x2="908" y2="408" class="solid"></line><line x1="836" y1="472" x2="908" y2="472" class="solid"></line><line x1="908" y1="488" x2="980" y2="488" class="solid"></line></g><g><line x1="852" y1="412" x2="852" y2="464" class="solid"></line><path d="M 852,464 A 12,12 0,0,1 852,480" class="nofill"></path><line x1="852" y1="480" x2="852" y2="564" class="solid"></line></g><g><line x1="348" y1="476" x2="348" y2="632" class="solid"></line><line x1="256" y1="632" x2="348" y2="632" class="solid"></line></g><g><line x1="836" y1="476" x2="836" y2="560" class="solid"></line><path d="M 836,560 A 12,12 0,0,1 836,576" class="nofill"></path><line x1="836" y1="576" x2="836" y2="632" class="solid"></line><line x1="908" y1="552" x2="980" y2="552" class="solid"></line><line x1="908" y1="552" x2="908" y2="648" class="solid"></line><line x1="980" y1="552" x2="980" y2="648" class="solid"></line><line x1="848" y1="568" x2="908" y2="568" class="solid"></line><line x1="836" y1="632" x2="908" y2="632" class="solid"></line><line x1="908" y1="648" x2="980" y2="648" class="solid"></line></g><g><line x1="164" y1="552" x2="244" y2="552" class="solid"></line><line x1="164" y1="552" x2="164" y2="648" class="solid"></line><line x1="244" y1="552" x2="244" y2="648" class="solid"></line><line x1="244" y1="584" x2="304" y2="584" class="solid"></line><line x1="80" y1="600" x2="164" y2="600" class="solid"></line><line x1="164" y1="648" x2="244" y2="648" class="solid"></line></g><g><line x1="1080" y1="40" x2="1088" y2="40" class="solid"></line><path d="M 1088,40 A 4,4 0,0,1 1092,44" class="nofill"></path><line x1="1092" y1="44" x2="1092" y2="660" class="broken"></line><line x1="1080" y1="664" x2="1088" y2="664" class="solid"></line><path d="M 1092,660 A 4,4 0,0,1 1088,664" class="nofill"></path></g><g><path d="M 1160,56 A 4,4 0,0,0 1156,60" class="nofill"></path><line x1="1156" y1="60" x2="1156" y2="164" class="broken"></line><line x1="1160" y1="56" x2="1176" y2="56" class="solid"></line><path d="M 1156,164 A 4,4 0,0,0 1160,168" class="nofill"></path><line x1="1160" y1="168" x2="1168" y2="168" class="solid"></line></g><g><path d="M 1160,216 A 4,4 0,0,0 1156,220" class="nofill"></path><line x1="1156" y1="220" x2="1156" y2="324" class="broken"></line><line x1="1160" y1="216" x2="1176" y2="216" class="solid"></line><path d="M 1156,324 A 4,4 0,0,0 1160,328" class="nofill"></path><line x1="1160" y1="328" x2="1168" y2="328" class="solid"></line></g><g><path d="M 1160,376 A 4,4 0,0,0 1156,380" class="nofill"></path><line x1="1156" y1="380" x2="1156" y2="484" class="broken"></line><line x1="1160" y1="376" x2="1176" y2="376" class="solid"></line><path d="M 1156,484 A 4,4 0,0,0 1160,488" class="nofill"></path><line x1="1160" y1="488" x2="1168" y2="488" class="solid"></line></g><g><path d="M 1160,536 A 4,4 0,0,0 1156,540" class="nofill"></path><line x1="1156" y1="540" x2="1156" y2="644" class="broken"></line><line x1="1160" y1="536" x2="1176" y2="536" class="solid"></line><path d="M 1156,644 A 4,4 0,0,0 1160,648" class="nofill"></path><line x1="1160" y1="648" x2="1168" y2="648" class="solid"></line></g><g><line x1="1216" y1="56" x2="1224" y2="56" class="solid"></line><path d="M 1224,56 A 4,4 0,0,1 1228,60" class="nofill"></path><line x1="1228" y1="60" x2="1228" y2="160" class="broken"></line><line x1="1208" y1="168" x2="1220" y2="168" class="solid"></line><path d="M 1228,160 A 8,8 0,0,1 1220,168" class="nofill"></path></g><g><line x1="1216" y1="216" x2="1224" y2="216" class="solid"></line><path d="M 1224,216 A 4,4 0,0,1 1228,220" class="nofill"></path><line x1="1228" y1="220" x2="1228" y2="320" class="broken"></line><line x1="1208" y1="328" x2="1220" y2="328" class="solid"></line><path d="M 1228,320 A 8,8 0,0,1 1220,328" class="nofill"></path></g><g><line x1="1216" y1="376" x2="1224" y2="376" class="solid"></line><path d="M 1224,376 A 4,4 0,0,1 1228,380" class="nofill"></path><line x1="1228" y1="380" x2="1228" y2="480" class="broken"></line><line x1="1208" y1="488" x2="1220" y2="488" class="solid"></line><path d="M 1228,480 A 8,8 0,0,1 1220,488" class="nofill"></path></g><g><line x1="1216" y1="536" x2="1224" y2="536" class="solid"></line><path d="M 1224,536 A 4,4 0,0,1 1228,540" class="nofill"></path><line x1="1228" y1="540" x2="1228" y2="640" class="broken"></line><line x1="1208" y1="648" x2="1220" y2="648" class="solid"></line><path d="M 1228,640 A 8,8 0,0,1 1220,648" class="nofill"></path></g></svg>