<svg xmlns="http://www.w3.org/2000/svg" width="792" height="544" class="svgbob"><style>.svgbob line, .svgbob path, .svgbob circle, .svgbob rect, .svgbob polygon {
    stroke: black;
    stroke-width: 2;
    stroke-opacity: 1;
    fill-opacity: 1;
    stroke-linecap: round;
    stroke-linejoin: miter;
}
.svgbob text {
    white-space: pre;
    fill: black;
    font-family: Iosevka Fixed, monospace;
    font-size: 14px;
}
.svgbob rect.backdrop {
    stroke: none;
    fill: white;
}
.svgbob .broken {
    stroke-dasharray: 8;
}
.svgbob .filled {
    fill: black;
}
.svgbob .bg_filled {
    fill: white;
    stroke-width: 1;
}
.svgbob .nofill {
    fill: white;
}
.svgbob .end_marked_arrow {
    marker-end: url(#arrow);
}
.svgbob .start_marked_arrow {
    marker-start: url(#arrow);
}
.svgbob .end_marked_diamond {
    marker-end: url(#diamond);
}
.svgbob .start_marked_diamond {
    marker-start: url(#diamond);
}
.svgbob .end_marked_circle {
    marker-end: url(#circle);
}
.svgbob .start_marked_circle {
    marker-start: url(#circle);
}
.svgbob .end_marked_open_circle {
    marker-end: url(#open_circle);
}
.svgbob .start_marked_open_circle {
    marker-start: url(#open_circle);
}
.svgbob .end_marked_big_open_circle {
    marker-end: url(#big_open_circle);
}
.svgbob .start_marked_big_open_circle {
    marker-start: url(#big_open_circle);
}<!--separator--></style><defs><marker id="arrow" viewBox="-2 -2 8 8" refX="4" refY="2" markerWidth="7" markerHeight="7" orient="auto-start-reverse"><polygon points="0,0 0,4 4,2 0,0"></polygon></marker><marker id="diamond" viewBox="-2 -2 8 8" refX="4" refY="2" markerWidth="7" markerHeight="7" orient="auto-start-reverse"><polygon points="0,2 2,0 4,2 2,4 0,2"></polygon></marker><marker id="circle" viewBox="0 0 8 8" refX="4" refY="4" markerWidth="7" markerHeight="7" orient="auto-start-reverse"><circle cx="4" cy="4" r="2" class="filled"></circle></marker><marker id="open_circle" viewBox="0 0 8 8" refX="4" refY="4" markerWidth="7" markerHeight="7" orient="auto-start-reverse"><circle cx="4" cy="4" r="2" class="bg_filled"></circle></marker><marker id="big_open_circle" viewBox="0 0 8 8" refX="4" refY="4" markerWidth="7" markerHeight="7" orient="auto-start-reverse"><circle cx="4" cy="4" r="3" class="bg_filled"></circle></marker></defs><rect class="backdrop" x="0" y="0" width="792" height="544"></rect><text x="2" y="12" >extern</text><text x="58" y="12" >osc</text><text x="2" y="28" >644.52MHz</text><text x="162" y="44" >refclk</text><text x="146" y="60" >161.13MHz</text><text x="66" y="76" >></text><text x="82" y="76" >ioPLL</text><line x1="140" y1="72" x2="156" y2="72" class="solid end_marked_circle"></line><line x1="200" y1="88" x2="208" y2="88" class="solid"></line><line x1="216" y1="88" x2="224" y2="88" class="solid"></line><line x1="232" y1="88" x2="240" y2="88" class="solid"></line><line x1="248" y1="88" x2="256" y2="88" class="solid"></line><line x1="264" y1="88" x2="272" y2="88" class="solid"></line><line x1="280" y1="88" x2="288" y2="88" class="solid"></line><line x1="296" y1="88" x2="304" y2="88" class="solid"></line><line x1="312" y1="88" x2="320" y2="88" class="solid"></line><line x1="328" y1="88" x2="336" y2="88" class="solid"></line><line x1="344" y1="88" x2="352" y2="88" class="solid"></line><line x1="360" y1="88" x2="368" y2="88" class="solid"></line><line x1="376" y1="88" x2="384" y2="88" class="solid"></line><line x1="392" y1="88" x2="400" y2="88" class="solid"></line><line x1="408" y1="88" x2="416" y2="88" class="solid"></line><line x1="424" y1="88" x2="432" y2="88" class="solid"></line><line x1="440" y1="88" x2="448" y2="88" class="solid"></line><line x1="456" y1="88" x2="464" y2="88" class="solid"></line><line x1="472" y1="88" x2="480" y2="88" class="solid"></line><text x="546" y="92" >></text><text x="674" y="92" >logic</text><text x="722" y="92" >clk</text><text x="282" y="108" >RX</text><text x="306" y="108" >Transceiver</text><text x="554" y="108" >phase</text><text x="602" y="108" >aligned</text><text x="674" y="108" >161.13MHz</text><text x="250" y="124" >par</text><line x1="272" y1="128" x2="280" y2="128" class="solid"></line><text x="282" y="124" >clk</text><text x="314" y="124" >161.13MHz</text><text x="586" y="124" >fPLL</text><text x="202" y="140" >></text><line x1="244" y1="136" x2="340" y2="136" class="solid end_marked_circle"></line><text x="546" y="140" >></text><line x1="180" y1="144" x2="180" y2="176" class="broken"></line><line x1="500" y1="144" x2="500" y2="208" class="broken"></line><text x="362" y="188" >></text><text x="610" y="188" ><</text><line x1="620" y1="184" x2="684" y2="184" class="solid end_marked_circle"></line><line x1="680" y1="184" x2="684" y2="184" class="solid"></line><text x="250" y="204" >ser</text><line x1="272" y1="208" x2="280" y2="208" class="solid"></line><text x="282" y="204" >clk</text><text x="370" y="204" >Deser</text><text x="426" y="204" >par</text><line x1="448" y1="208" x2="456" y2="208" class="solid"></line><text x="458" y="204" >data</text><text x="362" y="220" >></text><polygon points="520,212 528,216 520,220" class="filled"></polygon><text x="570" y="220" >RX</text><text x="594" y="220" >PCS</text><polygon points="704,212 712,216 704,220" class="filled"></polygon><text x="250" y="236" >ser</text><line x1="272" y1="240" x2="280" y2="240" class="solid"></line><text x="282" y="236" >data</text><line x1="684" y1="224" x2="684" y2="248" class="solid end_marked_circle"></line><line x1="684" y1="252" x2="684" y2="356" class="solid"></line><text x="722" y="252" >></text><line x1="164" y1="268" x2="164" y2="264" class="solid end_marked_open_circle"></line><line x1="200" y1="280" x2="208" y2="280" class="solid"></line><line x1="216" y1="280" x2="224" y2="280" class="solid"></line><line x1="232" y1="280" x2="240" y2="280" class="solid"></line><line x1="248" y1="280" x2="256" y2="280" class="solid"></line><line x1="344" y1="280" x2="352" y2="280" class="solid"></line><line x1="360" y1="280" x2="368" y2="280" class="solid"></line><line x1="376" y1="280" x2="384" y2="280" class="solid"></line><line x1="392" y1="280" x2="400" y2="280" class="solid"></line><line x1="408" y1="280" x2="416" y2="280" class="solid"></line><line x1="424" y1="280" x2="432" y2="280" class="solid"></line><line x1="280" y1="328" x2="288" y2="328" class="solid"></line><line x1="296" y1="328" x2="304" y2="328" class="solid"></line><line x1="312" y1="328" x2="320" y2="328" class="solid"></line><line x1="328" y1="328" x2="336" y2="328" class="solid"></line><line x1="344" y1="328" x2="352" y2="328" class="solid"></line><line x1="360" y1="328" x2="368" y2="328" class="solid"></line><line x1="376" y1="328" x2="384" y2="328" class="solid"></line><line x1="392" y1="328" x2="400" y2="328" class="solid"></line><text x="282" y="348" >TX</text><text x="306" y="348" >Transceiver</text><line x1="372" y1="360" x2="684" y2="360" class="solid end_marked_circle"></line><line x1="680" y1="360" x2="684" y2="360" class="solid"></line><line x1="684" y1="364" x2="684" y2="388" class="solid"></line><line x1="500" y1="368" x2="500" y2="416" class="broken"></line><text x="610" y="396" ><</text><line x1="620" y1="392" x2="684" y2="392" class="solid end_marked_circle"></line><line x1="680" y1="392" x2="684" y2="392" class="solid"></line><text x="290" y="412" >par</text><line x1="312" y1="416" x2="320" y2="416" class="solid"></line><text x="322" y="412" >clk</text><line x1="156" y1="424" x2="164" y2="424" class="solid end_marked_open_circle"></line><text x="274" y="428" ><</text><text x="570" y="428" >TX</text><text x="594" y="428" >PCS</text><polygon points="672,420 664,424 672,428" class="filled"></polygon><text x="290" y="444" >par</text><line x1="312" y1="448" x2="320" y2="448" class="solid"></line><text x="322" y="444" >data</text><line x1="500" y1="432" x2="500" y2="480" class="broken"></line><polygon points="296,452 288,456 296,460" class="filled"></polygon><text x="290" y="476" >ser</text><line x1="312" y1="480" x2="320" y2="480" class="solid"></line><text x="322" y="476" >clk</text><text x="426" y="476" >CGB</text><text x="562" y="476" >transmiter</text><text x="274" y="492" ><</text><text x="450" y="492" ><</text><text x="586" y="492" >fPLL</text><text x="642" y="492" ><</text><line x1="216" y1="520" x2="224" y2="520" class="solid"></line><line x1="232" y1="520" x2="240" y2="520" class="solid"></line><line x1="248" y1="520" x2="256" y2="520" class="solid"></line><line x1="264" y1="520" x2="272" y2="520" class="solid"></line><line x1="280" y1="520" x2="288" y2="520" class="solid"></line><line x1="408" y1="520" x2="416" y2="520" class="solid"></line><line x1="424" y1="520" x2="432" y2="520" class="solid"></line><line x1="440" y1="520" x2="448" y2="520" class="solid"></line><line x1="456" y1="520" x2="464" y2="520" class="solid"></line><text x="210" y="172" >CDR</text><line x1="264" y1="280" x2="272" y2="280" class="solid"></line><line x1="280" y1="280" x2="288" y2="280" class="solid"></line><line x1="296" y1="280" x2="304" y2="280" class="solid"></line><line x1="312" y1="280" x2="320" y2="280" class="solid"></line><line x1="328" y1="280" x2="336" y2="280" class="solid"></line><line x1="440" y1="280" x2="448" y2="280" class="solid"></line><line x1="456" y1="280" x2="464" y2="280" class="solid"></line><line x1="472" y1="280" x2="480" y2="280" class="solid"></line><text x="34" y="300" >serdes</text><text x="90" y="300" >rx</text><text x="34" y="332" >serdes</text><text x="90" y="332" >tx</text><line x1="200" y1="328" x2="208" y2="328" class="solid"></line><line x1="216" y1="328" x2="224" y2="328" class="solid"></line><line x1="232" y1="328" x2="240" y2="328" class="solid"></line><line x1="248" y1="328" x2="256" y2="328" class="solid"></line><line x1="264" y1="328" x2="272" y2="328" class="solid"></line><line x1="408" y1="328" x2="416" y2="328" class="solid"></line><line x1="424" y1="328" x2="432" y2="328" class="solid"></line><line x1="440" y1="328" x2="448" y2="328" class="solid"></line><line x1="456" y1="328" x2="464" y2="328" class="solid"></line><line x1="472" y1="328" x2="480" y2="328" class="solid"></line><text x="242" y="444" >Ser</text><line x1="200" y1="520" x2="208" y2="520" class="solid"></line><line x1="296" y1="520" x2="304" y2="520" class="solid"></line><line x1="312" y1="520" x2="320" y2="520" class="solid"></line><line x1="328" y1="520" x2="336" y2="520" class="solid"></line><line x1="344" y1="520" x2="352" y2="520" class="solid"></line><line x1="360" y1="520" x2="368" y2="520" class="solid"></line><line x1="376" y1="520" x2="384" y2="520" class="solid"></line><line x1="392" y1="520" x2="400" y2="520" class="solid"></line><line x1="472" y1="520" x2="480" y2="520" class="solid"></line><g><line x1="36" y1="32" x2="36" y2="72" class="solid"></line><line x1="60" y1="56" x2="140" y2="56" class="solid"></line><line x1="60" y1="56" x2="60" y2="88" class="solid"></line><line x1="140" y1="56" x2="140" y2="88" class="solid"></line><line x1="36" y1="72" x2="60" y2="72" class="solid"></line><line x1="60" y1="88" x2="140" y2="88" class="solid"></line></g><g><line x1="152" y1="72" x2="524" y2="72" class="solid"></line><line x1="524" y1="72" x2="524" y2="88" class="solid"></line><line x1="540" y1="72" x2="668" y2="72" class="solid"></line><line x1="540" y1="72" x2="540" y2="152" class="solid"></line><line x1="668" y1="72" x2="668" y2="152" class="solid"></line><line x1="524" y1="88" x2="540" y2="88" class="solid"></line><line x1="668" y1="120" x2="684" y2="120" class="solid"></line><line x1="684" y1="120" x2="684" y2="180" class="solid"></line><line x1="336" y1="136" x2="540" y2="136" class="solid"></line><line x1="540" y1="152" x2="668" y2="152" class="solid"></line></g><g><line x1="156" y1="76" x2="156" y2="136" class="solid"></line><line x1="196" y1="120" x2="244" y2="120" class="solid"></line><line x1="196" y1="120" x2="196" y2="264" class="solid"></line><line x1="244" y1="120" x2="244" y2="264" class="solid"></line><line x1="156" y1="136" x2="196" y2="136" class="solid"></line><line x1="156" y1="184" x2="196" y2="184" class="solid"></line><line x1="156" y1="184" x2="156" y2="212" class="solid"></line><path d="M 156,212 A 16,16 0,0,1 154,220" class="nofill"></path><path d="M 156,212 A 16,16 0,0,0 158,220" class="nofill"></path><line x1="196" y1="264" x2="244" y2="264" class="solid"></line><line x1="340" y1="140" x2="340" y2="184" class="solid"></line><line x1="356" y1="168" x2="420" y2="168" class="solid"></line><line x1="356" y1="168" x2="356" y2="264" class="solid"></line><line x1="420" y1="168" x2="420" y2="264" class="solid"></line><line x1="340" y1="184" x2="356" y2="184" class="solid"></line><line x1="244" y1="216" x2="356" y2="216" class="solid"></line><line x1="420" y1="216" x2="520" y2="216" class="solid"></line><line x1="244" y1="248" x2="356" y2="248" class="solid"></line><line x1="356" y1="264" x2="420" y2="264" class="solid"></line></g><g><path d="M 184,88 A 4,4 0,0,0 180,92" class="nofill"></path><line x1="180" y1="92" x2="180" y2="128" class="broken"></line><line x1="184" y1="88" x2="192" y2="88" class="solid"></line></g><g><line x1="488" y1="88" x2="496" y2="88" class="solid"></line><path d="M 496,88 A 4,4 0,0,1 500,92" class="nofill"></path><line x1="500" y1="92" x2="500" y2="128" class="broken"></line></g><g><path d="M 596,168 A 8,8 0,0,0 588,176" class="nofill"></path><line x1="596" y1="168" x2="612" y2="168" class="solid"></line><path d="M 612,168 A 8,8 0,0,1 620,176" class="nofill"></path><line x1="620" y1="176" x2="620" y2="192" class="solid"></line><path d="M 620,192 A 8,8 0,0,0 628,200" class="nofill"></path><line x1="628" y1="200" x2="652" y2="200" class="solid"></line><path d="M 652,200 A 8,8 0,0,1 660,208" class="nofill"></path><line x1="660" y1="208" x2="660" y2="224" class="solid"></line><line x1="660" y1="216" x2="704" y2="216" class="solid"></line><path d="M 540,200 A 8,8 0,0,0 532,208" class="nofill"></path><line x1="540" y1="200" x2="564" y2="200" class="solid"></line><line x1="532" y1="208" x2="532" y2="224" class="solid"></line><path d="M 532,224 A 8,8 0,0,0 540,232" class="nofill"></path><line x1="540" y1="232" x2="652" y2="232" class="solid"></line><path d="M 660,224 A 8,8 0,0,1 652,232" class="nofill"></path></g><g><path d="M 572,184 A 8,8 0,0,0 564,192" class="nofill"></path><line x1="572" y1="184" x2="588" y2="184" class="solid"></line></g><g><line x1="684" y1="188" x2="684" y2="208" class="solid"></line><path d="M 684,208 A 12,12 0,0,0 684,224" class="nofill"></path></g><g><line x1="180" y1="192" x2="180" y2="276" class="broken"></line><path d="M 180,276 A 4,4 0,0,0 184,280" class="nofill"></path><line x1="184" y1="280" x2="192" y2="280" class="solid"></line></g><g><line x1="716" y1="200" x2="764" y2="200" class="solid"></line><line x1="716" y1="200" x2="716" y2="264" class="solid"></line><line x1="764" y1="200" x2="764" y2="264" class="solid"></line><line x1="764" y1="216" x2="780" y2="216" class="solid"></line><line x1="780" y1="216" x2="780" y2="424" class="solid"></line><line x1="684" y1="248" x2="716" y2="248" class="solid"></line><line x1="716" y1="264" x2="764" y2="264" class="solid"></line><line x1="672" y1="424" x2="780" y2="424" class="solid"></line></g><g><line x1="156" y1="216" x2="136" y2="256" class="solid"></line><line x1="156" y1="216" x2="176" y2="256" class="solid"></line><line x1="136" y1="256" x2="176" y2="256" class="solid"></line><line x1="148" y1="256" x2="148" y2="288" class="solid"></line><line x1="112" y1="288" x2="148" y2="288" class="solid"></line></g><g><line x1="500" y1="224" x2="500" y2="276" class="broken"></line><line x1="488" y1="280" x2="496" y2="280" class="solid"></line><path d="M 500,276 A 4,4 0,0,1 496,280" class="nofill"></path></g><g><line x1="164" y1="272" x2="164" y2="304" class="solid"></line><line x1="112" y1="304" x2="164" y2="304" class="solid"></line></g><g><line x1="112" y1="320" x2="164" y2="320" class="solid"></line><line x1="164" y1="320" x2="164" y2="420" class="solid"></line></g><g><line x1="112" y1="336" x2="148" y2="336" class="solid"></line><line x1="148" y1="336" x2="148" y2="432" class="solid"></line></g><g><path d="M 184,328 A 4,4 0,0,0 180,332" class="nofill"></path><line x1="180" y1="332" x2="180" y2="480" class="broken"></line><line x1="184" y1="328" x2="192" y2="328" class="solid"></line></g><g><line x1="488" y1="328" x2="496" y2="328" class="solid"></line><path d="M 496,328 A 4,4 0,0,1 500,332" class="nofill"></path><line x1="500" y1="332" x2="500" y2="352" class="solid"></line></g><g><line x1="372" y1="360" x2="372" y2="424" class="solid"></line><line x1="220" y1="408" x2="284" y2="408" class="solid"></line><line x1="220" y1="408" x2="220" y2="504" class="solid"></line><line x1="284" y1="408" x2="284" y2="504" class="solid"></line><line x1="284" y1="424" x2="372" y2="424" class="solid"></line><line x1="220" y1="504" x2="284" y2="504" class="solid"></line><line x1="412" y1="456" x2="460" y2="456" class="solid"></line><line x1="412" y1="456" x2="412" y2="504" class="solid"></line><line x1="460" y1="456" x2="460" y2="504" class="solid"></line><line x1="284" y1="488" x2="412" y2="488" class="solid"></line><line x1="412" y1="504" x2="460" y2="504" class="solid"></line><line x1="684" y1="396" x2="684" y2="416" class="solid"></line><path d="M 684,416 A 12,12 0,0,0 684,432" class="nofill"></path><line x1="684" y1="432" x2="684" y2="488" class="solid"></line><line x1="548" y1="456" x2="652" y2="456" class="solid"></line><line x1="548" y1="456" x2="548" y2="504" class="solid"></line><line x1="652" y1="456" x2="652" y2="504" class="solid"></line><line x1="460" y1="488" x2="548" y2="488" class="solid"></line><line x1="652" y1="488" x2="684" y2="488" class="solid"></line><line x1="548" y1="504" x2="652" y2="504" class="solid"></line><line x1="156" y1="424" x2="136" y2="464" class="solid"></line><line x1="160" y1="432" x2="176" y2="464" class="solid"></line><line x1="136" y1="464" x2="176" y2="464" class="solid"></line><line x1="156" y1="464" x2="156" y2="488" class="solid"></line><line x1="156" y1="488" x2="220" y2="488" class="solid"></line></g><g><path d="M 596,376 A 8,8 0,0,0 588,384" class="nofill"></path><line x1="596" y1="376" x2="612" y2="376" class="solid"></line><path d="M 612,376 A 8,8 0,0,1 620,384" class="nofill"></path><line x1="620" y1="384" x2="620" y2="400" class="solid"></line><path d="M 620,400 A 8,8 0,0,0 628,408" class="nofill"></path><line x1="628" y1="408" x2="652" y2="408" class="solid"></line><path d="M 652,408 A 8,8 0,0,1 660,416" class="nofill"></path><line x1="660" y1="416" x2="660" y2="432" class="solid"></line><path d="M 540,408 A 8,8 0,0,0 532,416" class="nofill"></path><line x1="540" y1="408" x2="564" y2="408" class="solid"></line><line x1="396" y1="424" x2="532" y2="424" class="solid"></line><line x1="396" y1="424" x2="396" y2="456" class="solid"></line><line x1="532" y1="416" x2="532" y2="432" class="solid"></line><path d="M 532,432 A 8,8 0,0,0 540,440" class="nofill"></path><line x1="540" y1="440" x2="652" y2="440" class="solid"></line><path d="M 660,432 A 8,8 0,0,1 652,440" class="nofill"></path><line x1="296" y1="456" x2="396" y2="456" class="solid"></line></g><g><path d="M 572,392 A 8,8 0,0,0 564,400" class="nofill"></path><line x1="572" y1="392" x2="588" y2="392" class="solid"></line></g><g><path d="M 160,424 A 8,8 0,0,0 154,428" class="nofill"></path><path d="M 160,424 A 3,3 0,0,0 158,428" class="nofill"></path></g><g><line x1="180" y1="496" x2="180" y2="516" class="solid"></line><path d="M 180,516 A 4,4 0,0,0 184,520" class="nofill"></path><line x1="184" y1="520" x2="192" y2="520" class="solid"></line></g><g><line x1="500" y1="496" x2="500" y2="516" class="solid"></line><line x1="488" y1="520" x2="496" y2="520" class="solid"></line><path d="M 500,516 A 4,4 0,0,1 496,520" class="nofill"></path></g></svg>