<svg xmlns="http://www.w3.org/2000/svg" width="856" height="496" class="svgbob"><style>.svgbob line, .svgbob path, .svgbob circle, .svgbob rect, .svgbob polygon {
    stroke: black;
    stroke-width: 2;
    stroke-opacity: 1;
    fill-opacity: 1;
    stroke-linecap: round;
    stroke-linejoin: miter;
}
.svgbob text {
    white-space: pre;
    fill: black;
    font-family: Iosevka Fixed, monospace;
    font-size: 14px;
}
.svgbob rect.backdrop {
    stroke: none;
    fill: white;
}
.svgbob .broken {
    stroke-dasharray: 8;
}
.svgbob .filled {
    fill: black;
}
.svgbob .bg_filled {
    fill: white;
    stroke-width: 1;
}
.svgbob .nofill {
    fill: white;
}
.svgbob .end_marked_arrow {
    marker-end: url(#arrow);
}
.svgbob .start_marked_arrow {
    marker-start: url(#arrow);
}
.svgbob .end_marked_diamond {
    marker-end: url(#diamond);
}
.svgbob .start_marked_diamond {
    marker-start: url(#diamond);
}
.svgbob .end_marked_circle {
    marker-end: url(#circle);
}
.svgbob .start_marked_circle {
    marker-start: url(#circle);
}
.svgbob .end_marked_open_circle {
    marker-end: url(#open_circle);
}
.svgbob .start_marked_open_circle {
    marker-start: url(#open_circle);
}
.svgbob .end_marked_big_open_circle {
    marker-end: url(#big_open_circle);
}
.svgbob .start_marked_big_open_circle {
    marker-start: url(#big_open_circle);
}<!--separator--></style><defs><marker id="arrow" viewBox="-2 -2 8 8" refX="4" refY="2" markerWidth="7" markerHeight="7" orient="auto-start-reverse"><polygon points="0,0 0,4 4,2 0,0"></polygon></marker><marker id="diamond" viewBox="-2 -2 8 8" refX="4" refY="2" markerWidth="7" markerHeight="7" orient="auto-start-reverse"><polygon points="0,2 2,0 4,2 2,4 0,2"></polygon></marker><marker id="circle" viewBox="0 0 8 8" refX="4" refY="4" markerWidth="7" markerHeight="7" orient="auto-start-reverse"><circle cx="4" cy="4" r="2" class="filled"></circle></marker><marker id="open_circle" viewBox="0 0 8 8" refX="4" refY="4" markerWidth="7" markerHeight="7" orient="auto-start-reverse"><circle cx="4" cy="4" r="2" class="bg_filled"></circle></marker><marker id="big_open_circle" viewBox="0 0 8 8" refX="4" refY="4" markerWidth="7" markerHeight="7" orient="auto-start-reverse"><circle cx="4" cy="4" r="3" class="bg_filled"></circle></marker></defs><rect class="backdrop" x="0" y="0" width="856" height="496"></rect><text x="130" y="12" >gx</text><line x1="144" y1="16" x2="152" y2="16" class="solid"></line><text x="154" y="12" >644M</text><line x1="184" y1="16" x2="192" y2="16" class="solid"></line><text x="194" y="12" >clk</text><line x1="132" y1="24" x2="156" y2="24" class="solid end_marked_circle"></line><line x1="160" y1="40" x2="168" y2="40" class="solid"></line><line x1="176" y1="40" x2="184" y2="40" class="solid"></line><line x1="192" y1="40" x2="200" y2="40" class="solid"></line><line x1="208" y1="40" x2="216" y2="40" class="solid"></line><line x1="224" y1="40" x2="232" y2="40" class="solid"></line><line x1="240" y1="40" x2="248" y2="40" class="solid"></line><line x1="256" y1="40" x2="264" y2="40" class="solid"></line><line x1="272" y1="40" x2="280" y2="40" class="solid"></line><line x1="288" y1="40" x2="296" y2="40" class="solid"></line><line x1="304" y1="40" x2="312" y2="40" class="solid"></line><line x1="320" y1="40" x2="328" y2="40" class="solid"></line><line x1="336" y1="40" x2="344" y2="40" class="solid"></line><line x1="352" y1="40" x2="360" y2="40" class="solid"></line><line x1="368" y1="40" x2="376" y2="40" class="solid"></line><line x1="384" y1="40" x2="392" y2="40" class="solid"></line><line x1="400" y1="40" x2="408" y2="40" class="solid"></line><line x1="416" y1="40" x2="424" y2="40" class="solid"></line><line x1="432" y1="40" x2="440" y2="40" class="solid"></line><line x1="448" y1="40" x2="456" y2="40" class="solid"></line><text x="258" y="60" >RX</text><text x="282" y="60" >Transceiver</text><text x="226" y="76" >par</text><line x1="248" y1="80" x2="256" y2="80" class="solid"></line><text x="258" y="76" >clk</text><text x="290" y="76" >161.13MHz</text><text x="178" y="92" >></text><line x1="220" y1="88" x2="316" y2="88" class="solid end_marked_circle"></line><line x1="140" y1="108" x2="140" y2="104" class="solid end_marked_open_circle"></line><line x1="156" y1="96" x2="156" y2="144" class="broken"></line><line x1="476" y1="96" x2="476" y2="160" class="broken"></line><text x="338" y="140" >></text><text x="586" y="140" >&#x003c;</text><line x1="596" y1="136" x2="660" y2="136" class="solid end_marked_circle"></line><text x="690" y="140" >></text><text x="226" y="156" >ser</text><line x1="248" y1="160" x2="256" y2="160" class="solid"></line><text x="258" y="156" >clk</text><text x="346" y="156" >Deser</text><text x="402" y="156" >par</text><line x1="424" y1="160" x2="432" y2="160" class="solid"></line><text x="434" y="156" >data</text><text x="338" y="172" >></text><polygon points="496,164 504,168 496,172" class="filled"></polygon><text x="546" y="172" >RX</text><text x="570" y="172" >PCS</text><polygon points="672,164 680,168 672,172" class="filled"></polygon><text x="226" y="188" >ser</text><line x1="248" y1="192" x2="256" y2="192" class="solid"></line><text x="258" y="188" >data</text><text x="690" y="204" >></text><line x1="140" y1="236" x2="140" y2="232" class="solid end_marked_open_circle"></line><line x1="176" y1="232" x2="184" y2="232" class="solid"></line><line x1="192" y1="232" x2="200" y2="232" class="solid"></line><line x1="208" y1="232" x2="216" y2="232" class="solid"></line><line x1="224" y1="232" x2="232" y2="232" class="solid"></line><line x1="320" y1="232" x2="328" y2="232" class="solid"></line><line x1="336" y1="232" x2="344" y2="232" class="solid"></line><line x1="352" y1="232" x2="360" y2="232" class="solid"></line><line x1="368" y1="232" x2="376" y2="232" class="solid"></line><line x1="384" y1="232" x2="392" y2="232" class="solid"></line><line x1="400" y1="232" x2="408" y2="232" class="solid"></line><text x="586" y="300" >&#x003c;</text><line x1="596" y1="296" x2="660" y2="296" class="solid end_marked_circle"></line><line x1="656" y1="296" x2="660" y2="296" class="solid"></line><text x="546" y="332" >TX</text><text x="570" y="332" >PCS</text><polygon points="648,324 640,328 648,332" class="filled"></polygon><text x="266" y="348" >par</text><line x1="288" y1="352" x2="296" y2="352" class="solid"></line><text x="298" y="348" >data</text><text x="474" y="348" >:</text><polygon points="272,356 264,360 272,364" class="filled"></polygon><line x1="132" y1="376" x2="140" y2="376" class="solid end_marked_open_circle"></line><line x1="476" y1="368" x2="476" y2="432" class="broken"></line><text x="498" y="380" >par</text><line x1="520" y1="384" x2="528" y2="384" class="solid"></line><text x="530" y="380" >clk</text><text x="562" y="380" >161.13MHz</text><text x="250" y="412" >&#x003c;</text><line x1="260" y1="408" x2="364" y2="408" class="solid end_marked_circle"></line><text x="266" y="428" >ser</text><line x1="288" y1="432" x2="296" y2="432" class="solid"></line><text x="298" y="428" >clk</text><text x="402" y="428" >CGB</text><text x="538" y="428" >transmiter</text><text x="250" y="444" >&#x003c;</text><text x="426" y="444" >&#x003c;</text><text x="554" y="444" >ATXPLL</text><text x="618" y="444" >&#x003c;</text><line x1="192" y1="472" x2="200" y2="472" class="solid"></line><line x1="208" y1="472" x2="216" y2="472" class="solid"></line><line x1="224" y1="472" x2="232" y2="472" class="solid"></line><line x1="240" y1="472" x2="248" y2="472" class="solid"></line><line x1="256" y1="472" x2="264" y2="472" class="solid"></line><line x1="384" y1="472" x2="392" y2="472" class="solid"></line><line x1="400" y1="472" x2="408" y2="472" class="solid"></line><line x1="416" y1="472" x2="424" y2="472" class="solid"></line><line x1="432" y1="472" x2="440" y2="472" class="solid"></line><text x="2" y="124" >extern</text><text x="58" y="124" >osc</text><text x="10" y="140" >644.52MHz</text><text x="186" y="124" >CDR</text><text x="698" y="172" >pcs</text><line x1="720" y1="176" x2="728" y2="176" class="solid"></line><text x="730" y="172" >loopback</text><line x1="240" y1="232" x2="248" y2="232" class="solid"></line><line x1="256" y1="232" x2="264" y2="232" class="solid"></line><line x1="272" y1="232" x2="280" y2="232" class="solid"></line><line x1="288" y1="232" x2="296" y2="232" class="solid"></line><line x1="304" y1="232" x2="312" y2="232" class="solid"></line><line x1="416" y1="232" x2="424" y2="232" class="solid"></line><line x1="432" y1="232" x2="440" y2="232" class="solid"></line><line x1="448" y1="232" x2="456" y2="232" class="solid"></line><text x="10" y="252" >serdes</text><text x="66" y="252" >rx</text><text x="10" y="284" >serdes</text><text x="66" y="284" >tx</text><line x1="176" y1="280" x2="184" y2="280" class="solid"></line><line x1="192" y1="280" x2="200" y2="280" class="solid"></line><line x1="208" y1="280" x2="216" y2="280" class="solid"></line><line x1="224" y1="280" x2="232" y2="280" class="solid"></line><line x1="240" y1="280" x2="248" y2="280" class="solid"></line><line x1="256" y1="280" x2="264" y2="280" class="solid"></line><line x1="272" y1="280" x2="280" y2="280" class="solid"></line><line x1="288" y1="280" x2="296" y2="280" class="solid"></line><line x1="304" y1="280" x2="312" y2="280" class="solid"></line><line x1="320" y1="280" x2="328" y2="280" class="solid"></line><line x1="336" y1="280" x2="344" y2="280" class="solid"></line><line x1="352" y1="280" x2="360" y2="280" class="solid"></line><line x1="368" y1="280" x2="376" y2="280" class="solid"></line><text x="258" y="300" >TX</text><text x="282" y="300" >Transceiver</text><line x1="384" y1="280" x2="392" y2="280" class="solid"></line><line x1="400" y1="280" x2="408" y2="280" class="solid"></line><line x1="416" y1="280" x2="424" y2="280" class="solid"></line><line x1="432" y1="280" x2="440" y2="280" class="solid"></line><line x1="448" y1="280" x2="456" y2="280" class="solid"></line><text x="218" y="396" >Ser</text><line x1="176" y1="472" x2="184" y2="472" class="solid"></line><line x1="272" y1="472" x2="280" y2="472" class="solid"></line><line x1="288" y1="472" x2="296" y2="472" class="solid"></line><line x1="304" y1="472" x2="312" y2="472" class="solid"></line><line x1="320" y1="472" x2="328" y2="472" class="solid"></line><line x1="336" y1="472" x2="344" y2="472" class="solid"></line><line x1="352" y1="472" x2="360" y2="472" class="solid"></line><line x1="368" y1="472" x2="376" y2="472" class="solid"></line><line x1="448" y1="472" x2="456" y2="472" class="solid"></line><g><line x1="132" y1="24" x2="132" y2="52" class="solid"></line><path d="M 132,52 A 16,16 0,0,1 130,60" class="nofill"></path><path d="M 132,52 A 16,16 0,0,0 134,60" class="nofill"></path></g><g><line x1="152" y1="24" x2="844" y2="24" class="solid"></line><line x1="844" y1="24" x2="844" y2="440" class="solid"></line><line x1="196" y1="344" x2="260" y2="344" class="solid"></line><line x1="196" y1="344" x2="196" y2="456" class="solid"></line><line x1="260" y1="344" x2="260" y2="456" class="solid"></line><line x1="196" y1="456" x2="260" y2="456" class="solid"></line><line x1="388" y1="392" x2="436" y2="392" class="solid"></line><line x1="388" y1="392" x2="388" y2="456" class="solid"></line><line x1="436" y1="392" x2="436" y2="456" class="solid"></line><line x1="360" y1="408" x2="388" y2="408" class="solid"></line><line x1="260" y1="440" x2="388" y2="440" class="solid"></line><line x1="388" y1="456" x2="436" y2="456" class="solid"></line><line x1="524" y1="408" x2="628" y2="408" class="solid"></line><line x1="524" y1="408" x2="524" y2="456" class="solid"></line><line x1="628" y1="408" x2="628" y2="456" class="solid"></line><line x1="436" y1="440" x2="524" y2="440" class="solid"></line><line x1="628" y1="440" x2="844" y2="440" class="solid"></line><line x1="524" y1="456" x2="628" y2="456" class="solid"></line><line x1="132" y1="376" x2="112" y2="416" class="solid"></line><line x1="136" y1="384" x2="152" y2="416" class="solid"></line><line x1="112" y1="416" x2="152" y2="416" class="solid"></line><line x1="132" y1="416" x2="132" y2="440" class="solid"></line><line x1="132" y1="440" x2="196" y2="440" class="solid"></line></g><g><line x1="156" y1="28" x2="156" y2="88" class="solid"></line><line x1="172" y1="72" x2="220" y2="72" class="solid"></line><line x1="172" y1="72" x2="172" y2="216" class="solid"></line><line x1="220" y1="72" x2="220" y2="216" class="solid"></line><line x1="156" y1="88" x2="172" y2="88" class="solid"></line><line x1="132" y1="152" x2="172" y2="152" class="solid"></line><line x1="132" y1="152" x2="132" y2="180" class="solid"></line><path d="M 132,180 A 16,16 0,0,1 130,188" class="nofill"></path><path d="M 132,180 A 16,16 0,0,0 134,188" class="nofill"></path><line x1="172" y1="216" x2="220" y2="216" class="solid"></line><line x1="316" y1="92" x2="316" y2="136" class="solid"></line><line x1="332" y1="120" x2="396" y2="120" class="solid"></line><line x1="332" y1="120" x2="332" y2="216" class="solid"></line><line x1="396" y1="120" x2="396" y2="216" class="solid"></line><line x1="316" y1="136" x2="332" y2="136" class="solid"></line><line x1="220" y1="168" x2="332" y2="168" class="solid"></line><line x1="396" y1="168" x2="496" y2="168" class="solid"></line><line x1="220" y1="200" x2="332" y2="200" class="solid"></line><line x1="332" y1="216" x2="396" y2="216" class="solid"></line></g><g><line x1="464" y1="40" x2="472" y2="40" class="solid"></line><path d="M 472,40 A 4,4 0,0,1 476,44" class="nofill"></path><line x1="476" y1="44" x2="476" y2="80" class="broken"></line></g><g><line x1="132" y1="56" x2="112" y2="96" class="solid"></line><line x1="132" y1="56" x2="152" y2="96" class="solid"></line><line x1="112" y1="96" x2="152" y2="96" class="solid"></line><line x1="124" y1="96" x2="124" y2="128" class="solid"></line><line x1="88" y1="128" x2="124" y2="128" class="solid"></line></g><g><line x1="312" y1="88" x2="660" y2="88" class="solid"></line><line x1="660" y1="88" x2="660" y2="132" class="solid"></line></g><g><line x1="140" y1="112" x2="140" y2="144" class="solid"></line><line x1="88" y1="144" x2="140" y2="144" class="solid"></line></g><g><path d="M 572,120 A 8,8 0,0,0 564,128" class="nofill"></path><line x1="572" y1="120" x2="588" y2="120" class="solid"></line><path d="M 588,120 A 8,8 0,0,1 596,128" class="nofill"></path><line x1="596" y1="128" x2="596" y2="144" class="solid"></line><path d="M 596,144 A 8,8 0,0,0 604,152" class="nofill"></path><line x1="604" y1="152" x2="628" y2="152" class="solid"></line><path d="M 628,152 A 8,8 0,0,1 636,160" class="nofill"></path><line x1="636" y1="160" x2="636" y2="176" class="solid"></line><line x1="636" y1="168" x2="672" y2="168" class="solid"></line><path d="M 516,152 A 8,8 0,0,0 508,160" class="nofill"></path><line x1="516" y1="152" x2="540" y2="152" class="solid"></line><line x1="508" y1="160" x2="508" y2="176" class="solid"></line><path d="M 508,176 A 8,8 0,0,0 516,184" class="nofill"></path><line x1="516" y1="184" x2="628" y2="184" class="solid"></line><path d="M 636,176 A 8,8 0,0,1 628,184" class="nofill"></path></g><g><line x1="684" y1="120" x2="804" y2="120" class="solid"></line><line x1="684" y1="120" x2="684" y2="216" class="solid"></line><line x1="804" y1="120" x2="804" y2="216" class="solid"></line><line x1="656" y1="136" x2="684" y2="136" class="solid"></line><line x1="804" y1="168" x2="828" y2="168" class="solid"></line><line x1="828" y1="168" x2="828" y2="328" class="solid"></line><line x1="660" y1="200" x2="684" y2="200" class="solid"></line><line x1="660" y1="200" x2="660" y2="292" class="solid"></line><line x1="684" y1="216" x2="804" y2="216" class="solid"></line><line x1="648" y1="328" x2="828" y2="328" class="solid"></line></g><g><path d="M 548,136 A 8,8 0,0,0 540,144" class="nofill"></path><line x1="548" y1="136" x2="564" y2="136" class="solid"></line></g><g><line x1="156" y1="160" x2="156" y2="228" class="broken"></line><line x1="132" y1="184" x2="112" y2="224" class="solid"></line><line x1="132" y1="184" x2="154" y2="228" class="solid"></line><line x1="112" y1="224" x2="152" y2="224" class="solid"></line><path d="M 154,228 A 8,8 0,0,0 160,232" class="nofill"></path><path d="M 156,228 A 4,4 0,0,0 160,232" class="nofill"></path><line x1="160" y1="232" x2="168" y2="232" class="solid"></line><line x1="88" y1="240" x2="124" y2="240" class="solid"></line><line x1="124" y1="224" x2="124" y2="240" class="solid"></line></g><g><line x1="476" y1="176" x2="476" y2="228" class="broken"></line><line x1="464" y1="232" x2="472" y2="232" class="solid"></line><path d="M 476,228 A 4,4 0,0,1 472,232" class="nofill"></path></g><g><line x1="88" y1="256" x2="140" y2="256" class="solid"></line><line x1="140" y1="240" x2="140" y2="256" class="solid"></line></g><g><line x1="88" y1="272" x2="140" y2="272" class="solid"></line><line x1="140" y1="272" x2="140" y2="372" class="solid"></line></g><g><line x1="88" y1="288" x2="124" y2="288" class="solid"></line><line x1="124" y1="288" x2="124" y2="384" class="solid"></line></g><g><path d="M 160,280 A 4,4 0,0,0 156,284" class="nofill"></path><line x1="156" y1="284" x2="156" y2="432" class="broken"></line><line x1="160" y1="280" x2="168" y2="280" class="solid"></line></g><g><line x1="464" y1="280" x2="472" y2="280" class="solid"></line><path d="M 472,280 A 4,4 0,0,1 476,284" class="nofill"></path><line x1="476" y1="284" x2="476" y2="320" class="broken"></line></g><g><path d="M 572,280 A 8,8 0,0,0 564,288" class="nofill"></path><line x1="572" y1="280" x2="588" y2="280" class="solid"></line><path d="M 588,280 A 8,8 0,0,1 596,288" class="nofill"></path><line x1="596" y1="288" x2="596" y2="304" class="solid"></line><path d="M 596,304 A 8,8 0,0,0 604,312" class="nofill"></path><line x1="604" y1="312" x2="628" y2="312" class="solid"></line><path d="M 628,312 A 8,8 0,0,1 636,320" class="nofill"></path><line x1="636" y1="320" x2="636" y2="336" class="solid"></line><path d="M 516,312 A 8,8 0,0,0 508,320" class="nofill"></path><line x1="516" y1="312" x2="540" y2="312" class="solid"></line><line x1="348" y1="328" x2="508" y2="328" class="solid"></line><line x1="348" y1="328" x2="348" y2="360" class="solid"></line><line x1="508" y1="320" x2="508" y2="336" class="solid"></line><path d="M 508,336 A 8,8 0,0,0 516,344" class="nofill"></path><line x1="516" y1="344" x2="628" y2="344" class="solid"></line><path d="M 636,336 A 8,8 0,0,1 628,344" class="nofill"></path><line x1="272" y1="360" x2="348" y2="360" class="solid"></line></g><g><path d="M 548,296 A 8,8 0,0,0 540,304" class="nofill"></path><line x1="548" y1="296" x2="564" y2="296" class="solid"></line></g><g><line x1="660" y1="300" x2="660" y2="320" class="solid"></line><path d="M 660,320 A 12,12 0,0,0 660,336" class="nofill"></path><line x1="660" y1="336" x2="660" y2="360" class="solid"></line><line x1="364" y1="360" x2="660" y2="360" class="solid"></line><line x1="364" y1="360" x2="364" y2="404" class="solid"></line></g><g><path d="M 136,376 A 8,8 0,0,0 130,380" class="nofill"></path><path d="M 136,376 A 3,3 0,0,0 134,380" class="nofill"></path></g><g><line x1="156" y1="448" x2="156" y2="468" class="solid"></line><path d="M 156,468 A 4,4 0,0,0 160,472" class="nofill"></path><line x1="160" y1="472" x2="168" y2="472" class="solid"></line></g><g><line x1="476" y1="448" x2="476" y2="468" class="solid"></line><line x1="464" y1="472" x2="472" y2="472" class="solid"></line><path d="M 476,468 A 4,4 0,0,1 472,472" class="nofill"></path></g></svg>