<svg xmlns="http://www.w3.org/2000/svg" width="936" height="528" class="svgbob"><style>.svgbob line, .svgbob path, .svgbob circle, .svgbob rect, .svgbob polygon {
    stroke: black;
    stroke-width: 2;
    stroke-opacity: 1;
    fill-opacity: 1;
    stroke-linecap: round;
    stroke-linejoin: miter;
}
.svgbob text {
    white-space: pre;
    fill: black;
    font-family: Iosevka Fixed, monospace;
    font-size: 14px;
}
.svgbob rect.backdrop {
    stroke: none;
    fill: white;
}
.svgbob .broken {
    stroke-dasharray: 8;
}
.svgbob .filled {
    fill: black;
}
.svgbob .bg_filled {
    fill: white;
    stroke-width: 1;
}
.svgbob .nofill {
    fill: white;
}
.svgbob .end_marked_arrow {
    marker-end: url(#arrow);
}
.svgbob .start_marked_arrow {
    marker-start: url(#arrow);
}
.svgbob .end_marked_diamond {
    marker-end: url(#diamond);
}
.svgbob .start_marked_diamond {
    marker-start: url(#diamond);
}
.svgbob .end_marked_circle {
    marker-end: url(#circle);
}
.svgbob .start_marked_circle {
    marker-start: url(#circle);
}
.svgbob .end_marked_open_circle {
    marker-end: url(#open_circle);
}
.svgbob .start_marked_open_circle {
    marker-start: url(#open_circle);
}
.svgbob .end_marked_big_open_circle {
    marker-end: url(#big_open_circle);
}
.svgbob .start_marked_big_open_circle {
    marker-start: url(#big_open_circle);
}<!--separator--></style><defs><marker id="arrow" viewBox="-2 -2 8 8" refX="4" refY="2" markerWidth="7" markerHeight="7" orient="auto-start-reverse"><polygon points="0,0 0,4 4,2 0,0"></polygon></marker><marker id="diamond" viewBox="-2 -2 8 8" refX="4" refY="2" markerWidth="7" markerHeight="7" orient="auto-start-reverse"><polygon points="0,2 2,0 4,2 2,4 0,2"></polygon></marker><marker id="circle" viewBox="0 0 8 8" refX="4" refY="4" markerWidth="7" markerHeight="7" orient="auto-start-reverse"><circle cx="4" cy="4" r="2" class="filled"></circle></marker><marker id="open_circle" viewBox="0 0 8 8" refX="4" refY="4" markerWidth="7" markerHeight="7" orient="auto-start-reverse"><circle cx="4" cy="4" r="2" class="bg_filled"></circle></marker><marker id="big_open_circle" viewBox="0 0 8 8" refX="4" refY="4" markerWidth="7" markerHeight="7" orient="auto-start-reverse"><circle cx="4" cy="4" r="3" class="bg_filled"></circle></marker></defs><rect class="backdrop" x="0" y="0" width="936" height="528"></rect><text x="418" y="12" >rx</text><line x1="432" y1="16" x2="440" y2="16" class="solid"></line><text x="442" y="12" >ready</text><text x="794" y="28" >nreset</text><text x="346" y="44" >Reset</text><line x1="560" y1="40" x2="548" y2="40" class="solid end_marked_open_circle"></line><line x1="560" y1="40" x2="568" y2="40" class="solid"></line><polygon points="568,36 576,40 568,44" class="filled"></polygon><text x="322" y="60" >Controller</text><text x="154" y="76" >></text><text x="234" y="76" >></text><text x="314" y="76" >></text><text x="418" y="76" >tx</text><line x1="432" y1="80" x2="440" y2="80" class="solid"></line><text x="442" y="76" >ready</text><text x="586" y="76" >></text><text x="666" y="76" >></text><text x="746" y="76" >></text><line x1="120" y1="120" x2="132" y2="120" class="solid end_marked_circle"></line><line x1="128" y1="120" x2="212" y2="120" class="solid end_marked_circle"></line><line x1="208" y1="120" x2="292" y2="120" class="solid end_marked_circle"></line><text x="26" y="156" >parallel</text><text x="98" y="156" >clk</text><text x="42" y="172" >161.13MHz</text><line x1="120" y1="168" x2="380" y2="168" class="solid end_marked_circle"></line><line x1="376" y1="168" x2="644" y2="168" class="solid end_marked_circle"></line><line x1="308" y1="200" x2="556" y2="200" class="solid end_marked_circle"></line><line x1="308" y1="200" x2="308" y2="244" class="solid"></line><line x1="548" y1="220" x2="548" y2="240" class="solid"></line><line x1="560" y1="216" x2="568" y2="216" class="solid"></line><line x1="576" y1="216" x2="584" y2="216" class="solid"></line><line x1="592" y1="216" x2="600" y2="216" class="solid"></line><line x1="608" y1="216" x2="616" y2="216" class="solid"></line><line x1="624" y1="216" x2="632" y2="216" class="solid"></line><line x1="640" y1="216" x2="648" y2="216" class="solid"></line><line x1="656" y1="216" x2="664" y2="216" class="solid"></line><line x1="672" y1="216" x2="680" y2="216" class="solid"></line><line x1="688" y1="216" x2="696" y2="216" class="solid"></line><line x1="704" y1="216" x2="712" y2="216" class="solid"></line><line x1="720" y1="216" x2="728" y2="216" class="solid"></line><line x1="736" y1="216" x2="744" y2="216" class="solid"></line><line x1="752" y1="216" x2="760" y2="216" class="solid"></line><line x1="768" y1="216" x2="776" y2="216" class="solid"></line><line x1="784" y1="216" x2="792" y2="216" class="solid"></line><line x1="800" y1="216" x2="808" y2="216" class="solid"></line><line x1="816" y1="216" x2="824" y2="216" class="solid"></line><line x1="832" y1="216" x2="840" y2="216" class="solid"></line><line x1="848" y1="216" x2="856" y2="216" class="solid"></line><line x1="864" y1="216" x2="872" y2="216" class="solid"></line><text x="794" y="236" >tx</text><line x1="808" y1="240" x2="816" y2="240" class="solid"></line><text x="818" y="236" >nreset</text><polygon points="304,244 312,244 308,256" class="filled"></polygon><line x1="548" y1="256" x2="548" y2="272" class="solid"></line><text x="306" y="284" >R</text><text x="322" y="284" >&#x003c;</text><text x="586" y="284" >></text><text x="666" y="284" >></text><text x="746" y="284" >></text><text x="282" y="316" >RX</text><text x="306" y="316" >PCS</text><line x1="632" y1="328" x2="640" y2="328" class="solid"></line><line x1="648" y1="328" x2="656" y2="328" class="solid"></line><line x1="712" y1="328" x2="720" y2="328" class="solid"></line><line x1="728" y1="328" x2="736" y2="328" class="solid"></line><line x1="792" y1="328" x2="800" y2="328" class="solid"></line><line x1="808" y1="328" x2="816" y2="328" class="solid"></line><text x="26" y="348" >parallel</text><text x="98" y="348" >clk</text><text x="42" y="364" >161.13MHz</text><line x1="120" y1="360" x2="380" y2="360" class="solid end_marked_circle"></line><line x1="376" y1="360" x2="644" y2="360" class="solid end_marked_circle"></line><polygon points="304,420 312,420 308,432" class="filled"></polygon><text x="306" y="460" >R</text><text x="322" y="460" >&#x003c;</text><text x="282" y="492" >TX</text><text x="306" y="492" >PCS</text><text x="58" y="44" >FPGArst</text><text x="58" y="108" >OSC</text><line x1="80" y1="112" x2="88" y2="112" class="solid"></line><text x="90" y="108" >50m</text><text x="74" y="124" >50Mhz</text><text x="2" y="156" >RX</text><line x1="880" y1="216" x2="888" y2="216" class="solid"></line><line x1="896" y1="216" x2="904" y2="216" class="solid"></line><line x1="924" y1="256" x2="924" y2="272" class="solid"></line><text x="826" y="316" >pcs</text><line x1="848" y1="320" x2="856" y2="320" class="solid"></line><text x="858" y="316" >loopback</text><line x1="824" y1="328" x2="832" y2="328" class="solid"></line><line x1="840" y1="328" x2="848" y2="328" class="solid"></line><line x1="856" y1="328" x2="864" y2="328" class="solid"></line><line x1="872" y1="328" x2="880" y2="328" class="solid"></line><line x1="888" y1="328" x2="896" y2="328" class="solid"></line><line x1="568" y1="328" x2="576" y2="328" class="solid"></line><line x1="584" y1="328" x2="592" y2="328" class="solid"></line><line x1="600" y1="328" x2="608" y2="328" class="solid"></line><line x1="616" y1="328" x2="624" y2="328" class="solid"></line><line x1="664" y1="328" x2="672" y2="328" class="solid"></line><line x1="680" y1="328" x2="688" y2="328" class="solid"></line><line x1="696" y1="328" x2="704" y2="328" class="solid"></line><line x1="744" y1="328" x2="752" y2="328" class="solid"></line><line x1="760" y1="328" x2="768" y2="328" class="solid"></line><line x1="776" y1="328" x2="784" y2="328" class="solid"></line><text x="2" y="348" >RX</text><g><line x1="308" y1="8" x2="412" y2="8" class="solid"></line><line x1="308" y1="8" x2="308" y2="88" class="solid"></line><line x1="412" y1="8" x2="412" y2="88" class="solid"></line><line x1="292" y1="72" x2="308" y2="72" class="solid"></line><line x1="292" y1="72" x2="292" y2="116" class="solid"></line><line x1="308" y1="88" x2="412" y2="88" class="solid"></line><line x1="148" y1="24" x2="196" y2="24" class="solid"></line><line x1="148" y1="24" x2="148" y2="88" class="solid"></line><line x1="196" y1="24" x2="196" y2="88" class="solid"></line><line x1="120" y1="40" x2="148" y2="40" class="solid"></line><line x1="132" y1="72" x2="148" y2="72" class="solid"></line><line x1="132" y1="72" x2="132" y2="116" class="solid"></line><line x1="148" y1="88" x2="196" y2="88" class="solid"></line><line x1="228" y1="24" x2="276" y2="24" class="solid"></line><line x1="228" y1="24" x2="228" y2="88" class="solid"></line><line x1="276" y1="24" x2="276" y2="88" class="solid"></line><line x1="196" y1="40" x2="228" y2="40" class="solid"></line><line x1="276" y1="40" x2="308" y2="40" class="solid"></line><line x1="212" y1="72" x2="228" y2="72" class="solid"></line><line x1="212" y1="72" x2="212" y2="116" class="solid"></line><line x1="228" y1="88" x2="276" y2="88" class="solid"></line></g><g><line x1="416" y1="32" x2="500" y2="32" class="solid"></line><line x1="500" y1="24" x2="528" y2="24" class="solid"></line><line x1="500" y1="24" x2="500" y2="56" class="solid"></line><path d="M 528,24 A 8,8 0,0,1 534,28" class="nofill"></path><line x1="534" y1="28" x2="536" y2="32" class="solid"></line><line x1="416" y1="48" x2="500" y2="48" class="solid"></line><path d="M 536,32 A 16,16 0,0,1 536,48" class="nofill"></path><line x1="500" y1="56" x2="528" y2="56" class="solid"></line><line x1="536" y1="48" x2="534" y2="52" class="solid"></line><path d="M 534,52 A 8,8 0,0,1 528,56" class="nofill"></path></g><g><line x1="580" y1="24" x2="628" y2="24" class="solid"></line><line x1="580" y1="24" x2="580" y2="88" class="solid"></line><line x1="628" y1="24" x2="628" y2="88" class="solid"></line><line x1="540" y1="72" x2="580" y2="72" class="solid"></line><line x1="540" y1="72" x2="540" y2="120" class="solid"></line><line x1="580" y1="88" x2="628" y2="88" class="solid"></line><line x1="288" y1="120" x2="540" y2="120" class="solid"></line><line x1="660" y1="24" x2="708" y2="24" class="solid"></line><line x1="660" y1="24" x2="660" y2="88" class="solid"></line><line x1="708" y1="24" x2="708" y2="88" class="solid"></line><line x1="628" y1="40" x2="660" y2="40" class="solid"></line><line x1="644" y1="72" x2="660" y2="72" class="solid"></line><line x1="644" y1="72" x2="644" y2="164" class="solid"></line><line x1="660" y1="88" x2="708" y2="88" class="solid"></line><line x1="740" y1="24" x2="788" y2="24" class="solid"></line><line x1="740" y1="24" x2="740" y2="88" class="solid"></line><line x1="788" y1="24" x2="788" y2="88" class="solid"></line><line x1="708" y1="40" x2="740" y2="40" class="solid"></line><line x1="788" y1="40" x2="804" y2="40" class="solid"></line><line x1="804" y1="40" x2="804" y2="200" class="solid"></line><line x1="724" y1="72" x2="740" y2="72" class="solid"></line><line x1="724" y1="72" x2="724" y2="168" class="solid"></line><line x1="740" y1="88" x2="788" y2="88" class="solid"></line><line x1="640" y1="168" x2="724" y2="168" class="solid"></line><line x1="552" y1="200" x2="804" y2="200" class="solid"></line></g><g><line x1="380" y1="172" x2="380" y2="192" class="solid"></line><path d="M 380,192 A 12,12 0,0,0 380,208" class="nofill"></path><line x1="380" y1="208" x2="380" y2="280" class="solid"></line><line x1="556" y1="204" x2="556" y2="248" class="solid"></line><line x1="580" y1="232" x2="628" y2="232" class="solid"></line><line x1="580" y1="232" x2="580" y2="296" class="solid"></line><line x1="628" y1="232" x2="628" y2="296" class="solid"></line><line x1="556" y1="248" x2="580" y2="248" class="solid"></line><line x1="580" y1="296" x2="628" y2="296" class="solid"></line><line x1="660" y1="232" x2="708" y2="232" class="solid"></line><line x1="660" y1="232" x2="660" y2="296" class="solid"></line><line x1="708" y1="232" x2="708" y2="296" class="solid"></line><line x1="628" y1="248" x2="660" y2="248" class="solid"></line><line x1="644" y1="280" x2="660" y2="280" class="solid"></line><line x1="644" y1="280" x2="644" y2="356" class="solid"></line><line x1="660" y1="296" x2="708" y2="296" class="solid"></line><line x1="740" y1="232" x2="788" y2="232" class="solid"></line><line x1="740" y1="232" x2="740" y2="296" class="solid"></line><line x1="788" y1="232" x2="788" y2="296" class="solid"></line><line x1="708" y1="248" x2="740" y2="248" class="solid"></line><line x1="788" y1="248" x2="804" y2="248" class="solid"></line><line x1="804" y1="248" x2="804" y2="392" class="solid"></line><line x1="724" y1="280" x2="740" y2="280" class="solid"></line><line x1="724" y1="280" x2="724" y2="360" class="solid"></line><line x1="740" y1="296" x2="788" y2="296" class="solid"></line><line x1="640" y1="360" x2="724" y2="360" class="solid"></line><line x1="308" y1="392" x2="804" y2="392" class="solid"></line><line x1="308" y1="392" x2="308" y2="420" class="solid"></line><path d="M 308,264 A 8,8 0,0,0 300,272" class="nofill"></path><line x1="308" y1="264" x2="324" y2="264" class="solid"></line><path d="M 324,264 A 8,8 0,0,1 332,272" class="nofill"></path><line x1="332" y1="272" x2="332" y2="288" class="solid"></line><line x1="332" y1="280" x2="580" y2="280" class="solid"></line><path d="M 332,288 A 8,8 0,0,0 340,296" class="nofill"></path><line x1="340" y1="296" x2="364" y2="296" class="solid"></line><path d="M 364,296 A 8,8 0,0,1 372,304" class="nofill"></path><line x1="372" y1="304" x2="372" y2="320" class="solid"></line><path d="M 252,296 A 8,8 0,0,0 244,304" class="nofill"></path><line x1="252" y1="296" x2="276" y2="296" class="solid"></line><line x1="244" y1="304" x2="244" y2="320" class="solid"></line><path d="M 244,320 A 8,8 0,0,0 252,328" class="nofill"></path><line x1="252" y1="328" x2="364" y2="328" class="solid"></line><path d="M 372,320 A 8,8 0,0,1 364,328" class="nofill"></path></g><g><path d="M 284,280 A 8,8 0,0,0 276,288" class="nofill"></path><line x1="284" y1="280" x2="300" y2="280" class="solid"></line></g><g><line x1="548" y1="288" x2="548" y2="324" class="solid"></line><path d="M 548,324 A 4,4 0,0,0 552,328" class="nofill"></path><line x1="552" y1="328" x2="560" y2="328" class="solid"></line></g><g><line x1="380" y1="364" x2="380" y2="384" class="solid"></line><path d="M 380,384 A 12,12 0,0,0 380,400" class="nofill"></path><line x1="380" y1="400" x2="380" y2="456" class="solid"></line><path d="M 308,440 A 8,8 0,0,0 300,448" class="nofill"></path><line x1="308" y1="440" x2="324" y2="440" class="solid"></line><path d="M 324,440 A 8,8 0,0,1 332,448" class="nofill"></path><line x1="332" y1="448" x2="332" y2="464" class="solid"></line><line x1="332" y1="456" x2="380" y2="456" class="solid"></line><path d="M 332,464 A 8,8 0,0,0 340,472" class="nofill"></path><line x1="340" y1="472" x2="364" y2="472" class="solid"></line><path d="M 364,472 A 8,8 0,0,1 372,480" class="nofill"></path><line x1="372" y1="480" x2="372" y2="496" class="solid"></line><path d="M 252,472 A 8,8 0,0,0 244,480" class="nofill"></path><line x1="252" y1="472" x2="276" y2="472" class="solid"></line><line x1="244" y1="480" x2="244" y2="496" class="solid"></line><path d="M 244,496 A 8,8 0,0,0 252,504" class="nofill"></path><line x1="252" y1="504" x2="364" y2="504" class="solid"></line><path d="M 372,496 A 8,8 0,0,1 364,504" class="nofill"></path></g><g><path d="M 284,456 A 8,8 0,0,0 276,464" class="nofill"></path><line x1="284" y1="456" x2="300" y2="456" class="solid"></line></g><g><line x1="912" y1="216" x2="920" y2="216" class="solid"></line><path d="M 920,216 A 4,4 0,0,1 924,220" class="nofill"></path><line x1="924" y1="220" x2="924" y2="240" class="solid"></line></g><g><line x1="924" y1="288" x2="924" y2="324" class="solid"></line><line x1="904" y1="328" x2="920" y2="328" class="solid"></line><path d="M 924,324 A 4,4 0,0,1 920,328" class="nofill"></path></g></svg>