<svg xmlns="http://www.w3.org/2000/svg" width="512" height="272" class="svgbob"><style>.svgbob line, .svgbob path, .svgbob circle, .svgbob rect, .svgbob polygon {
    stroke: black;
    stroke-width: 2;
    stroke-opacity: 1;
    fill-opacity: 1;
    stroke-linecap: round;
    stroke-linejoin: miter;
}
.svgbob text {
    white-space: pre;
    fill: black;
    font-family: Iosevka Fixed, monospace;
    font-size: 14px;
}
.svgbob rect.backdrop {
    stroke: none;
    fill: white;
}
.svgbob .broken {
    stroke-dasharray: 8;
}
.svgbob .filled {
    fill: black;
}
.svgbob .bg_filled {
    fill: white;
    stroke-width: 1;
}
.svgbob .nofill {
    fill: white;
}
.svgbob .end_marked_arrow {
    marker-end: url(#arrow);
}
.svgbob .start_marked_arrow {
    marker-start: url(#arrow);
}
.svgbob .end_marked_diamond {
    marker-end: url(#diamond);
}
.svgbob .start_marked_diamond {
    marker-start: url(#diamond);
}
.svgbob .end_marked_circle {
    marker-end: url(#circle);
}
.svgbob .start_marked_circle {
    marker-start: url(#circle);
}
.svgbob .end_marked_open_circle {
    marker-end: url(#open_circle);
}
.svgbob .start_marked_open_circle {
    marker-start: url(#open_circle);
}
.svgbob .end_marked_big_open_circle {
    marker-end: url(#big_open_circle);
}
.svgbob .start_marked_big_open_circle {
    marker-start: url(#big_open_circle);
}<!--separator--></style><defs><marker id="arrow" viewBox="-2 -2 8 8" refX="4" refY="2" markerWidth="7" markerHeight="7" orient="auto-start-reverse"><polygon points="0,0 0,4 4,2 0,0"></polygon></marker><marker id="diamond" viewBox="-2 -2 8 8" refX="4" refY="2" markerWidth="7" markerHeight="7" orient="auto-start-reverse"><polygon points="0,2 2,0 4,2 2,4 0,2"></polygon></marker><marker id="circle" viewBox="0 0 8 8" refX="4" refY="4" markerWidth="7" markerHeight="7" orient="auto-start-reverse"><circle cx="4" cy="4" r="2" class="filled"></circle></marker><marker id="open_circle" viewBox="0 0 8 8" refX="4" refY="4" markerWidth="7" markerHeight="7" orient="auto-start-reverse"><circle cx="4" cy="4" r="2" class="bg_filled"></circle></marker><marker id="big_open_circle" viewBox="0 0 8 8" refX="4" refY="4" markerWidth="7" markerHeight="7" orient="auto-start-reverse"><circle cx="4" cy="4" r="3" class="bg_filled"></circle></marker></defs><rect class="backdrop" x="0" y="0" width="512" height="272"></rect><text x="98" y="252" >48</text><text x="162" y="252" >SFP+</text><text x="354" y="252" >4</text><text x="370" y="252" >40Gb</text><text x="410" y="252" >QSFP+</text><text x="266" y="60" >BCM56846</text><text x="114" y="220" >.</text><text x="130" y="220" >.</text><text x="146" y="220" >.</text><text x="122" y="252" >10Gb</text><g><line x1="132" y1="8" x2="444" y2="8" class="solid"></line><line x1="132" y1="8" x2="132" y2="104" class="solid"></line><line x1="444" y1="8" x2="444" y2="104" class="solid"></line><line x1="12" y1="40" x2="132" y2="40" class="solid"></line><line x1="12" y1="40" x2="12" y2="200" class="solid"></line><line x1="444" y1="40" x2="492" y2="40" class="solid"></line><line x1="492" y1="40" x2="492" y2="200" class="solid"></line><line x1="36" y1="56" x2="132" y2="56" class="solid"></line><line x1="36" y1="56" x2="36" y2="200" class="solid"></line><line x1="444" y1="56" x2="484" y2="56" class="solid"></line><line x1="484" y1="56" x2="484" y2="200" class="solid"></line><line x1="60" y1="72" x2="132" y2="72" class="solid"></line><line x1="60" y1="72" x2="60" y2="200" class="solid"></line><line x1="444" y1="72" x2="476" y2="72" class="solid"></line><line x1="476" y1="72" x2="476" y2="200" class="solid"></line><line x1="84" y1="88" x2="132" y2="88" class="solid"></line><line x1="84" y1="88" x2="84" y2="200" class="solid"></line><line x1="444" y1="88" x2="468" y2="88" class="solid"></line><line x1="468" y1="88" x2="468" y2="200" class="solid"></line><line x1="132" y1="104" x2="444" y2="104" class="solid"></line><line x1="180" y1="104" x2="180" y2="200" class="solid"></line><line x1="204" y1="104" x2="204" y2="200" class="solid"></line><line x1="228" y1="104" x2="228" y2="200" class="solid"></line><line x1="252" y1="104" x2="252" y2="200" class="solid"></line><line x1="300" y1="104" x2="300" y2="200" class="solid"></line><line x1="308" y1="104" x2="308" y2="200" class="solid"></line><line x1="316" y1="104" x2="316" y2="200" class="solid"></line><line x1="324" y1="104" x2="324" y2="200" class="solid"></line><line x1="356" y1="104" x2="356" y2="200" class="solid"></line><line x1="364" y1="104" x2="364" y2="200" class="solid"></line><line x1="372" y1="104" x2="372" y2="200" class="solid"></line><line x1="380" y1="104" x2="380" y2="200" class="solid"></line><line x1="412" y1="104" x2="412" y2="200" class="solid"></line><line x1="420" y1="104" x2="420" y2="200" class="solid"></line><line x1="428" y1="104" x2="428" y2="200" class="solid"></line><line x1="436" y1="104" x2="436" y2="200" class="solid"></line><line x1="4" y1="200" x2="20" y2="200" class="solid"></line><line x1="4" y1="200" x2="4" y2="232" class="solid"></line><line x1="20" y1="200" x2="20" y2="232" class="solid"></line><line x1="28" y1="200" x2="44" y2="200" class="solid"></line><line x1="28" y1="200" x2="28" y2="232" class="solid"></line><line x1="44" y1="200" x2="44" y2="232" class="solid"></line><line x1="52" y1="200" x2="68" y2="200" class="solid"></line><line x1="52" y1="200" x2="52" y2="232" class="solid"></line><line x1="68" y1="200" x2="68" y2="232" class="solid"></line><line x1="76" y1="200" x2="92" y2="200" class="solid"></line><line x1="76" y1="200" x2="76" y2="232" class="solid"></line><line x1="92" y1="200" x2="92" y2="232" class="solid"></line><line x1="172" y1="200" x2="188" y2="200" class="solid"></line><line x1="172" y1="200" x2="172" y2="232" class="solid"></line><line x1="188" y1="200" x2="188" y2="232" class="solid"></line><line x1="196" y1="200" x2="212" y2="200" class="solid"></line><line x1="196" y1="200" x2="196" y2="232" class="solid"></line><line x1="212" y1="200" x2="212" y2="232" class="solid"></line><line x1="220" y1="200" x2="236" y2="200" class="solid"></line><line x1="220" y1="200" x2="220" y2="232" class="solid"></line><line x1="236" y1="200" x2="236" y2="232" class="solid"></line><line x1="244" y1="200" x2="260" y2="200" class="solid"></line><line x1="244" y1="200" x2="244" y2="232" class="solid"></line><line x1="260" y1="200" x2="260" y2="232" class="solid"></line><line x1="292" y1="200" x2="332" y2="200" class="solid"></line><line x1="292" y1="200" x2="292" y2="232" class="solid"></line><line x1="332" y1="200" x2="332" y2="232" class="solid"></line><line x1="348" y1="200" x2="388" y2="200" class="solid"></line><line x1="348" y1="200" x2="348" y2="232" class="solid"></line><line x1="388" y1="200" x2="388" y2="232" class="solid"></line><line x1="404" y1="200" x2="444" y2="200" class="solid"></line><line x1="404" y1="200" x2="404" y2="232" class="solid"></line><line x1="444" y1="200" x2="444" y2="232" class="solid"></line><line x1="460" y1="200" x2="500" y2="200" class="solid"></line><line x1="460" y1="200" x2="460" y2="232" class="solid"></line><line x1="500" y1="200" x2="500" y2="232" class="solid"></line><line x1="4" y1="232" x2="20" y2="232" class="solid"></line><line x1="28" y1="232" x2="44" y2="232" class="solid"></line><line x1="52" y1="232" x2="68" y2="232" class="solid"></line><line x1="76" y1="232" x2="92" y2="232" class="solid"></line><line x1="172" y1="232" x2="188" y2="232" class="solid"></line><line x1="196" y1="232" x2="212" y2="232" class="solid"></line><line x1="220" y1="232" x2="236" y2="232" class="solid"></line><line x1="244" y1="232" x2="260" y2="232" class="solid"></line><line x1="292" y1="232" x2="332" y2="232" class="solid"></line><line x1="348" y1="232" x2="388" y2="232" class="solid"></line><line x1="404" y1="232" x2="444" y2="232" class="solid"></line><line x1="460" y1="232" x2="500" y2="232" class="solid"></line></g></svg>