<svg xmlns="http://www.w3.org/2000/svg" width="888" height="320" class="svgbob"><style>.svgbob line, .svgbob path, .svgbob circle, .svgbob rect, .svgbob polygon {
    stroke: black;
    stroke-width: 2;
    stroke-opacity: 1;
    fill-opacity: 1;
    stroke-linecap: round;
    stroke-linejoin: miter;
}
.svgbob text {
    white-space: pre;
    fill: black;
    font-family: Iosevka Fixed, monospace;
    font-size: 14px;
}
.svgbob rect.backdrop {
    stroke: none;
    fill: white;
}
.svgbob .broken {
    stroke-dasharray: 8;
}
.svgbob .filled {
    fill: black;
}
.svgbob .bg_filled {
    fill: white;
    stroke-width: 1;
}
.svgbob .nofill {
    fill: white;
}
.svgbob .end_marked_arrow {
    marker-end: url(#arrow);
}
.svgbob .start_marked_arrow {
    marker-start: url(#arrow);
}
.svgbob .end_marked_diamond {
    marker-end: url(#diamond);
}
.svgbob .start_marked_diamond {
    marker-start: url(#diamond);
}
.svgbob .end_marked_circle {
    marker-end: url(#circle);
}
.svgbob .start_marked_circle {
    marker-start: url(#circle);
}
.svgbob .end_marked_open_circle {
    marker-end: url(#open_circle);
}
.svgbob .start_marked_open_circle {
    marker-start: url(#open_circle);
}
.svgbob .end_marked_big_open_circle {
    marker-end: url(#big_open_circle);
}
.svgbob .start_marked_big_open_circle {
    marker-start: url(#big_open_circle);
}<!--separator--></style><defs><marker id="arrow" viewBox="-2 -2 8 8" refX="4" refY="2" markerWidth="7" markerHeight="7" orient="auto-start-reverse"><polygon points="0,0 0,4 4,2 0,0"></polygon></marker><marker id="diamond" viewBox="-2 -2 8 8" refX="4" refY="2" markerWidth="7" markerHeight="7" orient="auto-start-reverse"><polygon points="0,2 2,0 4,2 2,4 0,2"></polygon></marker><marker id="circle" viewBox="0 0 8 8" refX="4" refY="4" markerWidth="7" markerHeight="7" orient="auto-start-reverse"><circle cx="4" cy="4" r="2" class="filled"></circle></marker><marker id="open_circle" viewBox="0 0 8 8" refX="4" refY="4" markerWidth="7" markerHeight="7" orient="auto-start-reverse"><circle cx="4" cy="4" r="2" class="bg_filled"></circle></marker><marker id="big_open_circle" viewBox="0 0 8 8" refX="4" refY="4" markerWidth="7" markerHeight="7" orient="auto-start-reverse"><circle cx="4" cy="4" r="3" class="bg_filled"></circle></marker></defs><rect class="backdrop" x="0" y="0" width="888" height="320"></rect><text x="578" y="28" >Client</text><text x="634" y="28" >FPGA</text><text x="250" y="92" >UDP</text><text x="282" y="92" >multicast</text><text x="386" y="92" >Eth</text><text x="650" y="92" >UDP</text><text x="682" y="92" >packet</text><polygon points="360,100 368,104 360,108" class="filled"></polygon><polygon points="432,100 440,104 432,108" class="filled"></polygon><polygon points="728,100 736,104 728,108" class="filled"></polygon><polygon points="360,132 368,136 360,140" class="filled"></polygon><text x="250" y="172" >UDP</text><text x="282" y="172" >unicast</text><text x="642" y="188" >Mold</text><text x="682" y="188" >missing</text><text x="746" y="188" >message</text><text x="674" y="204" >replay</text><text x="730" y="204" >request</text><polygon points="200,212 192,216 200,220" class="filled"></polygon><polygon points="432,212 424,216 432,220" class="filled"></polygon><polygon points="640,212 632,216 640,220" class="filled"></polygon><text x="250" y="236" >UDP</text><text x="282" y="236" >unicast</text><text x="26" y="108" >NASDAQ</text><text x="82" y="108" >ITCH</text><text x="122" y="108" >server</text><text x="458" y="108" >Phy</text><text x="506" y="108" >MAC</text><text x="554" y="108" >IP</text><text x="594" y="108" >UDP</text><text x="762" y="108" >MoldUDP64</text><text x="386" y="124" >rx</text><text x="42" y="204" >NASDAQ</text><text x="98" y="204" >ITCH</text><text x="26" y="220" >Re</text><line x1="40" y1="216" x2="48" y2="216" class="solid"></line><text x="50" y="220" >request</text><text x="114" y="220" >server</text><text x="386" y="220" >tx</text><text x="458" y="220" >Phy</text><text x="506" y="220" >MAC</text><text x="554" y="220" >IP</text><text x="594" y="220" >UDP</text><g><line x1="396" y1="8" x2="876" y2="8" class="solid"></line><line x1="396" y1="8" x2="396" y2="72" class="solid"></line><line x1="876" y1="8" x2="876" y2="296" class="solid"></line><line x1="372" y1="72" x2="420" y2="72" class="solid"></line><line x1="372" y1="72" x2="372" y2="248" class="solid"></line><line x1="420" y1="72" x2="420" y2="248" class="solid"></line><line x1="420" y1="104" x2="432" y2="104" class="solid"></line><line x1="200" y1="216" x2="372" y2="216" class="solid"></line><line x1="372" y1="248" x2="420" y2="248" class="solid"></line><line x1="396" y1="248" x2="396" y2="296" class="solid"></line><line x1="396" y1="296" x2="876" y2="296" class="solid"></line></g><g><line x1="4" y1="72" x2="188" y2="72" class="solid"></line><line x1="4" y1="72" x2="4" y2="136" class="solid"></line><line x1="188" y1="72" x2="188" y2="136" class="solid"></line><line x1="188" y1="104" x2="360" y2="104" class="solid"></line><line x1="4" y1="136" x2="188" y2="136" class="solid"></line></g><g><line x1="444" y1="72" x2="628" y2="72" class="solid"></line><line x1="444" y1="72" x2="444" y2="136" class="solid"></line><line x1="492" y1="72" x2="492" y2="136" class="solid"></line><line x1="540" y1="72" x2="540" y2="136" class="solid"></line><line x1="580" y1="72" x2="580" y2="136" class="solid"></line><line x1="628" y1="72" x2="628" y2="136" class="solid"></line><line x1="628" y1="104" x2="728" y2="104" class="solid"></line><line x1="444" y1="136" x2="628" y2="136" class="solid"></line></g><g><line x1="740" y1="72" x2="852" y2="72" class="solid"></line><line x1="740" y1="72" x2="740" y2="136" class="solid"></line><line x1="852" y1="72" x2="852" y2="136" class="solid"></line><line x1="740" y1="136" x2="852" y2="136" class="solid"></line><line x1="804" y1="136" x2="804" y2="216" class="solid"></line><line x1="640" y1="216" x2="804" y2="216" class="solid"></line></g><g><line x1="348" y1="136" x2="360" y2="136" class="solid"></line><line x1="348" y1="136" x2="348" y2="184" class="solid"></line><line x1="4" y1="168" x2="188" y2="168" class="solid"></line><line x1="4" y1="168" x2="4" y2="248" class="solid"></line><line x1="188" y1="168" x2="188" y2="248" class="solid"></line><line x1="188" y1="184" x2="348" y2="184" class="solid"></line><line x1="4" y1="248" x2="188" y2="248" class="solid"></line></g><g><line x1="444" y1="184" x2="628" y2="184" class="solid"></line><line x1="444" y1="184" x2="444" y2="248" class="solid"></line><line x1="492" y1="184" x2="492" y2="248" class="solid"></line><line x1="540" y1="184" x2="540" y2="248" class="solid"></line><line x1="580" y1="184" x2="580" y2="248" class="solid"></line><line x1="628" y1="184" x2="628" y2="248" class="solid"></line><line x1="432" y1="216" x2="444" y2="216" class="solid"></line><line x1="444" y1="248" x2="628" y2="248" class="solid"></line></g></svg>