<svg xmlns="http://www.w3.org/2000/svg" width="688" height="96" class="svgbob"><style>.svgbob line, .svgbob path, .svgbob circle, .svgbob rect, .svgbob polygon {
    stroke: black;
    stroke-width: 2;
    stroke-opacity: 1;
    fill-opacity: 1;
    stroke-linecap: round;
    stroke-linejoin: miter;
}
.svgbob text {
    white-space: pre;
    fill: black;
    font-family: Iosevka Fixed, monospace;
    font-size: 14px;
}
.svgbob rect.backdrop {
    stroke: none;
    fill: white;
}
.svgbob .broken {
    stroke-dasharray: 8;
}
.svgbob .filled {
    fill: black;
}
.svgbob .bg_filled {
    fill: white;
    stroke-width: 1;
}
.svgbob .nofill {
    fill: white;
}
.svgbob .end_marked_arrow {
    marker-end: url(#arrow);
}
.svgbob .start_marked_arrow {
    marker-start: url(#arrow);
}
.svgbob .end_marked_diamond {
    marker-end: url(#diamond);
}
.svgbob .start_marked_diamond {
    marker-start: url(#diamond);
}
.svgbob .end_marked_circle {
    marker-end: url(#circle);
}
.svgbob .start_marked_circle {
    marker-start: url(#circle);
}
.svgbob .end_marked_open_circle {
    marker-end: url(#open_circle);
}
.svgbob .start_marked_open_circle {
    marker-start: url(#open_circle);
}
.svgbob .end_marked_big_open_circle {
    marker-end: url(#big_open_circle);
}
.svgbob .start_marked_big_open_circle {
    marker-start: url(#big_open_circle);
}<!--separator--></style><defs><marker id="arrow" viewBox="-2 -2 8 8" refX="4" refY="2" markerWidth="7" markerHeight="7" orient="auto-start-reverse"><polygon points="0,0 0,4 4,2 0,0"></polygon></marker><marker id="diamond" viewBox="-2 -2 8 8" refX="4" refY="2" markerWidth="7" markerHeight="7" orient="auto-start-reverse"><polygon points="0,2 2,0 4,2 2,4 0,2"></polygon></marker><marker id="circle" viewBox="0 0 8 8" refX="4" refY="4" markerWidth="7" markerHeight="7" orient="auto-start-reverse"><circle cx="4" cy="4" r="2" class="filled"></circle></marker><marker id="open_circle" viewBox="0 0 8 8" refX="4" refY="4" markerWidth="7" markerHeight="7" orient="auto-start-reverse"><circle cx="4" cy="4" r="2" class="bg_filled"></circle></marker><marker id="big_open_circle" viewBox="0 0 8 8" refX="4" refY="4" markerWidth="7" markerHeight="7" orient="auto-start-reverse"><circle cx="4" cy="4" r="3" class="bg_filled"></circle></marker></defs><rect class="backdrop" x="0" y="0" width="688" height="96"></rect><text x="10" y="12" >63</text><text x="314" y="12" >0</text><text x="18" y="44" >Start</text><text x="66" y="44" >of</text><text x="90" y="44" >new</text><text x="122" y="44" >message</text><text x="186" y="44" >data</text><text x="242" y="44" >Length</text><text x="298" y="44" >1B</text><text x="138" y="76" >Payload</text><text x="202" y="76" >1</text><text x="354" y="12" >63</text><text x="666" y="12" >0</text><text x="354" y="44" >Length</text><text x="410" y="44" >1B</text><text x="442" y="44" >End</text><text x="474" y="44" >of</text><text x="498" y="44" >previous</text><text x="570" y="44" >message</text><text x="634" y="44" >data</text><text x="482" y="76" >Payload</text><text x="546" y="76" >0</text><g><line x1="4" y1="24" x2="324" y2="24" class="solid"></line><line x1="4" y1="24" x2="4" y2="56" class="solid"></line><line x1="228" y1="24" x2="228" y2="56" class="solid"></line><line x1="324" y1="24" x2="324" y2="56" class="solid"></line><line x1="4" y1="56" x2="324" y2="56" class="solid"></line></g><g><line x1="348" y1="24" x2="676" y2="24" class="solid"></line><line x1="348" y1="24" x2="348" y2="56" class="solid"></line><line x1="436" y1="24" x2="436" y2="56" class="solid"></line><line x1="676" y1="24" x2="676" y2="56" class="solid"></line><line x1="348" y1="56" x2="676" y2="56" class="solid"></line></g></svg>