<svg xmlns="http://www.w3.org/2000/svg" width="848" height="256" class="svgbob"><style>.svgbob line, .svgbob path, .svgbob circle, .svgbob rect, .svgbob polygon {
    stroke: black;
    stroke-width: 2;
    stroke-opacity: 1;
    fill-opacity: 1;
    stroke-linecap: round;
    stroke-linejoin: miter;
}
.svgbob text {
    white-space: pre;
    fill: black;
    font-family: Iosevka Fixed, monospace;
    font-size: 14px;
}
.svgbob rect.backdrop {
    stroke: none;
    fill: white;
}
.svgbob .broken {
    stroke-dasharray: 8;
}
.svgbob .filled {
    fill: black;
}
.svgbob .bg_filled {
    fill: white;
    stroke-width: 1;
}
.svgbob .nofill {
    fill: white;
}
.svgbob .end_marked_arrow {
    marker-end: url(#arrow);
}
.svgbob .start_marked_arrow {
    marker-start: url(#arrow);
}
.svgbob .end_marked_diamond {
    marker-end: url(#diamond);
}
.svgbob .start_marked_diamond {
    marker-start: url(#diamond);
}
.svgbob .end_marked_circle {
    marker-end: url(#circle);
}
.svgbob .start_marked_circle {
    marker-start: url(#circle);
}
.svgbob .end_marked_open_circle {
    marker-end: url(#open_circle);
}
.svgbob .start_marked_open_circle {
    marker-start: url(#open_circle);
}
.svgbob .end_marked_big_open_circle {
    marker-end: url(#big_open_circle);
}
.svgbob .start_marked_big_open_circle {
    marker-start: url(#big_open_circle);
}<!--separator--></style><defs><marker id="arrow" viewBox="-2 -2 8 8" refX="4" refY="2" markerWidth="7" markerHeight="7" orient="auto-start-reverse"><polygon points="0,0 0,4 4,2 0,0"></polygon></marker><marker id="diamond" viewBox="-2 -2 8 8" refX="4" refY="2" markerWidth="7" markerHeight="7" orient="auto-start-reverse"><polygon points="0,2 2,0 4,2 2,4 0,2"></polygon></marker><marker id="circle" viewBox="0 0 8 8" refX="4" refY="4" markerWidth="7" markerHeight="7" orient="auto-start-reverse"><circle cx="4" cy="4" r="2" class="filled"></circle></marker><marker id="open_circle" viewBox="0 0 8 8" refX="4" refY="4" markerWidth="7" markerHeight="7" orient="auto-start-reverse"><circle cx="4" cy="4" r="2" class="bg_filled"></circle></marker><marker id="big_open_circle" viewBox="0 0 8 8" refX="4" refY="4" markerWidth="7" markerHeight="7" orient="auto-start-reverse"><circle cx="4" cy="4" r="3" class="bg_filled"></circle></marker></defs><rect class="backdrop" x="0" y="0" width="848" height="256"></rect><rect x="668" y="104" width="168" height="64" class="solid nofill" rx="0"></rect><text x="682" y="140" >Trading</text><text x="746" y="140" >algorithm</text><text x="378" y="28" >itch0</text><line x1="416" y1="32" x2="424" y2="32" class="solid"></line><text x="426" y="28" >valid</text><text x="522" y="28" >{itch0</text><line x1="568" y1="32" x2="576" y2="32" class="solid"></line><text x="578" y="28" >valid,itch1</text><line x1="664" y1="32" x2="672" y2="32" class="solid"></line><text x="674" y="28" >valid}</text><polygon points="296,36 304,40 296,44" class="filled"></polygon><line x1="372" y1="40" x2="532" y2="40" class="solid end_marked_circle"></line><text x="106" y="60" >msg0</text><line x1="136" y1="64" x2="144" y2="64" class="solid"></line><text x="146" y="60" >valid</text><text x="378" y="60" >itch0</text><line x1="416" y1="64" x2="424" y2="64" class="solid"></line><text x="426" y="60" >meta[]</text><polygon points="296,68 304,72 296,76" class="filled"></polygon><polygon points="616,68 624,68 620,80" class="filled"></polygon><text x="106" y="92" >msg0</text><line x1="136" y1="96" x2="144" y2="96" class="solid"></line><text x="146" y="92" >data[63:0]</text><polygon points="592,116 600,120 592,124" class="filled"></polygon><text x="610" y="124" >01</text><text x="106" y="140" >msg1</text><line x1="136" y1="144" x2="144" y2="144" class="solid"></line><text x="146" y="140" >valid</text><polygon points="656,132 664,136 656,140" class="filled"></polygon><polygon points="592,148 600,152 592,156" class="filled"></polygon><text x="610" y="156" >10</text><text x="106" y="172" >msg1</text><line x1="136" y1="176" x2="144" y2="176" class="solid"></line><text x="146" y="172" >data[63:0]</text><text x="370" y="172" >itch1</text><line x1="408" y1="176" x2="416" y2="176" class="solid"></line><text x="418" y="172" >valid</text><polygon points="288,180 296,184 288,188" class="filled"></polygon><text x="370" y="204" >itch1</text><line x1="408" y1="208" x2="416" y2="208" class="solid"></line><text x="418" y="204" >meta[]</text><polygon points="288,212 296,216 288,220" class="filled"></polygon><text x="322" y="60" >ITCH0</text><text x="18" y="124" >MoldUDP64</text><text x="314" y="204" >ITCH1</text><g><line x1="308" y1="24" x2="372" y2="24" class="solid"></line><line x1="308" y1="24" x2="308" y2="88" class="solid"></line><line x1="372" y1="24" x2="372" y2="88" class="solid"></line><line x1="372" y1="72" x2="556" y2="72" class="solid"></line><line x1="556" y1="72" x2="556" y2="120" class="solid"></line><line x1="308" y1="88" x2="372" y2="88" class="solid"></line><line x1="556" y1="120" x2="592" y2="120" class="solid"></line></g><g><line x1="212" y1="40" x2="296" y2="40" class="solid"></line><line x1="212" y1="40" x2="212" y2="72" class="solid"></line><line x1="4" y1="56" x2="100" y2="56" class="solid"></line><line x1="4" y1="56" x2="4" y2="200" class="solid"></line><line x1="100" y1="56" x2="100" y2="200" class="solid"></line><line x1="100" y1="72" x2="212" y2="72" class="solid"></line><line x1="100" y1="152" x2="244" y2="152" class="solid"></line><line x1="244" y1="152" x2="244" y2="184" class="solid"></line><line x1="100" y1="184" x2="212" y2="184" class="solid"></line><line x1="212" y1="184" x2="212" y2="216" class="solid"></line><line x1="244" y1="184" x2="288" y2="184" class="solid"></line><line x1="4" y1="200" x2="100" y2="200" class="solid"></line><line x1="212" y1="216" x2="288" y2="216" class="solid"></line><line x1="244" y1="72" x2="296" y2="72" class="solid"></line><line x1="244" y1="72" x2="244" y2="104" class="solid"></line><line x1="100" y1="104" x2="244" y2="104" class="solid"></line></g><g><line x1="528" y1="40" x2="620" y2="40" class="solid"></line><line x1="620" y1="40" x2="620" y2="68" class="solid"></line></g><g><line x1="532" y1="44" x2="532" y2="64" class="solid"></line><path d="M 532,64 A 12,12 0,0,0 532,80" class="nofill"></path><line x1="532" y1="80" x2="532" y2="184" class="solid"></line><line x1="556" y1="152" x2="592" y2="152" class="solid"></line><line x1="556" y1="152" x2="556" y2="216" class="solid"></line><line x1="300" y1="168" x2="364" y2="168" class="solid"></line><line x1="300" y1="168" x2="300" y2="232" class="solid"></line><line x1="364" y1="168" x2="364" y2="232" class="solid"></line><line x1="364" y1="184" x2="532" y2="184" class="solid"></line><line x1="364" y1="216" x2="556" y2="216" class="solid"></line><line x1="300" y1="232" x2="364" y2="232" class="solid"></line></g><g><line x1="604" y1="56" x2="604" y2="216" class="solid"></line><line x1="604" y1="56" x2="628" y2="104" class="solid"></line><line x1="628" y1="104" x2="628" y2="168" class="solid"></line><line x1="628" y1="136" x2="656" y2="136" class="solid"></line><line x1="628" y1="168" x2="604" y2="216" class="solid"></line></g></svg>