<?xml version="1.0" encoding="UTF-8" standalone="no"?>
<svg
   xmlns:dc="http://purl.org/dc/elements/1.1/"
   xmlns:cc="http://creativecommons.org/ns#"
   xmlns:rdf="http://www.w3.org/1999/02/22-rdf-syntax-ns#"
   xmlns:svg="http://www.w3.org/2000/svg"
   xmlns="http://www.w3.org/2000/svg"
   xmlns:sodipodi="http://sodipodi.sourceforge.net/DTD/sodipodi-0.dtd"
   xmlns:inkscape="http://www.inkscape.org/namespaces/inkscape"
   width="6.0668139mm"
   height="7.694623mm"
   viewBox="0 0 6.0668139 7.694623"
   version="1.1"
   id="svg848"
   inkscape:version="1.0.2 (e86c870879, 2021-01-15)"
   sodipodi:docname="roman_50000.svg">
  <defs
     id="defs842" />
  <sodipodi:namedview
     id="base"
     pagecolor="#ffffff"
     bordercolor="#666666"
     borderopacity="1.0"
     inkscape:pageopacity="0.0"
     inkscape:pageshadow="2"
     inkscape:zoom="7.9195959"
     inkscape:cx="28.478525"
     inkscape:cy="18.122152"
     inkscape:document-units="mm"
     inkscape:current-layer="layer1"
     inkscape:document-rotation="0"
     showgrid="false"
     inkscape:window-width="1267"
     inkscape:window-height="1040"
     inkscape:window-x="78"
     inkscape:window-y="0"
     inkscape:window-maximized="0"
     fit-margin-top="0"
     fit-margin-left="0"
     fit-margin-right="0"
     fit-margin-bottom="0" />
  <metadata
     id="metadata845">
    <rdf:RDF>
      <cc:Work
         rdf:about="">
        <dc:format>image/svg+xml</dc:format>
        <dc:type
           rdf:resource="http://purl.org/dc/dcmitype/StillImage" />
        <dc:title></dc:title>
      </cc:Work>
    </rdf:RDF>
  </metadata>
  <g
     inkscape:label="Layer 1"
     inkscape:groupmode="layer"
     id="layer1"
     transform="translate(-98.29839,-112.50166)">
    <path
       id="text1413"
       style="font-style:normal;font-weight:normal;font-size:10.5833px;line-height:1.25;font-family:sans-serif;fill:#fff6d5;fill-opacity:1;stroke:none;stroke-width:0.999999"
       d="m 371.52148,425.20312 v 29.08204 h 6.69922 c 2.35677,0 4.29037,-0.15625 5.80078,-0.46875 1.53646,-0.3125 3.02735,-0.93751 4.47266,-1.875 0.92448,-0.58594 1.73828,-1.29558 2.44141,-2.12891 0.71614,-0.83333 1.34765,-1.78386 1.89453,-2.85156 1.08072,-2.13541 1.62109,-4.53126 1.62109,-7.1875 0,-2.83854 -0.51432,-5.27996 -1.54297,-7.32422 -1.02864,-2.05729 -2.48047,-3.70443 -4.35547,-4.94141 -0.54687,-0.36458 -1.15234,-0.68359 -1.8164,-0.95703 -0.66406,-0.27344 -1.38672,-0.51432 -2.16797,-0.72266 -1.5625,-0.41661 -3.70444,-0.62499 -6.42578,-0.625 z m 3.86719,3.32032 h 2.94922 c 1.74479,0 3.20313,0.13672 4.375,0.41015 1.15885,0.27344 2.25912,0.72266 3.30078,1.34766 1.45833,0.89843 2.5586,2.13542 3.30078,3.71094 0.74219,1.56249 1.11328,3.47006 1.11328,5.72265 0,2.27864 -0.33854,4.17319 -1.01562,5.6836 -0.66406,1.51041 -1.66667,2.72787 -3.00781,3.65234 -0.53386,0.36458 -1.09375,0.67057 -1.67969,0.91797 -0.58594,0.2474 -1.21094,0.44271 -1.875,0.58594 -0.65104,0.14323 -1.35417,0.24739 -2.10938,0.3125 -0.74218,0.0651 -1.54297,0.0976 -2.40234,0.0976 h -2.94922 v -1.5625 h 1.99219 c 1.77083,0 3.34636,-0.20187 4.72656,-0.60546 1.38021,-0.40365 2.53907,-1.00261 3.47656,-1.79688 0.95052,-0.80729 1.66667,-1.8099 2.14844,-3.00781 0.49479,-1.21094 0.74219,-2.62371 0.74219,-4.23828 0,-1.61458 -0.2474,-3.02084 -0.74219,-4.21875 -0.48177,-1.21094 -1.19792,-2.22006 -2.14844,-3.02735 -0.93749,-0.80729 -2.09635,-1.41276 -3.47656,-1.8164 -1.3802,-0.40365 -2.95573,-0.60547 -4.72656,-0.60547 h -1.99219 z m 0,3.75 h 1.99219 c 1.26302,0 2.40235,0.13021 3.41797,0.39062 1.01562,0.26042 1.88151,0.69016 2.59765,1.28906 0.72917,0.58594 1.28907,1.35417 1.67969,2.30469 0.39063,0.95052 0.58594,2.11589 0.58594,3.4961 0,1.3802 -0.19531,2.54557 -0.58594,3.49609 -0.39062,0.95052 -0.95052,1.71875 -1.67969,2.30469 -0.71614,0.58593 -1.58203,1.00911 -2.59765,1.26953 -1.01562,0.26041 -2.15495,0.39062 -3.41797,0.39062 h -1.99219 v -1.5625 h 1.13281 c 1.40625,0 2.57162,-0.14323 3.4961,-0.42968 0.92447,-0.29948 1.66016,-0.70964 2.20703,-1.23047 0.54687,-0.53385 0.93099,-1.15886 1.15234,-1.875 0.22136,-0.72917 0.33203,-1.51693 0.33203,-2.36328 0,-0.84636 -0.11067,-1.62761 -0.33203,-2.34375 -0.22135,-0.72917 -0.60547,-1.35417 -1.15234,-1.875 -0.54687,-0.53386 -1.28256,-0.95053 -2.20703,-1.25 -0.92448,-0.29948 -2.08985,-0.44922 -3.4961,-0.44922 h -1.13281 z m 0,3.75 h 1.13281 c 0.79427,0 1.47136,0.0716 2.03125,0.21484 0.5599,0.14323 1.00912,0.3711 1.34766,0.6836 0.35156,0.29942 0.60547,0.68359 0.76172,1.15234 0.15625,0.46875 0.23437,1.02865 0.23437,1.67969 0,0.65104 -0.0781,1.21094 -0.23437,1.67968 -0.15625,0.46875 -0.41016,0.85287 -0.76172,1.15235 -0.33854,0.29948 -0.78776,0.52083 -1.34766,0.66406 -0.55989,0.14323 -1.23698,0.21484 -2.03125,0.21484 h -1.13281 z"
       transform="scale(0.26458333)" />
  </g>
</svg>
