<svg xmlns="http://www.w3.org/2000/svg" width="528" height="352" class="svgbob"><style>.svgbob line, .svgbob path, .svgbob circle, .svgbob rect, .svgbob polygon {
    stroke: black;
    stroke-width: 2;
    stroke-opacity: 1;
    fill-opacity: 1;
    stroke-linecap: round;
    stroke-linejoin: miter;
}
.svgbob text {
    white-space: pre;
    fill: black;
    font-family: Iosevka Fixed, monospace;
    font-size: 14px;
}
.svgbob rect.backdrop {
    stroke: none;
    fill: white;
}
.svgbob .broken {
    stroke-dasharray: 8;
}
.svgbob .filled {
    fill: black;
}
.svgbob .bg_filled {
    fill: white;
    stroke-width: 1;
}
.svgbob .nofill {
    fill: white;
}
.svgbob .end_marked_arrow {
    marker-end: url(#arrow);
}
.svgbob .start_marked_arrow {
    marker-start: url(#arrow);
}
.svgbob .end_marked_diamond {
    marker-end: url(#diamond);
}
.svgbob .start_marked_diamond {
    marker-start: url(#diamond);
}
.svgbob .end_marked_circle {
    marker-end: url(#circle);
}
.svgbob .start_marked_circle {
    marker-start: url(#circle);
}
.svgbob .end_marked_open_circle {
    marker-end: url(#open_circle);
}
.svgbob .start_marked_open_circle {
    marker-start: url(#open_circle);
}
.svgbob .end_marked_big_open_circle {
    marker-end: url(#big_open_circle);
}
.svgbob .start_marked_big_open_circle {
    marker-start: url(#big_open_circle);
}<!--separator--></style><defs><marker id="arrow" viewBox="-2 -2 8 8" refX="4" refY="2" markerWidth="7" markerHeight="7" orient="auto-start-reverse"><polygon points="0,0 0,4 4,2 0,0"></polygon></marker><marker id="diamond" viewBox="-2 -2 8 8" refX="4" refY="2" markerWidth="7" markerHeight="7" orient="auto-start-reverse"><polygon points="0,2 2,0 4,2 2,4 0,2"></polygon></marker><marker id="circle" viewBox="0 0 8 8" refX="4" refY="4" markerWidth="7" markerHeight="7" orient="auto-start-reverse"><circle cx="4" cy="4" r="2" class="filled"></circle></marker><marker id="open_circle" viewBox="0 0 8 8" refX="4" refY="4" markerWidth="7" markerHeight="7" orient="auto-start-reverse"><circle cx="4" cy="4" r="2" class="bg_filled"></circle></marker><marker id="big_open_circle" viewBox="0 0 8 8" refX="4" refY="4" markerWidth="7" markerHeight="7" orient="auto-start-reverse"><circle cx="4" cy="4" r="3" class="bg_filled"></circle></marker></defs><rect class="backdrop" x="0" y="0" width="528" height="352"></rect><text x="10" y="12" >0</text><text x="138" y="12" >1</text><text x="266" y="12" >2</text><text x="394" y="12" >3</text><text x="10" y="28" >0</text><text x="26" y="28" >1</text><text x="42" y="28" >2</text><text x="58" y="28" >3</text><text x="74" y="28" >4</text><text x="90" y="28" >5</text><text x="106" y="28" >6</text><text x="122" y="28" >7</text><text x="138" y="28" >8</text><text x="154" y="28" >9</text><text x="170" y="28" >0</text><text x="186" y="28" >1</text><text x="202" y="28" >2</text><text x="218" y="28" >3</text><text x="234" y="28" >4</text><text x="250" y="28" >5</text><text x="266" y="28" >6</text><text x="282" y="28" >7</text><text x="298" y="28" >8</text><text x="314" y="28" >9</text><text x="330" y="28" >0</text><text x="346" y="28" >1</text><text x="362" y="28" >2</text><text x="378" y="28" >3</text><text x="394" y="28" >4</text><text x="410" y="28" >5</text><text x="426" y="28" >6</text><text x="442" y="28" >7</text><text x="458" y="28" >8</text><text x="474" y="28" >9</text><text x="490" y="28" >0</text><text x="506" y="28" >1</text><text x="90" y="60" >Source</text><text x="146" y="60" >Port</text><text x="322" y="60" >Destination</text><text x="418" y="60" >Port</text><text x="202" y="92" >Sequence</text><text x="274" y="92" >Number</text><line x1="8" y1="104" x2="512" y2="104" class="solid"></line><text x="170" y="124" >Acknowledgment</text><text x="290" y="124" >Number</text><text x="26" y="156" >Data</text><text x="138" y="156" >C</text><text x="154" y="156" >E</text><text x="170" y="156" >U</text><text x="186" y="156" >A</text><text x="202" y="156" >P</text><text x="218" y="156" >R</text><text x="234" y="156" >S</text><text x="250" y="156" >F</text><text x="18" y="172" >Offset</text><text x="138" y="172" >W</text><text x="154" y="172" >C</text><text x="170" y="172" >R</text><text x="186" y="172" >C</text><text x="202" y="172" >S</text><text x="218" y="172" >S</text><text x="234" y="172" >Y</text><text x="250" y="172" >I</text><text x="138" y="188" >R</text><text x="154" y="188" >E</text><text x="170" y="188" >G</text><text x="186" y="188" >K</text><text x="202" y="188" >H</text><text x="218" y="188" >T</text><text x="234" y="188" >N</text><text x="250" y="188" >N</text><text x="98" y="220" >Checksum</text><text x="338" y="220" >Urgent</text><text x="394" y="220" >Pointer</text><text x="226" y="252" >[Options]</text><line x1="8" y1="264" x2="512" y2="264" class="solid"></line><text x="82" y="172" >Rsrvd</text><text x="362" y="172" >Window</text><text x="242" y="300" >Data</text><g><line x1="4" y1="40" x2="516" y2="40" class="solid"></line><line x1="4" y1="40" x2="4" y2="328" class="solid"></line><line x1="260" y1="40" x2="260" y2="72" class="solid"></line><line x1="516" y1="40" x2="516" y2="328" class="solid"></line><line x1="8" y1="72" x2="512" y2="72" class="solid"></line><line x1="4" y1="328" x2="516" y2="328" class="solid"></line></g><g><line x1="8" y1="136" x2="512" y2="136" class="solid"></line><line x1="68" y1="136" x2="68" y2="200" class="solid"></line><line x1="132" y1="136" x2="132" y2="200" class="solid"></line><line x1="148" y1="136" x2="148" y2="200" class="solid"></line><line x1="164" y1="136" x2="164" y2="200" class="solid"></line><line x1="180" y1="136" x2="180" y2="200" class="solid"></line><line x1="196" y1="136" x2="196" y2="200" class="solid"></line><line x1="212" y1="136" x2="212" y2="200" class="solid"></line><line x1="228" y1="136" x2="228" y2="200" class="solid"></line><line x1="244" y1="136" x2="244" y2="200" class="solid"></line><line x1="260" y1="136" x2="260" y2="232" class="solid"></line><line x1="8" y1="200" x2="512" y2="200" class="solid"></line><line x1="8" y1="232" x2="512" y2="232" class="solid"></line></g></svg>